%TF.GenerationSoftware,KiCad,Pcbnew,10.0.3*%
%TF.CreationDate,2026-05-26T23:16:29-07:00*%
%TF.ProjectId,MCU,4d43552e-6b69-4636-9164-5f7063625858,rev?*%
%TF.SameCoordinates,Original*%
%TF.FileFunction,Copper,L2,Bot*%
%TF.FilePolarity,Positive*%
%FSLAX46Y46*%
G04 Gerber Fmt 4.6, Leading zero omitted, Abs format (unit mm)*
G04 Created by KiCad (PCBNEW 10.0.3) date 2026-05-26 23:16:29*
%MOMM*%
%LPD*%
G01*
G04 APERTURE LIST*
G04 Aperture macros list*
%AMRoundRect*
0 Rectangle with rounded corners*
0 $1 Rounding radius*
0 $2 $3 $4 $5 $6 $7 $8 $9 X,Y pos of 4 corners*
0 Add a 4 corners polygon primitive as box body*
4,1,4,$2,$3,$4,$5,$6,$7,$8,$9,$2,$3,0*
0 Add four circle primitives for the rounded corners*
1,1,$1+$1,$2,$3*
1,1,$1+$1,$4,$5*
1,1,$1+$1,$6,$7*
1,1,$1+$1,$8,$9*
0 Add four rect primitives between the rounded corners*
20,1,$1+$1,$2,$3,$4,$5,0*
20,1,$1+$1,$4,$5,$6,$7,0*
20,1,$1+$1,$6,$7,$8,$9,0*
20,1,$1+$1,$8,$9,$2,$3,0*%
G04 Aperture macros list end*
%TA.AperFunction,ComponentPad*%
%ADD10R,2.000000X1.200000*%
%TD*%
%TA.AperFunction,ComponentPad*%
%ADD11O,2.000000X1.200000*%
%TD*%
%TA.AperFunction,ComponentPad*%
%ADD12RoundRect,0.250000X-0.600000X-0.725000X0.600000X-0.725000X0.600000X0.725000X-0.600000X0.725000X0*%
%TD*%
%TA.AperFunction,ComponentPad*%
%ADD13O,1.700000X1.950000*%
%TD*%
%TA.AperFunction,ComponentPad*%
%ADD14R,1.700000X1.700000*%
%TD*%
%TA.AperFunction,ComponentPad*%
%ADD15C,1.700000*%
%TD*%
%TA.AperFunction,ComponentPad*%
%ADD16R,1.600000X1.600000*%
%TD*%
%TA.AperFunction,ComponentPad*%
%ADD17O,1.600000X1.600000*%
%TD*%
%TA.AperFunction,ComponentPad*%
%ADD18RoundRect,0.250000X-0.550000X0.550000X-0.550000X-0.550000X0.550000X-0.550000X0.550000X0.550000X0*%
%TD*%
%TA.AperFunction,ComponentPad*%
%ADD19C,1.600000*%
%TD*%
%TA.AperFunction,ComponentPad*%
%ADD20C,6.000000*%
%TD*%
G04 APERTURE END LIST*
D10*
%TO.P,U2,1,3V3_1*%
%TO.N,+3.3V*%
X73500000Y-95780000D03*
D11*
%TO.P,U2,2,3V3_2*%
X73500000Y-98320000D03*
%TO.P,U2,3,CHIP_PU_3*%
%TO.N,unconnected-(U2-CHIP_PU-Pad3)*%
X73500000Y-100860000D03*
%TO.P,U2,4,GPIO4/ADC1_CH3_4*%
%TO.N,UART_DATA*%
X73500000Y-103400000D03*
%TO.P,U2,5,GPIO5/ADC1_CH4_5*%
%TO.N,unconnected-(U2-GPIO5{slash}ADC1_CH4-Pad5)*%
X73500000Y-105940000D03*
%TO.P,U2,6,GPIO6/ADC1_CH5_6*%
%TO.N,M3STEP*%
X73500000Y-108480000D03*
%TO.P,U2,7,GPIO7/ADC1_CH6_7*%
%TO.N,M3DIR*%
X73500000Y-111020000D03*
%TO.P,U2,8,GPIO15/ADC2_CH4/32K_P_8*%
%TO.N,unconnected-(U2-GPIO15{slash}ADC2_CH4{slash}32K_P-Pad8)*%
X73500000Y-113560000D03*
%TO.P,U2,9,GPIO16/ADC2_CH5/32K_N_9*%
%TO.N,unconnected-(U2-GPIO16{slash}ADC2_CH5{slash}32K_N-Pad9)*%
X73500000Y-116100000D03*
%TO.P,U2,10,GPIO17/ADC2_CH6_10*%
%TO.N,unconnected-(U2-GPIO17{slash}ADC2_CH6-Pad10)*%
X73500000Y-118640000D03*
%TO.P,U2,11,GPIO18/ADC2_CH7_11*%
%TO.N,unconnected-(U2-GPIO18{slash}ADC2_CH7-Pad11)*%
X73500000Y-121180000D03*
%TO.P,U2,12,GPIO8/ADC1_CH7_12*%
%TO.N,M2DIR*%
X73500000Y-123720000D03*
%TO.P,U2,13,GPIO3/ADC1_CH2_13*%
%TO.N,unconnected-(U2-GPIO3{slash}ADC1_CH2-Pad13)*%
X73500000Y-126260000D03*
%TO.P,U2,14,GPIO46_14*%
%TO.N,unconnected-(U2-GPIO46-Pad14)*%
X73500000Y-128800000D03*
%TO.P,U2,15,GPIO9/ADC1_CH8_15*%
%TO.N,M2STEP*%
X73500000Y-131340000D03*
%TO.P,U2,16,GPIO10/ADC1_CH9_16*%
%TO.N,M1DIR*%
X73500000Y-133880000D03*
%TO.P,U2,17,GPIO11/ADC2_CH0_17*%
%TO.N,M1STEP*%
X73500000Y-136420000D03*
%TO.P,U2,18,GPIO12/ADC2_CH1_18*%
%TO.N,FAULT3*%
X73500000Y-138960000D03*
%TO.P,U2,19,GPIO13/ADC2_CH2_19*%
%TO.N,FAULT2*%
X73500000Y-141500000D03*
%TO.P,U2,20,GPIO14/ADC2_CH3_20*%
%TO.N,FAULT1*%
X73496320Y-144037280D03*
%TO.P,U2,21,5V_21*%
%TO.N,unconnected-(U2-5V-Pad21)*%
X73496320Y-146577280D03*
%TO.P,U2,22,GND_22*%
%TO.N,GND*%
X73496320Y-149117280D03*
%TO.P,U2,23,GND_23*%
X96360000Y-149120000D03*
%TO.P,U2,24,GND_24*%
X96360000Y-146580000D03*
%TO.P,U2,25,GPIO19/USB_D-_25*%
%TO.N,unconnected-(U2-GPIO19{slash}USB_D--Pad25)*%
X96360000Y-144040000D03*
%TO.P,U2,26,GPIO20/USB_D+_26*%
%TO.N,unconnected-(U2-GPIO20{slash}USB_D+-Pad26)*%
X96360000Y-141500000D03*
%TO.P,U2,27,GPIO21_27*%
%TO.N,unconnected-(U2-GPIO21-Pad27)*%
X96360000Y-138960000D03*
%TO.P,U2,28,GPIO47_28*%
%TO.N,ENC_OUT1*%
X96360000Y-136420000D03*
%TO.P,U2,29,GPIO48_29*%
%TO.N,unconnected-(U2-GPIO48-Pad29)*%
X96360000Y-133880000D03*
%TO.P,U2,30,GPIO45_30*%
%TO.N,unconnected-(U2-GPIO45-Pad30)*%
X96360000Y-131340000D03*
%TO.P,U2,31,GPIO0_31*%
%TO.N,unconnected-(U2-GPIO0-Pad31)*%
X96360000Y-128800000D03*
%TO.P,U2,32,GPIO35_32*%
%TO.N,ENC_OUT2*%
X96360000Y-126260000D03*
%TO.P,U2,33,GPIO36_33*%
%TO.N,unconnected-(U2-GPIO36-Pad33)*%
X96360000Y-123720000D03*
%TO.P,U2,34,GPIO37_34*%
%TO.N,unconnected-(U2-GPIO37-Pad34)*%
X96360000Y-121180000D03*
%TO.P,U2,35,GPIO38_35*%
%TO.N,unconnected-(U2-GPIO38-Pad35)*%
X96360000Y-118640000D03*
%TO.P,U2,36,GPIO39/MTCK_36*%
%TO.N,unconnected-(U2-GPIO39{slash}MTCK-Pad36)*%
X96360000Y-116100000D03*
%TO.P,U2,37,GPIO40/MTDO_37*%
%TO.N,unconnected-(U2-GPIO40{slash}MTDO-Pad37)*%
X96360000Y-113560000D03*
%TO.P,U2,38,GPIO41/MTDI_38*%
%TO.N,unconnected-(U2-GPIO41{slash}MTDI-Pad38)*%
X96360000Y-111020000D03*
%TO.P,U2,39,GPIO42/MTMS_39*%
%TO.N,unconnected-(U2-GPIO42{slash}MTMS-Pad39)*%
X96360000Y-108480000D03*
%TO.P,U2,40,GPIO2/ADC1_CH1_40*%
%TO.N,unconnected-(U2-GPIO2{slash}ADC1_CH1-Pad40)*%
X96360000Y-105940000D03*
%TO.P,U2,41,GPIO1/ADC1_CH0_41*%
%TO.N,ENC_OUT3*%
X96360000Y-103400000D03*
%TO.P,U2,42,GPIO44/U0RXD_42*%
%TO.N,unconnected-(U2-GPIO44{slash}U0RXD-Pad42)*%
X96360000Y-100860000D03*
%TO.P,U2,43,GPIO43/U0TXD_43*%
%TO.N,unconnected-(U2-GPIO43{slash}U0TXD-Pad43)*%
X96360000Y-98320000D03*
%TO.P,U2,44,GND_44*%
%TO.N,GND*%
X96360000Y-95780000D03*
%TD*%
D12*
%TO.P,S2,1,Pin_1_1*%
%TO.N,UART_DATA*%
X83000000Y-80700000D03*
D13*
%TO.P,S2,2,Pin_2_2*%
%TO.N,+7.5V*%
X85500000Y-80700000D03*
%TO.P,S2,3,Pin_3_3*%
%TO.N,GND*%
X88000000Y-80700000D03*
%TD*%
D14*
%TO.P,ENC1,1,Pin_1_1*%
%TO.N,GND*%
X110000000Y-148795000D03*
D15*
%TO.P,ENC1,2,Pin_2_2*%
%TO.N,ENC_OUT1*%
X110000000Y-151335000D03*
%TO.P,ENC1,3,Pin_3_3*%
%TO.N,+3.3V*%
X110000000Y-153875000D03*
%TD*%
D14*
%TO.P,M3,1,Pin_1_1*%
%TO.N,Net-(A3-A2)*%
X42500000Y-94880000D03*
D15*
%TO.P,M3,2,Pin_2_2*%
%TO.N,Net-(A3-A1)*%
X42500000Y-97420000D03*
%TO.P,M3,3,Pin_3_3*%
%TO.N,Net-(A3-B1)*%
X42500000Y-99960000D03*
%TO.P,M3,4,Pin_4_4*%
%TO.N,Net-(A3-B2)*%
X42500000Y-102500000D03*
%TD*%
D16*
%TO.P,A1,1,GND_1*%
%TO.N,GND*%
X53160000Y-142110000D03*
D17*
%TO.P,A1,2,~{FLT}_2*%
%TO.N,FAULT1*%
X53160000Y-144650000D03*
%TO.P,A1,3,A2_3*%
%TO.N,Net-(A1-A2)*%
X53160000Y-147190000D03*
%TO.P,A1,4,A1_4*%
%TO.N,Net-(A1-A1)*%
X53160000Y-149730000D03*
%TO.P,A1,5,B1_5*%
%TO.N,Net-(A1-B1)*%
X53160000Y-152270000D03*
%TO.P,A1,6,B2_6*%
%TO.N,Net-(A1-B2)*%
X53160000Y-154810000D03*
%TO.P,A1,7,GND_7*%
%TO.N,GND*%
X53160000Y-157350000D03*
%TO.P,A1,8,VMOT_8*%
%TO.N,+12V*%
X53160000Y-159890000D03*
%TO.P,A1,9,~{EN}_9*%
%TO.N,unconnected-(A1-~{EN}-Pad9)*%
X65860000Y-159890000D03*
%TO.P,A1,10,M0_10*%
%TO.N,unconnected-(A1-M0-Pad10)*%
X65860000Y-157350000D03*
%TO.P,A1,11,M1_11*%
%TO.N,unconnected-(A1-M1-Pad11)*%
X65860000Y-154810000D03*
%TO.P,A1,12,M2_12*%
%TO.N,+3.3V*%
X65860000Y-152270000D03*
%TO.P,A1,13,~{RST}_13*%
X65860000Y-149730000D03*
%TO.P,A1,14,~{SLP}_14*%
X65860000Y-147190000D03*
%TO.P,A1,15,STEP_15*%
%TO.N,M1STEP*%
X65860000Y-144650000D03*
%TO.P,A1,16,DIR_16*%
%TO.N,M1DIR*%
X65860000Y-142110000D03*
%TD*%
D14*
%TO.P,M2,1,Pin_1_1*%
%TO.N,Net-(A2-A2)*%
X42500000Y-120380000D03*
D15*
%TO.P,M2,2,Pin_2_2*%
%TO.N,Net-(A2-A1)*%
X42500000Y-122920000D03*
%TO.P,M2,3,Pin_3_3*%
%TO.N,Net-(A2-B1)*%
X42500000Y-125460000D03*
%TO.P,M2,4,Pin_4_4*%
%TO.N,Net-(A2-B2)*%
X42500000Y-128000000D03*
%TD*%
D16*
%TO.P,A3,1,GND_1*%
%TO.N,GND*%
X53300000Y-90220000D03*
D17*
%TO.P,A3,2,~{FLT}_2*%
%TO.N,FAULT3*%
X53300000Y-92760000D03*
%TO.P,A3,3,A2_3*%
%TO.N,Net-(A3-A2)*%
X53300000Y-95300000D03*
%TO.P,A3,4,A1_4*%
%TO.N,Net-(A3-A1)*%
X53300000Y-97840000D03*
%TO.P,A3,5,B1_5*%
%TO.N,Net-(A3-B1)*%
X53300000Y-100380000D03*
%TO.P,A3,6,B2_6*%
%TO.N,Net-(A3-B2)*%
X53300000Y-102920000D03*
%TO.P,A3,7,GND_7*%
%TO.N,GND*%
X53300000Y-105460000D03*
%TO.P,A3,8,VMOT_8*%
%TO.N,+12V*%
X53300000Y-108000000D03*
%TO.P,A3,9,~{EN}_9*%
%TO.N,unconnected-(A3-~{EN}-Pad9)*%
X66000000Y-108000000D03*
%TO.P,A3,10,M0_10*%
%TO.N,unconnected-(A3-M0-Pad10)*%
X66000000Y-105460000D03*
%TO.P,A3,11,M1_11*%
%TO.N,unconnected-(A3-M1-Pad11)*%
X66000000Y-102920000D03*
%TO.P,A3,12,M2_12*%
%TO.N,+3.3V*%
X66000000Y-100380000D03*
%TO.P,A3,13,~{RST}_13*%
X66000000Y-97840000D03*
%TO.P,A3,14,~{SLP}_14*%
X66000000Y-95300000D03*
%TO.P,A3,15,STEP_15*%
%TO.N,M3STEP*%
X66000000Y-92760000D03*
%TO.P,A3,16,DIR_16*%
%TO.N,M3DIR*%
X66000000Y-90220000D03*
%TD*%
D18*
%TO.P,C1,1*%
%TO.N,GND*%
X45500000Y-163817621D03*
D19*
%TO.P,C1,2*%
%TO.N,+12V*%
X45500000Y-166317621D03*
%TD*%
D14*
%TO.P,ENC3,1,Pin_1_1*%
%TO.N,GND*%
X109000000Y-102500000D03*
D15*
%TO.P,ENC3,2,Pin_2_2*%
%TO.N,ENC_OUT3*%
X109000000Y-105040000D03*
%TO.P,ENC3,3,Pin_3_3*%
%TO.N,+3.3V*%
X109000000Y-107580000D03*
%TD*%
D12*
%TO.P,S3,1,Pin_1_1*%
%TO.N,UART_DATA*%
X95000000Y-80500000D03*
D13*
%TO.P,S3,2,Pin_2_2*%
%TO.N,+7.5V*%
X97500000Y-80500000D03*
%TO.P,S3,3,Pin_3_3*%
%TO.N,GND*%
X100000000Y-80500000D03*
%TD*%
D16*
%TO.P,A2,1,GND_1*%
%TO.N,GND*%
X53160000Y-116110000D03*
D17*
%TO.P,A2,2,~{FLT}_2*%
%TO.N,FAULT2*%
X53160000Y-118650000D03*
%TO.P,A2,3,A2_3*%
%TO.N,Net-(A2-A2)*%
X53160000Y-121190000D03*
%TO.P,A2,4,A1_4*%
%TO.N,Net-(A2-A1)*%
X53160000Y-123730000D03*
%TO.P,A2,5,B1_5*%
%TO.N,Net-(A2-B1)*%
X53160000Y-126270000D03*
%TO.P,A2,6,B2_6*%
%TO.N,Net-(A2-B2)*%
X53160000Y-128810000D03*
%TO.P,A2,7,GND_7*%
%TO.N,GND*%
X53160000Y-131350000D03*
%TO.P,A2,8,VMOT_8*%
%TO.N,+12V*%
X53160000Y-133890000D03*
%TO.P,A2,9,~{EN}_9*%
%TO.N,unconnected-(A2-~{EN}-Pad9)*%
X65860000Y-133890000D03*
%TO.P,A2,10,M0_10*%
%TO.N,unconnected-(A2-M0-Pad10)*%
X65860000Y-131350000D03*
%TO.P,A2,11,M1_11*%
%TO.N,unconnected-(A2-M1-Pad11)*%
X65860000Y-128810000D03*
%TO.P,A2,12,M2_12*%
%TO.N,+3.3V*%
X65860000Y-126270000D03*
%TO.P,A2,13,~{RST}_13*%
X65860000Y-123730000D03*
%TO.P,A2,14,~{SLP}_14*%
X65860000Y-121190000D03*
%TO.P,A2,15,STEP_15*%
%TO.N,M2STEP*%
X65860000Y-118650000D03*
%TO.P,A2,16,DIR_16*%
%TO.N,M2DIR*%
X65860000Y-116110000D03*
%TD*%
D14*
%TO.P,ENC2,1,Pin_1_1*%
%TO.N,GND*%
X110000000Y-126960000D03*
D15*
%TO.P,ENC2,2,Pin_2_2*%
%TO.N,ENC_OUT2*%
X110000000Y-129500000D03*
%TO.P,ENC2,3,Pin_3_3*%
%TO.N,+3.3V*%
X110000000Y-132040000D03*
%TD*%
D18*
%TO.P,C3,1*%
%TO.N,GND*%
X46000000Y-110500000D03*
D19*
%TO.P,C3,2*%
%TO.N,+12V*%
X46000000Y-113000000D03*
%TD*%
D20*
%TO.P,TP1,1,1_1*%
%TO.N,+7.5V*%
X56500000Y-81000000D03*
%TD*%
%TO.P,TP2,1,1_1*%
%TO.N,+12V*%
X30500000Y-137500000D03*
%TD*%
D12*
%TO.P,S1,1,Pin_1_1*%
%TO.N,UART_DATA*%
X71000000Y-80500000D03*
D13*
%TO.P,S1,2,Pin_2_2*%
%TO.N,+7.5V*%
X73500000Y-80500000D03*
%TO.P,S1,3,Pin_3_3*%
%TO.N,GND*%
X76000000Y-80500000D03*
%TD*%
D18*
%TO.P,C2,1*%
%TO.N,GND*%
X45500000Y-135317621D03*
D19*
%TO.P,C2,2*%
%TO.N,+12V*%
X45500000Y-137817621D03*
%TD*%
D14*
%TO.P,M1,1,Pin_1_1*%
%TO.N,Net-(A1-A2)*%
X42000000Y-148960000D03*
D15*
%TO.P,M1,2,Pin_2_2*%
%TO.N,Net-(A1-A1)*%
X42000000Y-151500000D03*
%TO.P,M1,3,Pin_3_3*%
%TO.N,Net-(A1-B1)*%
X42000000Y-154040000D03*
%TO.P,M1,4,Pin_4_4*%
%TO.N,Net-(A1-B2)*%
X42000000Y-156580000D03*
%TD*%
%TA.AperFunction,Conductor*%
%TO.N,GND*%
G36*
X118442539Y-76020185D02*
G01*
X118488294Y-76072989D01*
X118499500Y-76124500D01*
X118499500Y-169875500D01*
X118479815Y-169942539D01*
X118427011Y-169988294D01*
X118375500Y-169999500D01*
X24124500Y-169999500D01*
X24057461Y-169979815D01*
X24011706Y-169927011D01*
X24000500Y-169875500D01*
X24000500Y-166215269D01*
X44199500Y-166215269D01*
X44199500Y-166419972D01*
X44231522Y-166622155D01*
X44294781Y-166816844D01*
X44387715Y-166999234D01*
X44508028Y-167164834D01*
X44652786Y-167309592D01*
X44807749Y-167422177D01*
X44818390Y-167429908D01*
X44934607Y-167489124D01*
X45000776Y-167522839D01*
X45000778Y-167522839D01*
X45000781Y-167522841D01*
X45105137Y-167556748D01*
X45195465Y-167586098D01*
X45296557Y-167602109D01*
X45397648Y-167618121D01*
X45397649Y-167618121D01*
X45602351Y-167618121D01*
X45602352Y-167618121D01*
X45804534Y-167586098D01*
X45999219Y-167522841D01*
X46181610Y-167429908D01*
X46274590Y-167362353D01*
X46347213Y-167309592D01*
X46347215Y-167309589D01*
X46347219Y-167309587D01*
X46491966Y-167164840D01*
X46491968Y-167164836D01*
X46491971Y-167164834D01*
X46544732Y-167092211D01*
X46612287Y-166999231D01*
X46705220Y-166816840D01*
X46768477Y-166622155D01*
X46800500Y-166419973D01*
X46800500Y-166215269D01*
X46768477Y-166013087D01*
X46705220Y-165818402D01*
X46705218Y-165818399D01*
X46705218Y-165818397D01*
X46671503Y-165752228D01*
X46612287Y-165636011D01*
X46604556Y-165625370D01*
X46491971Y-165470407D01*
X46347219Y-165325655D01*
X46290861Y-165284709D01*
X46248195Y-165229379D01*
X46242216Y-165159765D01*
X46274821Y-165097970D01*
X46324743Y-165066684D01*
X46369117Y-165051980D01*
X46369124Y-165051977D01*
X46518345Y-164959936D01*
X46642315Y-164835966D01*
X46734356Y-164686745D01*
X46734358Y-164686740D01*
X46789505Y-164520318D01*
X46789506Y-164520311D01*
X46799999Y-164417607D01*
X46800000Y-164417594D01*
X46800000Y-164067621D01*
X45815686Y-164067621D01*
X45820080Y-164063227D01*
X45872741Y-163972015D01*
X45900000Y-163870282D01*
X45900000Y-163764960D01*
X45872741Y-163663227D01*
X45820080Y-163572015D01*
X45815686Y-163567621D01*
X46799999Y-163567621D01*
X46799999Y-163217649D01*
X46799998Y-163217634D01*
X46789505Y-163114923D01*
X46734358Y-162948501D01*
X46734356Y-162948496D01*
X46642315Y-162799275D01*
X46518345Y-162675305D01*
X46369124Y-162583264D01*
X46369119Y-162583262D01*
X46202697Y-162528115D01*
X46202690Y-162528114D01*
X46099986Y-162517621D01*
X45750000Y-162517621D01*
X45750000Y-163501935D01*
X45745606Y-163497541D01*
X45654394Y-163444880D01*
X45552661Y-163417621D01*
X45447339Y-163417621D01*
X45345606Y-163444880D01*
X45254394Y-163497541D01*
X45250000Y-163501935D01*
X45250000Y-162517621D01*
X44900028Y-162517621D01*
X44900012Y-162517622D01*
X44797302Y-162528115D01*
X44630880Y-162583262D01*
X44630875Y-162583264D01*
X44481654Y-162675305D01*
X44357684Y-162799275D01*
X44265643Y-162948496D01*
X44265641Y-162948501D01*
X44210494Y-163114923D01*
X44210493Y-163114930D01*
X44200000Y-163217634D01*
X44200000Y-163567621D01*
X45184314Y-163567621D01*
X45179920Y-163572015D01*
X45127259Y-163663227D01*
X45100000Y-163764960D01*
X45100000Y-163870282D01*
X45127259Y-163972015D01*
X45179920Y-164063227D01*
X45184314Y-164067621D01*
X44200001Y-164067621D01*
X44200001Y-164417607D01*
X44210494Y-164520318D01*
X44265641Y-164686740D01*
X44265643Y-164686745D01*
X44357684Y-164835966D01*
X44481654Y-164959936D01*
X44630875Y-165051977D01*
X44630882Y-165051980D01*
X44675256Y-165066684D01*
X44732701Y-165106456D01*
X44759525Y-165170972D01*
X44747210Y-165239748D01*
X44709139Y-165284708D01*
X44652782Y-165325653D01*
X44508028Y-165470407D01*
X44387715Y-165636007D01*
X44294781Y-165818397D01*
X44231522Y-166013086D01*
X44199500Y-166215269D01*
X24000500Y-166215269D01*
X24000500Y-148062135D01*
X40649500Y-148062135D01*
X40649500Y-149857870D01*
X40649501Y-149857876D01*
X40655908Y-149917483D01*
X40706202Y-150052328D01*
X40706206Y-150052335D01*
X40792452Y-150167544D01*
X40792455Y-150167547D01*
X40907664Y-150253793D01*
X40907671Y-150253797D01*
X41039082Y-150302810D01*
X41095016Y-150344681D01*
X41119433Y-150410145D01*
X41104582Y-150478418D01*
X41083431Y-150506673D01*
X40969889Y-150620215D01*
X40844951Y-150792179D01*
X40748444Y-150981585D01*
X40682753Y-151183760D01*
X40649500Y-151393713D01*
X40649500Y-151606286D01*
X40675552Y-151770776D01*
X40682754Y-151816243D01*
X40731239Y-151965465D01*
X40748444Y-152018414D01*
X40844951Y-152207820D01*
X40969890Y-152379786D01*
X41120213Y-152530109D01*
X41292182Y-152655050D01*
X41300946Y-152659516D01*
X41351742Y-152707491D01*
X41368536Y-152775312D01*
X41345998Y-152841447D01*
X41300946Y-152880484D01*
X41292182Y-152884949D01*
X41120213Y-153009890D01*
X40969890Y-153160213D01*
X40844951Y-153332179D01*
X40748444Y-153521585D01*
X40682753Y-153723760D01*
X40649500Y-153933713D01*
X40649500Y-154146286D01*
X40675552Y-154310776D01*
X40682754Y-154356243D01*
X40731239Y-154505465D01*
X40748444Y-154558414D01*
X40844951Y-154747820D01*
X40969890Y-154919786D01*
X41120213Y-155070109D01*
X41292182Y-155195050D01*
X41300946Y-155199516D01*
X41351742Y-155247491D01*
X41368536Y-155315312D01*
X41345998Y-155381447D01*
X41300946Y-155420484D01*
X41292182Y-155424949D01*
X41120213Y-155549890D01*
X40969890Y-155700213D01*
X40844951Y-155872179D01*
X40748444Y-156061585D01*
X40682753Y-156263760D01*
X40649500Y-156473713D01*
X40649500Y-156686286D01*
X40675552Y-156850776D01*
X40682754Y-156896243D01*
X40731239Y-157045465D01*
X40748444Y-157098414D01*
X40844951Y-157287820D01*
X40969890Y-157459786D01*
X41120213Y-157610109D01*
X41292179Y-157735048D01*
X41292181Y-157735049D01*
X41292184Y-157735051D01*
X41481588Y-157831557D01*
X41683757Y-157897246D01*
X41893713Y-157930500D01*
X41893714Y-157930500D01*
X42106286Y-157930500D01*
X42106287Y-157930500D01*
X42316243Y-157897246D01*
X42518412Y-157831557D01*
X42707816Y-157735051D01*
X42818639Y-157654534D01*
X42879786Y-157610109D01*
X42879788Y-157610106D01*
X42879792Y-157610104D01*
X43030104Y-157459792D01*
X43030106Y-157459788D01*
X43030109Y-157459786D01*
X43155048Y-157287820D01*
X43155047Y-157287820D01*
X43155051Y-157287816D01*
X43251557Y-157098412D01*
X43317246Y-156896243D01*
X43350500Y-156686287D01*
X43350500Y-156473713D01*
X43317246Y-156263757D01*
X43251557Y-156061588D01*
X43155051Y-155872184D01*
X43155049Y-155872181D01*
X43155048Y-155872179D01*
X43030109Y-155700213D01*
X42879786Y-155549890D01*
X42707820Y-155424951D01*
X42707115Y-155424591D01*
X42699054Y-155420485D01*
X42648259Y-155372512D01*
X42631463Y-155304692D01*
X42653999Y-155238556D01*
X42699054Y-155199515D01*
X42707816Y-155195051D01*
X42802091Y-155126557D01*
X42879786Y-155070109D01*
X42879788Y-155070106D01*
X42879792Y-155070104D01*
X43030104Y-154919792D01*
X43030106Y-154919788D01*
X43030109Y-154919786D01*
X43155048Y-154747820D01*
X43155047Y-154747820D01*
X43155051Y-154747816D01*
X43251557Y-154558412D01*
X43317246Y-154356243D01*
X43350500Y-154146287D01*
X43350500Y-153933713D01*
X43317246Y-153723757D01*
X43251557Y-153521588D01*
X43155051Y-153332184D01*
X43155049Y-153332181D01*
X43155048Y-153332179D01*
X43030109Y-153160213D01*
X42879786Y-153009890D01*
X42707820Y-152884951D01*
X42707115Y-152884591D01*
X42699054Y-152880485D01*
X42648259Y-152832512D01*
X42631463Y-152764692D01*
X42653999Y-152698556D01*
X42699054Y-152659515D01*
X42707816Y-152655051D01*
X42751321Y-152623443D01*
X42879786Y-152530109D01*
X42879788Y-152530106D01*
X42879792Y-152530104D01*
X43030104Y-152379792D01*
X43030106Y-152379788D01*
X43030109Y-152379786D01*
X43155048Y-152207820D01*
X43155047Y-152207820D01*
X43155051Y-152207816D01*
X43251557Y-152018412D01*
X43317246Y-151816243D01*
X43350500Y-151606287D01*
X43350500Y-151393713D01*
X43317246Y-151183757D01*
X43251557Y-150981588D01*
X43155051Y-150792184D01*
X43155049Y-150792181D01*
X43155048Y-150792179D01*
X43030109Y-150620213D01*
X42916569Y-150506673D01*
X42883084Y-150445350D01*
X42888068Y-150375658D01*
X42929940Y-150319725D01*
X42960915Y-150302810D01*
X43092331Y-150253796D01*
X43207546Y-150167546D01*
X43293796Y-150052331D01*
X43344091Y-149917483D01*
X43350500Y-149857873D01*
X43350499Y-148062128D01*
X43344091Y-148002517D01*
X43293796Y-147867669D01*
X43293793Y-147867664D01*
X43207547Y-147752455D01*
X43207544Y-147752452D01*
X43092335Y-147666206D01*
X43092328Y-147666202D01*
X42957482Y-147615908D01*
X42957483Y-147615908D01*
X42897883Y-147609501D01*
X42897881Y-147609500D01*
X42897873Y-147609500D01*
X42897864Y-147609500D01*
X41102129Y-147609500D01*
X41102123Y-147609501D01*
X41042516Y-147615908D01*
X40907671Y-147666202D01*
X40907664Y-147666206D01*
X40792455Y-147752452D01*
X40792452Y-147752455D01*
X40706206Y-147867664D01*
X40706204Y-147867669D01*
X40655908Y-148002517D01*
X40651117Y-148047085D01*
X40649501Y-148062123D01*
X40649500Y-148062135D01*
X24000500Y-148062135D01*
X24000500Y-144547648D01*
X51859500Y-144547648D01*
X51859500Y-144752351D01*
X51891522Y-144954534D01*
X51954781Y-145149223D01*
X52047715Y-145331613D01*
X52168028Y-145497213D01*
X52312786Y-145641971D01*
X52444777Y-145737866D01*
X52478390Y-145762287D01*
X52569840Y-145808883D01*
X52571080Y-145809515D01*
X52621876Y-145857490D01*
X52638671Y-145925311D01*
X52616134Y-145991446D01*
X52571080Y-146030485D01*
X52478386Y-146077715D01*
X52312786Y-146198028D01*
X52168028Y-146342786D01*
X52047715Y-146508386D01*
X51954781Y-146690776D01*
X51891522Y-146885465D01*
X51859500Y-147087648D01*
X51859500Y-147292351D01*
X51891522Y-147494534D01*
X51954781Y-147689223D01*
X51987000Y-147752455D01*
X52045702Y-147867664D01*
X52047715Y-147871613D01*
X52168028Y-148037213D01*
X52312786Y-148181971D01*
X52449045Y-148280967D01*
X52478390Y-148302287D01*
X52569840Y-148348883D01*
X52571080Y-148349515D01*
X52621876Y-148397490D01*
X52638671Y-148465311D01*
X52616134Y-148531446D01*
X52571080Y-148570485D01*
X52478386Y-148617715D01*
X52312786Y-148738028D01*
X52168028Y-148882786D01*
X52047715Y-149048386D01*
X51954781Y-149230776D01*
X51891522Y-149425465D01*
X51859500Y-149627648D01*
X51859500Y-149832351D01*
X51891522Y-150034534D01*
X51954781Y-150229223D01*
X52047715Y-150411613D01*
X52168028Y-150577213D01*
X52312786Y-150721971D01*
X52443014Y-150816585D01*
X52478390Y-150842287D01*
X52569840Y-150888883D01*
X52571080Y-150889515D01*
X52621876Y-150937490D01*
X52638671Y-151005311D01*
X52616134Y-151071446D01*
X52571080Y-151110485D01*
X52478386Y-151157715D01*
X52312786Y-151278028D01*
X52168028Y-151422786D01*
X52047715Y-151588386D01*
X51954781Y-151770776D01*
X51891522Y-151965465D01*
X51859500Y-152167648D01*
X51859500Y-152372352D01*
X51863878Y-152399995D01*
X51891522Y-152574534D01*
X51954781Y-152769223D01*
X52047715Y-152951613D01*
X52168028Y-153117213D01*
X52312786Y-153261971D01*
X52443014Y-153356585D01*
X52478390Y-153382287D01*
X52569840Y-153428883D01*
X52571080Y-153429515D01*
X52621876Y-153477490D01*
X52638671Y-153545311D01*
X52616134Y-153611446D01*
X52571080Y-153650485D01*
X52478386Y-153697715D01*
X52312786Y-153818028D01*
X52168028Y-153962786D01*
X52047715Y-154128386D01*
X51954781Y-154310776D01*
X51891522Y-154505465D01*
X51859500Y-154707648D01*
X51859500Y-154912352D01*
X51863878Y-154939995D01*
X51891522Y-155114534D01*
X51954781Y-155309223D01*
X52047715Y-155491613D01*
X52168028Y-155657213D01*
X52312786Y-155801971D01*
X52467749Y-155914556D01*
X52478390Y-155922287D01*
X52550424Y-155958990D01*
X52571629Y-155969795D01*
X52622425Y-156017770D01*
X52639220Y-156085591D01*
X52616682Y-156151726D01*
X52571629Y-156190765D01*
X52478650Y-156238140D01*
X52313105Y-156358417D01*
X52313104Y-156358417D01*
X52168417Y-156503104D01*
X52168417Y-156503105D01*
X52048140Y-156668650D01*
X51955244Y-156850970D01*
X51892009Y-157045586D01*
X51883391Y-157100000D01*
X52844314Y-157100000D01*
X52839920Y-157104394D01*
X52787259Y-157195606D01*
X52760000Y-157297339D01*
X52760000Y-157402661D01*
X52787259Y-157504394D01*
X52839920Y-157595606D01*
X52844314Y-157600000D01*
X51883391Y-157600000D01*
X51892009Y-157654413D01*
X51955244Y-157849029D01*
X52048140Y-158031349D01*
X52168417Y-158196894D01*
X52168417Y-158196895D01*
X52313104Y-158341582D01*
X52478652Y-158461861D01*
X52571628Y-158509234D01*
X52622425Y-158557208D01*
X52639220Y-158625029D01*
X52616683Y-158691164D01*
X52571630Y-158730203D01*
X52478388Y-158777713D01*
X52312786Y-158898028D01*
X52168028Y-159042786D01*
X52047715Y-159208386D01*
X51954781Y-159390776D01*
X51891522Y-159585465D01*
X51859500Y-159787648D01*
X51859500Y-159992351D01*
X51891522Y-160194534D01*
X51954781Y-160389223D01*
X52047715Y-160571613D01*
X52168028Y-160737213D01*
X52312786Y-160881971D01*
X52467749Y-160994556D01*
X52478390Y-161002287D01*
X52594607Y-161061503D01*
X52660776Y-161095218D01*
X52660778Y-161095218D01*
X52660781Y-161095220D01*
X52765137Y-161129127D01*
X52855465Y-161158477D01*
X52956557Y-161174488D01*
X53057648Y-161190500D01*
X53057649Y-161190500D01*
X53262351Y-161190500D01*
X53262352Y-161190500D01*
X53464534Y-161158477D01*
X53659219Y-161095220D01*
X53841610Y-161002287D01*
X53934590Y-160934732D01*
X54007213Y-160881971D01*
X54007215Y-160881968D01*
X54007219Y-160881966D01*
X54151966Y-160737219D01*
X54151968Y-160737215D01*
X54151971Y-160737213D01*
X54204732Y-160664590D01*
X54272287Y-160571610D01*
X54365220Y-160389219D01*
X54428477Y-160194534D01*
X54460500Y-159992352D01*
X54460500Y-159787648D01*
X54428477Y-159585466D01*
X54365220Y-159390781D01*
X54365218Y-159390778D01*
X54365218Y-159390776D01*
X54331503Y-159324607D01*
X54272287Y-159208390D01*
X54264556Y-159197749D01*
X54151971Y-159042786D01*
X54007213Y-158898028D01*
X53841611Y-158777713D01*
X53748369Y-158730203D01*
X53697574Y-158682229D01*
X53680779Y-158614407D01*
X53703317Y-158548273D01*
X53748371Y-158509234D01*
X53841347Y-158461861D01*
X54006894Y-158341582D01*
X54006895Y-158341582D01*
X54151582Y-158196895D01*
X54151582Y-158196894D01*
X54271859Y-158031349D01*
X54364755Y-157849029D01*
X54427990Y-157654413D01*
X54436609Y-157600000D01*
X53475686Y-157600000D01*
X53480080Y-157595606D01*
X53532741Y-157504394D01*
X53560000Y-157402661D01*
X53560000Y-157297339D01*
X53532741Y-157195606D01*
X53480080Y-157104394D01*
X53475686Y-157100000D01*
X54436609Y-157100000D01*
X54427990Y-157045586D01*
X54364755Y-156850970D01*
X54271859Y-156668650D01*
X54151582Y-156503105D01*
X54151582Y-156503104D01*
X54006895Y-156358417D01*
X53841349Y-156238140D01*
X53748370Y-156190765D01*
X53697574Y-156142790D01*
X53680779Y-156074969D01*
X53703316Y-156008835D01*
X53748370Y-155969795D01*
X53748920Y-155969515D01*
X53841610Y-155922287D01*
X53862770Y-155906913D01*
X54007213Y-155801971D01*
X54007215Y-155801968D01*
X54007219Y-155801966D01*
X54151966Y-155657219D01*
X54151968Y-155657215D01*
X54151971Y-155657213D01*
X54229944Y-155549890D01*
X54272287Y-155491610D01*
X54365220Y-155309219D01*
X54428477Y-155114534D01*
X54460500Y-154912352D01*
X54460500Y-154707648D01*
X54428477Y-154505466D01*
X54365220Y-154310781D01*
X54365218Y-154310778D01*
X54365218Y-154310776D01*
X54304310Y-154191239D01*
X54272287Y-154128390D01*
X54264556Y-154117749D01*
X54151971Y-153962786D01*
X54007213Y-153818028D01*
X53841614Y-153697715D01*
X53835006Y-153694348D01*
X53748917Y-153650483D01*
X53698123Y-153602511D01*
X53681328Y-153534690D01*
X53703865Y-153468555D01*
X53748917Y-153429516D01*
X53841610Y-153382287D01*
X53876986Y-153356585D01*
X54007213Y-153261971D01*
X54007215Y-153261968D01*
X54007219Y-153261966D01*
X54151966Y-153117219D01*
X54151968Y-153117215D01*
X54151971Y-153117213D01*
X54229944Y-153009890D01*
X54272287Y-152951610D01*
X54365220Y-152769219D01*
X54428477Y-152574534D01*
X54460500Y-152372352D01*
X54460500Y-152167648D01*
X54428477Y-151965466D01*
X54365220Y-151770781D01*
X54365218Y-151770778D01*
X54365218Y-151770776D01*
X54304310Y-151651239D01*
X54272287Y-151588390D01*
X54264556Y-151577749D01*
X54151971Y-151422786D01*
X54007213Y-151278028D01*
X53841614Y-151157715D01*
X53835006Y-151154348D01*
X53748917Y-151110483D01*
X53698123Y-151062511D01*
X53681328Y-150994690D01*
X53703865Y-150928555D01*
X53748917Y-150889516D01*
X53841610Y-150842287D01*
X53876986Y-150816585D01*
X54007213Y-150721971D01*
X54007215Y-150721968D01*
X54007219Y-150721966D01*
X54151966Y-150577219D01*
X54151968Y-150577215D01*
X54151971Y-150577213D01*
X54204732Y-150504590D01*
X54272287Y-150411610D01*
X54365220Y-150229219D01*
X54428477Y-150034534D01*
X54460500Y-149832352D01*
X54460500Y-149627648D01*
X54443019Y-149517280D01*
X54428477Y-149425465D01*
X54365218Y-149230776D01*
X54299606Y-149102007D01*
X54272287Y-149048390D01*
X54264556Y-149037749D01*
X54151971Y-148882786D01*
X54007213Y-148738028D01*
X53841614Y-148617715D01*
X53810785Y-148602007D01*
X53748917Y-148570483D01*
X53698123Y-148522511D01*
X53681328Y-148454690D01*
X53703865Y-148388555D01*
X53748917Y-148349516D01*
X53841610Y-148302287D01*
X53870955Y-148280967D01*
X54007213Y-148181971D01*
X54007215Y-148181968D01*
X54007219Y-148181966D01*
X54151966Y-148037219D01*
X54151968Y-148037215D01*
X54151971Y-148037213D01*
X54253715Y-147897172D01*
X54272287Y-147871610D01*
X54365220Y-147689219D01*
X54428477Y-147494534D01*
X54460500Y-147292352D01*
X54460500Y-147087648D01*
X54446975Y-147002255D01*
X54428477Y-146885465D01*
X54365218Y-146690776D01*
X54331503Y-146624607D01*
X54272287Y-146508390D01*
X54259412Y-146490669D01*
X54151971Y-146342786D01*
X54007213Y-146198028D01*
X53841614Y-146077715D01*
X53835006Y-146074348D01*
X53748917Y-146030483D01*
X53698123Y-145982511D01*
X53681328Y-145914690D01*
X53703865Y-145848555D01*
X53748917Y-145809516D01*
X53841610Y-145762287D01*
X53875223Y-145737866D01*
X54007213Y-145641971D01*
X54007215Y-145641968D01*
X54007219Y-145641966D01*
X54151966Y-145497219D01*
X54151968Y-145497215D01*
X54151971Y-145497213D01*
X54204732Y-145424590D01*
X54272287Y-145331610D01*
X54365220Y-145149219D01*
X54428477Y-144954534D01*
X54460500Y-144752352D01*
X54460500Y-144547648D01*
X54447005Y-144462445D01*
X54428477Y-144345465D01*
X54365218Y-144150776D01*
X54331503Y-144084607D01*
X54272287Y-143968390D01*
X54259412Y-143950669D01*
X54151971Y-143802786D01*
X54007217Y-143658032D01*
X54007212Y-143658028D01*
X53970325Y-143631228D01*
X53927659Y-143575898D01*
X53921680Y-143506285D01*
X53954286Y-143444490D01*
X54015124Y-143410133D01*
X54029956Y-143407620D01*
X54067379Y-143403596D01*
X54202086Y-143353354D01*
X54202093Y-143353350D01*
X54317187Y-143267190D01*
X54317190Y-143267187D01*
X54403350Y-143152093D01*
X54403354Y-143152086D01*
X54453596Y-143017379D01*
X54453598Y-143017372D01*
X54459999Y-142957844D01*
X54460000Y-142957827D01*
X54460000Y-142360000D01*
X53475686Y-142360000D01*
X53480080Y-142355606D01*
X53532741Y-142264394D01*
X53560000Y-142162661D01*
X53560000Y-142057339D01*
X53546685Y-142007648D01*
X64559500Y-142007648D01*
X64559500Y-142212351D01*
X64591522Y-142414534D01*
X64654781Y-142609223D01*
X64747715Y-142791613D01*
X64868028Y-142957213D01*
X65012786Y-143101971D01*
X65167749Y-143214556D01*
X65178390Y-143222287D01*
X65266511Y-143267187D01*
X65271080Y-143269515D01*
X65321876Y-143317490D01*
X65338671Y-143385311D01*
X65316134Y-143451446D01*
X65271080Y-143490485D01*
X65178386Y-143537715D01*
X65012786Y-143658028D01*
X64868028Y-143802786D01*
X64747715Y-143968386D01*
X64654781Y-144150776D01*
X64591522Y-144345465D01*
X64559500Y-144547648D01*
X64559500Y-144752351D01*
X64591522Y-144954534D01*
X64654781Y-145149223D01*
X64747715Y-145331613D01*
X64868028Y-145497213D01*
X65012786Y-145641971D01*
X65144777Y-145737866D01*
X65178390Y-145762287D01*
X65269840Y-145808883D01*
X65271080Y-145809515D01*
X65321876Y-145857490D01*
X65338671Y-145925311D01*
X65316134Y-145991446D01*
X65271080Y-146030485D01*
X65178386Y-146077715D01*
X65012786Y-146198028D01*
X64868028Y-146342786D01*
X64747715Y-146508386D01*
X64654781Y-146690776D01*
X64591522Y-146885465D01*
X64559500Y-147087648D01*
X64559500Y-147292351D01*
X64591522Y-147494534D01*
X64654781Y-147689223D01*
X64687000Y-147752455D01*
X64745702Y-147867664D01*
X64747715Y-147871613D01*
X64868028Y-148037213D01*
X65012786Y-148181971D01*
X65149045Y-148280967D01*
X65178390Y-148302287D01*
X65269840Y-148348883D01*
X65271080Y-148349515D01*
X65321876Y-148397490D01*
X65338671Y-148465311D01*
X65316134Y-148531446D01*
X65271080Y-148570485D01*
X65178386Y-148617715D01*
X65012786Y-148738028D01*
X64868028Y-148882786D01*
X64747715Y-149048386D01*
X64654781Y-149230776D01*
X64591522Y-149425465D01*
X64559500Y-149627648D01*
X64559500Y-149832351D01*
X64591522Y-150034534D01*
X64654781Y-150229223D01*
X64747715Y-150411613D01*
X64868028Y-150577213D01*
X65012786Y-150721971D01*
X65143014Y-150816585D01*
X65178390Y-150842287D01*
X65269840Y-150888883D01*
X65271080Y-150889515D01*
X65321876Y-150937490D01*
X65338671Y-151005311D01*
X65316134Y-151071446D01*
X65271080Y-151110485D01*
X65178386Y-151157715D01*
X65012786Y-151278028D01*
X64868028Y-151422786D01*
X64747715Y-151588386D01*
X64654781Y-151770776D01*
X64591522Y-151965465D01*
X64559500Y-152167648D01*
X64559500Y-152372352D01*
X64563878Y-152399995D01*
X64591522Y-152574534D01*
X64654781Y-152769223D01*
X64747715Y-152951613D01*
X64868028Y-153117213D01*
X65012786Y-153261971D01*
X65143014Y-153356585D01*
X65178390Y-153382287D01*
X65269840Y-153428883D01*
X65271080Y-153429515D01*
X65321876Y-153477490D01*
X65338671Y-153545311D01*
X65316134Y-153611446D01*
X65271080Y-153650485D01*
X65178386Y-153697715D01*
X65012786Y-153818028D01*
X64868028Y-153962786D01*
X64747715Y-154128386D01*
X64654781Y-154310776D01*
X64591522Y-154505465D01*
X64559500Y-154707648D01*
X64559500Y-154912352D01*
X64563878Y-154939995D01*
X64591522Y-155114534D01*
X64654781Y-155309223D01*
X64747715Y-155491613D01*
X64868028Y-155657213D01*
X65012786Y-155801971D01*
X65167749Y-155914556D01*
X65178390Y-155922287D01*
X65269840Y-155968883D01*
X65271080Y-155969515D01*
X65321876Y-156017490D01*
X65338671Y-156085311D01*
X65316134Y-156151446D01*
X65271080Y-156190485D01*
X65178386Y-156237715D01*
X65012786Y-156358028D01*
X64868028Y-156502786D01*
X64747715Y-156668386D01*
X64654781Y-156850776D01*
X64591522Y-157045465D01*
X64559500Y-157247648D01*
X64559500Y-157452352D01*
X64563878Y-157479995D01*
X64591522Y-157654534D01*
X64654781Y-157849223D01*
X64747715Y-158031613D01*
X64868028Y-158197213D01*
X65012786Y-158341971D01*
X65167749Y-158454556D01*
X65178390Y-158462287D01*
X65269840Y-158508883D01*
X65271080Y-158509515D01*
X65321876Y-158557490D01*
X65338671Y-158625311D01*
X65316134Y-158691446D01*
X65271080Y-158730485D01*
X65178386Y-158777715D01*
X65012786Y-158898028D01*
X64868028Y-159042786D01*
X64747715Y-159208386D01*
X64654781Y-159390776D01*
X64591522Y-159585465D01*
X64559500Y-159787648D01*
X64559500Y-159992351D01*
X64591522Y-160194534D01*
X64654781Y-160389223D01*
X64747715Y-160571613D01*
X64868028Y-160737213D01*
X65012786Y-160881971D01*
X65167749Y-160994556D01*
X65178390Y-161002287D01*
X65294607Y-161061503D01*
X65360776Y-161095218D01*
X65360778Y-161095218D01*
X65360781Y-161095220D01*
X65465137Y-161129127D01*
X65555465Y-161158477D01*
X65656557Y-161174488D01*
X65757648Y-161190500D01*
X65757649Y-161190500D01*
X65962351Y-161190500D01*
X65962352Y-161190500D01*
X66164534Y-161158477D01*
X66359219Y-161095220D01*
X66541610Y-161002287D01*
X66634590Y-160934732D01*
X66707213Y-160881971D01*
X66707215Y-160881968D01*
X66707219Y-160881966D01*
X66851966Y-160737219D01*
X66851968Y-160737215D01*
X66851971Y-160737213D01*
X66904732Y-160664590D01*
X66972287Y-160571610D01*
X67065220Y-160389219D01*
X67128477Y-160194534D01*
X67160500Y-159992352D01*
X67160500Y-159787648D01*
X67128477Y-159585466D01*
X67065220Y-159390781D01*
X67065218Y-159390778D01*
X67065218Y-159390776D01*
X67031503Y-159324607D01*
X66972287Y-159208390D01*
X66964556Y-159197749D01*
X66851971Y-159042786D01*
X66707213Y-158898028D01*
X66541614Y-158777715D01*
X66535006Y-158774348D01*
X66448917Y-158730483D01*
X66398123Y-158682511D01*
X66381328Y-158614690D01*
X66403865Y-158548555D01*
X66448917Y-158509516D01*
X66541610Y-158462287D01*
X66562770Y-158446913D01*
X66707213Y-158341971D01*
X66707215Y-158341968D01*
X66707219Y-158341966D01*
X66851966Y-158197219D01*
X66851968Y-158197215D01*
X66851971Y-158197213D01*
X66904732Y-158124590D01*
X66972287Y-158031610D01*
X67065220Y-157849219D01*
X67128477Y-157654534D01*
X67160500Y-157452352D01*
X67160500Y-157247648D01*
X67152257Y-157195606D01*
X67128477Y-157045465D01*
X67097458Y-156950000D01*
X67065220Y-156850781D01*
X67065218Y-156850778D01*
X67065218Y-156850776D01*
X67031503Y-156784607D01*
X66972287Y-156668390D01*
X66964556Y-156657749D01*
X66851971Y-156502786D01*
X66707213Y-156358028D01*
X66541614Y-156237715D01*
X66535006Y-156234348D01*
X66448917Y-156190483D01*
X66398123Y-156142511D01*
X66381328Y-156074690D01*
X66403865Y-156008555D01*
X66448917Y-155969516D01*
X66541610Y-155922287D01*
X66562770Y-155906913D01*
X66707213Y-155801971D01*
X66707215Y-155801968D01*
X66707219Y-155801966D01*
X66851966Y-155657219D01*
X66851968Y-155657215D01*
X66851971Y-155657213D01*
X66929944Y-155549890D01*
X66972287Y-155491610D01*
X67065220Y-155309219D01*
X67128477Y-155114534D01*
X67160500Y-154912352D01*
X67160500Y-154707648D01*
X67128477Y-154505466D01*
X67065220Y-154310781D01*
X67065218Y-154310778D01*
X67065218Y-154310776D01*
X67004310Y-154191239D01*
X66972287Y-154128390D01*
X66964556Y-154117749D01*
X66851971Y-153962786D01*
X66707213Y-153818028D01*
X66541614Y-153697715D01*
X66535006Y-153694348D01*
X66448917Y-153650483D01*
X66398123Y-153602511D01*
X66381328Y-153534690D01*
X66403865Y-153468555D01*
X66448917Y-153429516D01*
X66541610Y-153382287D01*
X66576986Y-153356585D01*
X66707213Y-153261971D01*
X66707215Y-153261968D01*
X66707219Y-153261966D01*
X66851966Y-153117219D01*
X66851968Y-153117215D01*
X66851971Y-153117213D01*
X66929944Y-153009890D01*
X66972287Y-152951610D01*
X67065220Y-152769219D01*
X67128477Y-152574534D01*
X67160500Y-152372352D01*
X67160500Y-152167648D01*
X67128477Y-151965466D01*
X67065220Y-151770781D01*
X67065218Y-151770778D01*
X67065218Y-151770776D01*
X67004310Y-151651239D01*
X66972287Y-151588390D01*
X66964556Y-151577749D01*
X66851971Y-151422786D01*
X66707213Y-151278028D01*
X66639336Y-151228713D01*
X108649500Y-151228713D01*
X108649500Y-151441286D01*
X108675633Y-151606287D01*
X108682754Y-151651243D01*
X108721594Y-151770781D01*
X108748444Y-151853414D01*
X108844951Y-152042820D01*
X108969890Y-152214786D01*
X109120213Y-152365109D01*
X109292182Y-152490050D01*
X109300946Y-152494516D01*
X109351742Y-152542491D01*
X109368536Y-152610312D01*
X109345998Y-152676447D01*
X109300946Y-152715484D01*
X109292182Y-152719949D01*
X109120213Y-152844890D01*
X108969890Y-152995213D01*
X108844951Y-153167179D01*
X108748444Y-153356585D01*
X108682753Y-153558760D01*
X108649500Y-153768713D01*
X108649500Y-153981286D01*
X108675633Y-154146287D01*
X108682754Y-154191243D01*
X108721594Y-154310781D01*
X108748444Y-154393414D01*
X108844951Y-154582820D01*
X108969890Y-154754786D01*
X109120213Y-154905109D01*
X109292179Y-155030048D01*
X109292181Y-155030049D01*
X109292184Y-155030051D01*
X109481588Y-155126557D01*
X109683757Y-155192246D01*
X109893713Y-155225500D01*
X109893714Y-155225500D01*
X110106286Y-155225500D01*
X110106287Y-155225500D01*
X110316243Y-155192246D01*
X110518412Y-155126557D01*
X110707816Y-155030051D01*
X110859576Y-154919792D01*
X110879786Y-154905109D01*
X110879788Y-154905106D01*
X110879792Y-154905104D01*
X111030104Y-154754792D01*
X111030106Y-154754788D01*
X111030109Y-154754786D01*
X111155048Y-154582820D01*
X111155047Y-154582820D01*
X111155051Y-154582816D01*
X111251557Y-154393412D01*
X111317246Y-154191243D01*
X111350500Y-153981287D01*
X111350500Y-153768713D01*
X111317246Y-153558757D01*
X111251557Y-153356588D01*
X111155051Y-153167184D01*
X111155049Y-153167181D01*
X111155048Y-153167179D01*
X111030109Y-152995213D01*
X110879786Y-152844890D01*
X110707820Y-152719951D01*
X110707115Y-152719591D01*
X110699054Y-152715485D01*
X110648259Y-152667512D01*
X110631463Y-152599692D01*
X110653999Y-152533556D01*
X110699054Y-152494515D01*
X110707816Y-152490051D01*
X110859576Y-152379792D01*
X110879786Y-152365109D01*
X110879788Y-152365106D01*
X110879792Y-152365104D01*
X111030104Y-152214792D01*
X111030106Y-152214788D01*
X111030109Y-152214786D01*
X111155048Y-152042820D01*
X111155047Y-152042820D01*
X111155051Y-152042816D01*
X111251557Y-151853412D01*
X111317246Y-151651243D01*
X111350500Y-151441287D01*
X111350500Y-151228713D01*
X111317246Y-151018757D01*
X111251557Y-150816588D01*
X111155051Y-150627184D01*
X111155049Y-150627181D01*
X111155048Y-150627179D01*
X111030109Y-150455213D01*
X110916181Y-150341285D01*
X110882696Y-150279962D01*
X110887680Y-150210270D01*
X110929552Y-150154337D01*
X110960529Y-150137422D01*
X111092086Y-150088354D01*
X111092093Y-150088350D01*
X111207187Y-150002190D01*
X111207190Y-150002187D01*
X111293350Y-149887093D01*
X111293354Y-149887086D01*
X111343596Y-149752379D01*
X111343598Y-149752372D01*
X111349999Y-149692844D01*
X111350000Y-149692827D01*
X111350000Y-149045000D01*
X110433012Y-149045000D01*
X110465925Y-148987993D01*
X110500000Y-148860826D01*
X110500000Y-148729174D01*
X110465925Y-148602007D01*
X110433012Y-148545000D01*
X111350000Y-148545000D01*
X111350000Y-147897172D01*
X111349999Y-147897155D01*
X111343598Y-147837627D01*
X111343596Y-147837620D01*
X111293354Y-147702913D01*
X111293350Y-147702906D01*
X111207190Y-147587812D01*
X111207187Y-147587809D01*
X111092093Y-147501649D01*
X111092086Y-147501645D01*
X110957379Y-147451403D01*
X110957372Y-147451401D01*
X110897844Y-147445000D01*
X110250000Y-147445000D01*
X110250000Y-148361988D01*
X110192993Y-148329075D01*
X110065826Y-148295000D01*
X109934174Y-148295000D01*
X109807007Y-148329075D01*
X109750000Y-148361988D01*
X109750000Y-147445000D01*
X109102155Y-147445000D01*
X109042627Y-147451401D01*
X109042620Y-147451403D01*
X108907913Y-147501645D01*
X108907906Y-147501649D01*
X108792812Y-147587809D01*
X108792809Y-147587812D01*
X108706649Y-147702906D01*
X108706645Y-147702913D01*
X108656403Y-147837620D01*
X108656401Y-147837627D01*
X108650000Y-147897155D01*
X108650000Y-148545000D01*
X109566988Y-148545000D01*
X109534075Y-148602007D01*
X109500000Y-148729174D01*
X109500000Y-148860826D01*
X109534075Y-148987993D01*
X109566988Y-149045000D01*
X108650000Y-149045000D01*
X108650000Y-149692844D01*
X108656401Y-149752372D01*
X108656403Y-149752379D01*
X108706645Y-149887086D01*
X108706649Y-149887093D01*
X108792809Y-150002187D01*
X108792812Y-150002190D01*
X108907906Y-150088350D01*
X108907913Y-150088354D01*
X109039470Y-150137422D01*
X109095404Y-150179293D01*
X109119821Y-150244758D01*
X109104969Y-150313031D01*
X109083819Y-150341285D01*
X108969889Y-150455215D01*
X108844951Y-150627179D01*
X108748444Y-150816585D01*
X108682753Y-151018760D01*
X108649500Y-151228713D01*
X66639336Y-151228713D01*
X66541614Y-151157715D01*
X66535006Y-151154348D01*
X66448917Y-151110483D01*
X66398123Y-151062511D01*
X66381328Y-150994690D01*
X66403865Y-150928555D01*
X66448917Y-150889516D01*
X66541610Y-150842287D01*
X66576986Y-150816585D01*
X66707213Y-150721971D01*
X66707215Y-150721968D01*
X66707219Y-150721966D01*
X66851966Y-150577219D01*
X66851968Y-150577215D01*
X66851971Y-150577213D01*
X66904732Y-150504590D01*
X66972287Y-150411610D01*
X67065220Y-150229219D01*
X67128477Y-150034534D01*
X67160500Y-149832352D01*
X67160500Y-149627648D01*
X67128477Y-149425466D01*
X67128476Y-149425462D01*
X67128476Y-149425461D01*
X67109979Y-149368533D01*
X67065218Y-149230776D01*
X66999606Y-149102007D01*
X66972287Y-149048390D01*
X66851966Y-148882781D01*
X66836464Y-148867279D01*
X72022204Y-148867279D01*
X72022205Y-148867280D01*
X73180634Y-148867280D01*
X73176240Y-148871674D01*
X73123579Y-148962886D01*
X73096320Y-149064619D01*
X73096320Y-149169941D01*
X73123579Y-149271674D01*
X73176240Y-149362886D01*
X73180634Y-149367280D01*
X72022205Y-149367280D01*
X72023405Y-149374864D01*
X72076911Y-149539535D01*
X72155515Y-149693804D01*
X72257287Y-149833882D01*
X72379717Y-149956312D01*
X72519795Y-150058084D01*
X72674062Y-150136688D01*
X72838735Y-150190194D01*
X73009749Y-150217280D01*
X73246320Y-150217280D01*
X73246320Y-149432966D01*
X73250714Y-149437360D01*
X73341926Y-149490021D01*
X73443659Y-149517280D01*
X73548981Y-149517280D01*
X73650714Y-149490021D01*
X73741926Y-149437360D01*
X73746320Y-149432966D01*
X73746320Y-150217280D01*
X73982891Y-150217280D01*
X74153904Y-150190194D01*
X74318577Y-150136688D01*
X74472844Y-150058084D01*
X74612922Y-149956312D01*
X74735352Y-149833882D01*
X74837124Y-149693804D01*
X74915728Y-149539535D01*
X74969234Y-149374864D01*
X74969234Y-149374863D01*
X74970435Y-149367280D01*
X73812006Y-149367280D01*
X73816400Y-149362886D01*
X73869061Y-149271674D01*
X73896320Y-149169941D01*
X73896320Y-149064619D01*
X73869061Y-148962886D01*
X73816400Y-148871674D01*
X73814725Y-148869999D01*
X94885884Y-148869999D01*
X94885885Y-148870000D01*
X96044314Y-148870000D01*
X96039920Y-148874394D01*
X95987259Y-148965606D01*
X95960000Y-149067339D01*
X95960000Y-149172661D01*
X95987259Y-149274394D01*
X96039920Y-149365606D01*
X96044314Y-149370000D01*
X94885885Y-149370000D01*
X94887085Y-149377584D01*
X94940591Y-149542255D01*
X95019195Y-149696524D01*
X95120967Y-149836602D01*
X95243397Y-149959032D01*
X95383475Y-150060804D01*
X95537742Y-150139408D01*
X95702415Y-150192914D01*
X95873429Y-150220000D01*
X96110000Y-150220000D01*
X96110000Y-149435686D01*
X96114394Y-149440080D01*
X96205606Y-149492741D01*
X96307339Y-149520000D01*
X96412661Y-149520000D01*
X96514394Y-149492741D01*
X96605606Y-149440080D01*
X96610000Y-149435686D01*
X96610000Y-150220000D01*
X96846571Y-150220000D01*
X97017584Y-150192914D01*
X97182257Y-150139408D01*
X97336524Y-150060804D01*
X97476602Y-149959032D01*
X97599032Y-149836602D01*
X97700804Y-149696524D01*
X97779408Y-149542255D01*
X97832914Y-149377584D01*
X97834115Y-149370000D01*
X96675686Y-149370000D01*
X96680080Y-149365606D01*
X96732741Y-149274394D01*
X96760000Y-149172661D01*
X96760000Y-149067339D01*
X96732741Y-148965606D01*
X96680080Y-148874394D01*
X96675686Y-148870000D01*
X97834115Y-148870000D01*
X97834115Y-148869999D01*
X97832914Y-148862415D01*
X97779408Y-148697744D01*
X97700804Y-148543475D01*
X97599032Y-148403397D01*
X97476602Y-148280967D01*
X97336524Y-148179195D01*
X97182257Y-148100591D01*
X97017584Y-148047085D01*
X96846571Y-148020000D01*
X96610000Y-148020000D01*
X96610000Y-148804314D01*
X96605606Y-148799920D01*
X96514394Y-148747259D01*
X96412661Y-148720000D01*
X96307339Y-148720000D01*
X96205606Y-148747259D01*
X96114394Y-148799920D01*
X96110000Y-148804314D01*
X96110000Y-148020000D01*
X95873429Y-148020000D01*
X95702415Y-148047085D01*
X95537742Y-148100591D01*
X95383475Y-148179195D01*
X95243397Y-148280967D01*
X95120967Y-148403397D01*
X95019195Y-148543475D01*
X94940591Y-148697744D01*
X94887085Y-148862415D01*
X94885884Y-148869999D01*
X73814725Y-148869999D01*
X73812006Y-148867280D01*
X74970435Y-148867280D01*
X74970435Y-148867279D01*
X74969234Y-148859695D01*
X74915728Y-148695024D01*
X74837124Y-148540755D01*
X74735352Y-148400677D01*
X74612922Y-148278247D01*
X74472844Y-148176475D01*
X74318577Y-148097871D01*
X74153904Y-148044365D01*
X73982891Y-148017280D01*
X73746320Y-148017280D01*
X73746320Y-148801594D01*
X73741926Y-148797200D01*
X73650714Y-148744539D01*
X73548981Y-148717280D01*
X73443659Y-148717280D01*
X73341926Y-148744539D01*
X73250714Y-148797200D01*
X73246320Y-148801594D01*
X73246320Y-148017280D01*
X73009749Y-148017280D01*
X72838735Y-148044365D01*
X72674062Y-148097871D01*
X72519795Y-148176475D01*
X72379717Y-148278247D01*
X72257287Y-148400677D01*
X72155515Y-148540755D01*
X72076911Y-148695024D01*
X72023405Y-148859695D01*
X72022204Y-148867279D01*
X66836464Y-148867279D01*
X66707219Y-148738034D01*
X66707213Y-148738028D01*
X66541614Y-148617715D01*
X66510785Y-148602007D01*
X66448917Y-148570483D01*
X66398123Y-148522511D01*
X66381328Y-148454690D01*
X66403865Y-148388555D01*
X66448917Y-148349516D01*
X66541610Y-148302287D01*
X66570955Y-148280967D01*
X66707213Y-148181971D01*
X66707215Y-148181968D01*
X66707219Y-148181966D01*
X66851966Y-148037219D01*
X66851968Y-148037215D01*
X66851971Y-148037213D01*
X66953715Y-147897172D01*
X66972287Y-147871610D01*
X67065220Y-147689219D01*
X67128477Y-147494534D01*
X67160500Y-147292352D01*
X67160500Y-147087648D01*
X67146975Y-147002255D01*
X67128477Y-146885465D01*
X67065218Y-146690776D01*
X66989459Y-146542092D01*
X66981942Y-146527339D01*
X66972287Y-146508390D01*
X66959412Y-146490669D01*
X71995820Y-146490669D01*
X71995820Y-146663891D01*
X72022918Y-146834981D01*
X72076447Y-146999725D01*
X72155088Y-147154068D01*
X72256906Y-147294208D01*
X72379392Y-147416694D01*
X72519532Y-147518512D01*
X72673875Y-147597153D01*
X72838619Y-147650682D01*
X73009709Y-147677780D01*
X73009710Y-147677780D01*
X73982930Y-147677780D01*
X73982931Y-147677780D01*
X74154021Y-147650682D01*
X74318765Y-147597153D01*
X74473108Y-147518512D01*
X74613248Y-147416694D01*
X74735734Y-147294208D01*
X74837552Y-147154068D01*
X74916193Y-146999725D01*
X74969722Y-146834981D01*
X74996820Y-146663891D01*
X74996820Y-146490669D01*
X74971372Y-146329999D01*
X94885884Y-146329999D01*
X94885885Y-146330000D01*
X96044314Y-146330000D01*
X96039920Y-146334394D01*
X95987259Y-146425606D01*
X95960000Y-146527339D01*
X95960000Y-146632661D01*
X95987259Y-146734394D01*
X96039920Y-146825606D01*
X96044314Y-146830000D01*
X94885885Y-146830000D01*
X94887085Y-146837584D01*
X94940591Y-147002255D01*
X95019195Y-147156524D01*
X95120967Y-147296602D01*
X95243397Y-147419032D01*
X95383475Y-147520804D01*
X95537742Y-147599408D01*
X95702415Y-147652914D01*
X95873429Y-147680000D01*
X96110000Y-147680000D01*
X96110000Y-146895686D01*
X96114394Y-146900080D01*
X96205606Y-146952741D01*
X96307339Y-146980000D01*
X96412661Y-146980000D01*
X96514394Y-146952741D01*
X96605606Y-146900080D01*
X96610000Y-146895686D01*
X96610000Y-147680000D01*
X96846571Y-147680000D01*
X97017584Y-147652914D01*
X97182257Y-147599408D01*
X97336524Y-147520804D01*
X97476602Y-147419032D01*
X97599032Y-147296602D01*
X97700804Y-147156524D01*
X97779408Y-147002255D01*
X97832914Y-146837584D01*
X97834115Y-146830000D01*
X96675686Y-146830000D01*
X96680080Y-146825606D01*
X96732741Y-146734394D01*
X96760000Y-146632661D01*
X96760000Y-146527339D01*
X96732741Y-146425606D01*
X96680080Y-146334394D01*
X96675686Y-146330000D01*
X97834115Y-146330000D01*
X97834115Y-146329999D01*
X97832914Y-146322415D01*
X97779408Y-146157744D01*
X97700804Y-146003475D01*
X97599032Y-145863397D01*
X97476602Y-145740967D01*
X97336524Y-145639195D01*
X97182257Y-145560591D01*
X97017584Y-145507085D01*
X96846571Y-145480000D01*
X96610000Y-145480000D01*
X96610000Y-146264314D01*
X96605606Y-146259920D01*
X96514394Y-146207259D01*
X96412661Y-146180000D01*
X96307339Y-146180000D01*
X96205606Y-146207259D01*
X96114394Y-146259920D01*
X96110000Y-146264314D01*
X96110000Y-145480000D01*
X95873429Y-145480000D01*
X95702415Y-145507085D01*
X95537742Y-145560591D01*
X95383475Y-145639195D01*
X95243397Y-145740967D01*
X95120967Y-145863397D01*
X95019195Y-146003475D01*
X94940591Y-146157744D01*
X94887085Y-146322415D01*
X94885884Y-146329999D01*
X74971372Y-146329999D01*
X74969722Y-146319579D01*
X74916193Y-146154835D01*
X74837552Y-146000492D01*
X74735734Y-145860352D01*
X74613248Y-145737866D01*
X74473108Y-145636048D01*
X74318765Y-145557407D01*
X74154021Y-145503878D01*
X74154019Y-145503877D01*
X74154018Y-145503877D01*
X74003261Y-145480000D01*
X73982931Y-145476780D01*
X73009709Y-145476780D01*
X72989379Y-145480000D01*
X72838622Y-145503877D01*
X72673872Y-145557408D01*
X72519531Y-145636048D01*
X72439576Y-145694139D01*
X72379392Y-145737866D01*
X72379390Y-145737868D01*
X72379389Y-145737868D01*
X72256908Y-145860349D01*
X72256908Y-145860350D01*
X72256906Y-145860352D01*
X72254694Y-145863397D01*
X72155088Y-146000491D01*
X72076448Y-146154832D01*
X72022917Y-146319582D01*
X72006125Y-146425606D01*
X71995820Y-146490669D01*
X66959412Y-146490669D01*
X66851971Y-146342786D01*
X66707213Y-146198028D01*
X66541614Y-146077715D01*
X66535006Y-146074348D01*
X66448917Y-146030483D01*
X66398123Y-145982511D01*
X66381328Y-145914690D01*
X66403865Y-145848555D01*
X66448917Y-145809516D01*
X66541610Y-145762287D01*
X66575223Y-145737866D01*
X66707213Y-145641971D01*
X66707215Y-145641968D01*
X66707219Y-145641966D01*
X66851966Y-145497219D01*
X66851968Y-145497215D01*
X66851971Y-145497213D01*
X66904732Y-145424590D01*
X66972287Y-145331610D01*
X67065220Y-145149219D01*
X67128477Y-144954534D01*
X67160500Y-144752352D01*
X67160500Y-144547648D01*
X67147005Y-144462445D01*
X67128477Y-144345465D01*
X67065218Y-144150776D01*
X66989459Y-144002092D01*
X66972287Y-143968390D01*
X66959412Y-143950669D01*
X71995820Y-143950669D01*
X71995820Y-144123891D01*
X72022918Y-144294981D01*
X72076447Y-144459725D01*
X72155088Y-144614068D01*
X72256906Y-144754208D01*
X72379392Y-144876694D01*
X72519532Y-144978512D01*
X72673875Y-145057153D01*
X72838619Y-145110682D01*
X73009709Y-145137780D01*
X73009710Y-145137780D01*
X73982930Y-145137780D01*
X73982931Y-145137780D01*
X74154021Y-145110682D01*
X74318765Y-145057153D01*
X74473108Y-144978512D01*
X74613248Y-144876694D01*
X74735734Y-144754208D01*
X74837552Y-144614068D01*
X74916193Y-144459725D01*
X74969722Y-144294981D01*
X74996820Y-144123891D01*
X74996820Y-143953389D01*
X94859500Y-143953389D01*
X94859500Y-144126610D01*
X94886166Y-144294977D01*
X94886598Y-144297701D01*
X94940127Y-144462445D01*
X95018768Y-144616788D01*
X95120586Y-144756928D01*
X95243072Y-144879414D01*
X95383212Y-144981232D01*
X95537555Y-145059873D01*
X95702299Y-145113402D01*
X95873389Y-145140500D01*
X95873390Y-145140500D01*
X96846610Y-145140500D01*
X96846611Y-145140500D01*
X97017701Y-145113402D01*
X97182445Y-145059873D01*
X97336788Y-144981232D01*
X97476928Y-144879414D01*
X97599414Y-144756928D01*
X97701232Y-144616788D01*
X97779873Y-144462445D01*
X97833402Y-144297701D01*
X97860500Y-144126611D01*
X97860500Y-143953389D01*
X97833402Y-143782299D01*
X97779873Y-143617555D01*
X97701232Y-143463212D01*
X97599414Y-143323072D01*
X97476928Y-143200586D01*
X97336788Y-143098768D01*
X97182445Y-143020127D01*
X97017701Y-142966598D01*
X97017699Y-142966597D01*
X97017698Y-142966597D01*
X96886271Y-142945781D01*
X96846611Y-142939500D01*
X95873389Y-142939500D01*
X95833728Y-142945781D01*
X95702302Y-142966597D01*
X95537552Y-143020128D01*
X95383211Y-143098768D01*
X95378803Y-143101971D01*
X95243072Y-143200586D01*
X95243070Y-143200588D01*
X95243069Y-143200588D01*
X95120588Y-143323069D01*
X95120588Y-143323070D01*
X95120586Y-143323072D01*
X95101385Y-143349500D01*
X95018768Y-143463211D01*
X94940128Y-143617552D01*
X94886597Y-143782302D01*
X94859500Y-143953389D01*
X74996820Y-143953389D01*
X74996820Y-143950669D01*
X74969722Y-143779579D01*
X74916193Y-143614835D01*
X74837552Y-143460492D01*
X74735734Y-143320352D01*
X74613248Y-143197866D01*
X74473108Y-143096048D01*
X74318765Y-143017407D01*
X74154021Y-142963878D01*
X74154019Y-142963877D01*
X74154018Y-142963877D01*
X74000104Y-142939500D01*
X73982931Y-142936780D01*
X73009709Y-142936780D01*
X72992536Y-142939500D01*
X72838622Y-142963877D01*
X72673872Y-143017408D01*
X72519531Y-143096048D01*
X72442403Y-143152086D01*
X72379392Y-143197866D01*
X72379390Y-143197868D01*
X72379389Y-143197868D01*
X72256908Y-143320349D01*
X72256908Y-143320350D01*
X72256906Y-143320352D01*
X72232929Y-143353354D01*
X72155088Y-143460491D01*
X72076448Y-143614832D01*
X72022917Y-143779582D01*
X72019243Y-143802781D01*
X71995820Y-143950669D01*
X66959412Y-143950669D01*
X66851971Y-143802786D01*
X66707213Y-143658028D01*
X66541614Y-143537715D01*
X66479929Y-143506285D01*
X66448917Y-143490483D01*
X66398123Y-143442511D01*
X66381328Y-143374690D01*
X66403865Y-143308555D01*
X66448917Y-143269516D01*
X66541610Y-143222287D01*
X66638225Y-143152093D01*
X66707213Y-143101971D01*
X66707215Y-143101968D01*
X66707219Y-143101966D01*
X66851966Y-142957219D01*
X66851968Y-142957215D01*
X66851971Y-142957213D01*
X66904732Y-142884590D01*
X66972287Y-142791610D01*
X67065220Y-142609219D01*
X67128477Y-142414534D01*
X67160500Y-142212352D01*
X67160500Y-142007648D01*
X67147005Y-141922445D01*
X67128477Y-141805465D01*
X67065218Y-141610776D01*
X66990845Y-141464812D01*
X66990186Y-141463519D01*
X66972287Y-141428390D01*
X66961388Y-141413389D01*
X71999500Y-141413389D01*
X71999500Y-141586611D01*
X72026598Y-141757701D01*
X72080127Y-141922445D01*
X72158768Y-142076788D01*
X72260586Y-142216928D01*
X72383072Y-142339414D01*
X72523212Y-142441232D01*
X72677555Y-142519873D01*
X72842299Y-142573402D01*
X73013389Y-142600500D01*
X73013390Y-142600500D01*
X73986610Y-142600500D01*
X73986611Y-142600500D01*
X74157701Y-142573402D01*
X74322445Y-142519873D01*
X74476788Y-142441232D01*
X74616928Y-142339414D01*
X74739414Y-142216928D01*
X74841232Y-142076788D01*
X74919873Y-141922445D01*
X74973402Y-141757701D01*
X75000500Y-141586611D01*
X75000500Y-141413389D01*
X94859500Y-141413389D01*
X94859500Y-141586611D01*
X94886598Y-141757701D01*
X94940127Y-141922445D01*
X95018768Y-142076788D01*
X95120586Y-142216928D01*
X95243072Y-142339414D01*
X95383212Y-142441232D01*
X95537555Y-142519873D01*
X95702299Y-142573402D01*
X95873389Y-142600500D01*
X95873390Y-142600500D01*
X96846610Y-142600500D01*
X96846611Y-142600500D01*
X97017701Y-142573402D01*
X97182445Y-142519873D01*
X97336788Y-142441232D01*
X97476928Y-142339414D01*
X97599414Y-142216928D01*
X97701232Y-142076788D01*
X97779873Y-141922445D01*
X97833402Y-141757701D01*
X97860500Y-141586611D01*
X97860500Y-141413389D01*
X97833402Y-141242299D01*
X97779873Y-141077555D01*
X97701232Y-140923212D01*
X97599414Y-140783072D01*
X97476928Y-140660586D01*
X97336788Y-140558768D01*
X97182445Y-140480127D01*
X97017701Y-140426598D01*
X97017699Y-140426597D01*
X97017698Y-140426597D01*
X96886271Y-140405781D01*
X96846611Y-140399500D01*
X95873389Y-140399500D01*
X95833728Y-140405781D01*
X95702302Y-140426597D01*
X95537552Y-140480128D01*
X95383211Y-140558768D01*
X95303256Y-140616859D01*
X95243072Y-140660586D01*
X95243070Y-140660588D01*
X95243069Y-140660588D01*
X95120588Y-140783069D01*
X95120588Y-140783070D01*
X95120586Y-140783072D01*
X95108397Y-140799849D01*
X95018768Y-140923211D01*
X94940128Y-141077552D01*
X94886597Y-141242302D01*
X94883453Y-141262155D01*
X94859500Y-141413389D01*
X75000500Y-141413389D01*
X74973402Y-141242299D01*
X74919873Y-141077555D01*
X74841232Y-140923212D01*
X74739414Y-140783072D01*
X74616928Y-140660586D01*
X74476788Y-140558768D01*
X74322445Y-140480127D01*
X74157701Y-140426598D01*
X74157699Y-140426597D01*
X74157698Y-140426597D01*
X74026271Y-140405781D01*
X73986611Y-140399500D01*
X73013389Y-140399500D01*
X72973728Y-140405781D01*
X72842302Y-140426597D01*
X72677552Y-140480128D01*
X72523211Y-140558768D01*
X72443256Y-140616859D01*
X72383072Y-140660586D01*
X72383070Y-140660588D01*
X72383069Y-140660588D01*
X72260588Y-140783069D01*
X72260588Y-140783070D01*
X72260586Y-140783072D01*
X72248397Y-140799849D01*
X72158768Y-140923211D01*
X72080128Y-141077552D01*
X72026597Y-141242302D01*
X72023453Y-141262155D01*
X71999500Y-141413389D01*
X66961388Y-141413389D01*
X66851971Y-141262786D01*
X66707213Y-141118028D01*
X66541613Y-140997715D01*
X66541612Y-140997714D01*
X66541610Y-140997713D01*
X66453487Y-140952812D01*
X66359223Y-140904781D01*
X66164534Y-140841522D01*
X65989995Y-140813878D01*
X65962352Y-140809500D01*
X65757648Y-140809500D01*
X65733329Y-140813351D01*
X65555465Y-140841522D01*
X65360776Y-140904781D01*
X65178386Y-140997715D01*
X65012786Y-141118028D01*
X64868028Y-141262786D01*
X64747715Y-141428386D01*
X64654781Y-141610776D01*
X64591522Y-141805465D01*
X64559500Y-142007648D01*
X53546685Y-142007648D01*
X53532741Y-141955606D01*
X53480080Y-141864394D01*
X53475686Y-141860000D01*
X54460000Y-141860000D01*
X54460000Y-141262172D01*
X54459999Y-141262155D01*
X54453598Y-141202627D01*
X54453596Y-141202620D01*
X54403354Y-141067913D01*
X54403350Y-141067906D01*
X54317190Y-140952812D01*
X54317187Y-140952809D01*
X54202093Y-140866649D01*
X54202086Y-140866645D01*
X54067379Y-140816403D01*
X54067372Y-140816401D01*
X54007844Y-140810000D01*
X53410000Y-140810000D01*
X53410000Y-141794314D01*
X53405606Y-141789920D01*
X53314394Y-141737259D01*
X53212661Y-141710000D01*
X53107339Y-141710000D01*
X53005606Y-141737259D01*
X52914394Y-141789920D01*
X52910000Y-141794314D01*
X52910000Y-140810000D01*
X52312155Y-140810000D01*
X52252627Y-140816401D01*
X52252620Y-140816403D01*
X52117913Y-140866645D01*
X52117906Y-140866649D01*
X52002812Y-140952809D01*
X52002809Y-140952812D01*
X51916649Y-141067906D01*
X51916645Y-141067913D01*
X51866403Y-141202620D01*
X51866401Y-141202627D01*
X51860000Y-141262155D01*
X51860000Y-141860000D01*
X52844314Y-141860000D01*
X52839920Y-141864394D01*
X52787259Y-141955606D01*
X52760000Y-142057339D01*
X52760000Y-142162661D01*
X52787259Y-142264394D01*
X52839920Y-142355606D01*
X52844314Y-142360000D01*
X51860000Y-142360000D01*
X51860000Y-142957844D01*
X51866401Y-143017372D01*
X51866403Y-143017379D01*
X51916645Y-143152086D01*
X51916649Y-143152093D01*
X52002809Y-143267187D01*
X52002812Y-143267190D01*
X52117906Y-143353350D01*
X52117913Y-143353354D01*
X52252620Y-143403596D01*
X52290043Y-143407620D01*
X52354595Y-143434358D01*
X52394443Y-143491750D01*
X52396937Y-143561576D01*
X52361285Y-143621665D01*
X52349675Y-143631227D01*
X52312789Y-143658026D01*
X52312782Y-143658032D01*
X52168028Y-143802786D01*
X52047715Y-143968386D01*
X51954781Y-144150776D01*
X51891522Y-144345465D01*
X51859500Y-144547648D01*
X24000500Y-144547648D01*
X24000500Y-137328034D01*
X26999500Y-137328034D01*
X26999500Y-137671965D01*
X27033210Y-138014249D01*
X27100308Y-138351572D01*
X27200150Y-138680706D01*
X27331770Y-138998464D01*
X27331772Y-138998469D01*
X27493893Y-139301775D01*
X27493904Y-139301793D01*
X27684975Y-139587751D01*
X27684985Y-139587765D01*
X27903176Y-139853632D01*
X28146367Y-140096823D01*
X28146372Y-140096827D01*
X28146373Y-140096828D01*
X28412240Y-140315019D01*
X28698213Y-140506100D01*
X28698222Y-140506105D01*
X28698224Y-140506106D01*
X29001530Y-140668227D01*
X29001532Y-140668227D01*
X29001538Y-140668231D01*
X29319295Y-140799850D01*
X29648422Y-140899690D01*
X29985750Y-140966789D01*
X30328031Y-141000500D01*
X30328034Y-141000500D01*
X30671966Y-141000500D01*
X30671969Y-141000500D01*
X31014250Y-140966789D01*
X31351578Y-140899690D01*
X31680705Y-140799850D01*
X31998462Y-140668231D01*
X32301787Y-140506100D01*
X32587760Y-140315019D01*
X32853627Y-140096828D01*
X33096828Y-139853627D01*
X33315019Y-139587760D01*
X33506100Y-139301787D01*
X33668231Y-138998462D01*
X33799850Y-138680705D01*
X33899690Y-138351578D01*
X33966789Y-138014250D01*
X33996235Y-137715269D01*
X44199500Y-137715269D01*
X44199500Y-137919972D01*
X44231522Y-138122155D01*
X44294781Y-138316844D01*
X44387715Y-138499234D01*
X44508028Y-138664834D01*
X44652786Y-138809592D01*
X44807749Y-138922177D01*
X44818390Y-138929908D01*
X44934607Y-138989124D01*
X45000776Y-139022839D01*
X45000778Y-139022839D01*
X45000781Y-139022841D01*
X45073938Y-139046611D01*
X45195465Y-139086098D01*
X45296557Y-139102109D01*
X45397648Y-139118121D01*
X45397649Y-139118121D01*
X45602351Y-139118121D01*
X45602352Y-139118121D01*
X45804534Y-139086098D01*
X45999219Y-139022841D01*
X46181610Y-138929908D01*
X46259400Y-138873389D01*
X71999500Y-138873389D01*
X71999500Y-139046611D01*
X72026598Y-139217701D01*
X72080127Y-139382445D01*
X72158768Y-139536788D01*
X72260586Y-139676928D01*
X72383072Y-139799414D01*
X72523212Y-139901232D01*
X72677555Y-139979873D01*
X72842299Y-140033402D01*
X73013389Y-140060500D01*
X73013390Y-140060500D01*
X73986610Y-140060500D01*
X73986611Y-140060500D01*
X74157701Y-140033402D01*
X74322445Y-139979873D01*
X74476788Y-139901232D01*
X74616928Y-139799414D01*
X74739414Y-139676928D01*
X74841232Y-139536788D01*
X74919873Y-139382445D01*
X74973402Y-139217701D01*
X75000500Y-139046611D01*
X75000500Y-138873389D01*
X94859500Y-138873389D01*
X94859500Y-139046611D01*
X94886598Y-139217701D01*
X94940127Y-139382445D01*
X95018768Y-139536788D01*
X95120586Y-139676928D01*
X95243072Y-139799414D01*
X95383212Y-139901232D01*
X95537555Y-139979873D01*
X95702299Y-140033402D01*
X95873389Y-140060500D01*
X95873390Y-140060500D01*
X96846610Y-140060500D01*
X96846611Y-140060500D01*
X97017701Y-140033402D01*
X97182445Y-139979873D01*
X97336788Y-139901232D01*
X97476928Y-139799414D01*
X97599414Y-139676928D01*
X97701232Y-139536788D01*
X97779873Y-139382445D01*
X97833402Y-139217701D01*
X97860500Y-139046611D01*
X97860500Y-138873389D01*
X97833402Y-138702299D01*
X97779873Y-138537555D01*
X97701232Y-138383212D01*
X97599414Y-138243072D01*
X97476928Y-138120586D01*
X97336788Y-138018768D01*
X97182445Y-137940127D01*
X97017701Y-137886598D01*
X97017699Y-137886597D01*
X97017698Y-137886597D01*
X96886271Y-137865781D01*
X96846611Y-137859500D01*
X95873389Y-137859500D01*
X95833728Y-137865781D01*
X95702302Y-137886597D01*
X95537552Y-137940128D01*
X95383211Y-138018768D01*
X95303256Y-138076859D01*
X95243072Y-138120586D01*
X95243070Y-138120588D01*
X95243069Y-138120588D01*
X95120588Y-138243069D01*
X95120588Y-138243070D01*
X95120586Y-138243072D01*
X95076859Y-138303256D01*
X95018768Y-138383211D01*
X94940128Y-138537552D01*
X94886597Y-138702302D01*
X94874159Y-138780836D01*
X94859500Y-138873389D01*
X75000500Y-138873389D01*
X74973402Y-138702299D01*
X74919873Y-138537555D01*
X74841232Y-138383212D01*
X74739414Y-138243072D01*
X74616928Y-138120586D01*
X74476788Y-138018768D01*
X74322445Y-137940127D01*
X74157701Y-137886598D01*
X74157699Y-137886597D01*
X74157698Y-137886597D01*
X74026271Y-137865781D01*
X73986611Y-137859500D01*
X73013389Y-137859500D01*
X72973728Y-137865781D01*
X72842302Y-137886597D01*
X72677552Y-137940128D01*
X72523211Y-138018768D01*
X72443256Y-138076859D01*
X72383072Y-138120586D01*
X72383070Y-138120588D01*
X72383069Y-138120588D01*
X72260588Y-138243069D01*
X72260588Y-138243070D01*
X72260586Y-138243072D01*
X72216859Y-138303256D01*
X72158768Y-138383211D01*
X72080128Y-138537552D01*
X72026597Y-138702302D01*
X72014159Y-138780836D01*
X71999500Y-138873389D01*
X46259400Y-138873389D01*
X46274590Y-138862353D01*
X46347213Y-138809592D01*
X46347215Y-138809589D01*
X46347219Y-138809587D01*
X46491966Y-138664840D01*
X46491968Y-138664836D01*
X46491971Y-138664834D01*
X46584445Y-138537552D01*
X46612287Y-138499231D01*
X46705220Y-138316840D01*
X46768477Y-138122155D01*
X46800500Y-137919973D01*
X46800500Y-137715269D01*
X46768477Y-137513087D01*
X46705220Y-137318402D01*
X46705218Y-137318399D01*
X46705218Y-137318397D01*
X46671503Y-137252228D01*
X46612287Y-137136011D01*
X46604556Y-137125370D01*
X46491971Y-136970407D01*
X46347219Y-136825655D01*
X46290861Y-136784709D01*
X46248195Y-136729379D01*
X46242216Y-136659765D01*
X46274821Y-136597970D01*
X46324743Y-136566684D01*
X46369117Y-136551980D01*
X46369124Y-136551977D01*
X46518345Y-136459936D01*
X46642316Y-136335965D01*
X46642319Y-136335961D01*
X46643905Y-136333389D01*
X71999500Y-136333389D01*
X71999500Y-136506610D01*
X72021960Y-136648422D01*
X72026598Y-136677701D01*
X72080127Y-136842445D01*
X72158768Y-136996788D01*
X72260586Y-137136928D01*
X72383072Y-137259414D01*
X72523212Y-137361232D01*
X72677555Y-137439873D01*
X72842299Y-137493402D01*
X73013389Y-137520500D01*
X73013390Y-137520500D01*
X73986610Y-137520500D01*
X73986611Y-137520500D01*
X74157701Y-137493402D01*
X74322445Y-137439873D01*
X74476788Y-137361232D01*
X74616928Y-137259414D01*
X74739414Y-137136928D01*
X74841232Y-136996788D01*
X74919873Y-136842445D01*
X74973402Y-136677701D01*
X75000500Y-136506611D01*
X75000500Y-136333389D01*
X94859500Y-136333389D01*
X94859500Y-136506610D01*
X94881960Y-136648422D01*
X94886598Y-136677701D01*
X94940127Y-136842445D01*
X95018768Y-136996788D01*
X95120586Y-137136928D01*
X95243072Y-137259414D01*
X95383212Y-137361232D01*
X95537555Y-137439873D01*
X95702299Y-137493402D01*
X95873389Y-137520500D01*
X95873390Y-137520500D01*
X96846610Y-137520500D01*
X96846611Y-137520500D01*
X97017701Y-137493402D01*
X97182445Y-137439873D01*
X97336788Y-137361232D01*
X97476928Y-137259414D01*
X97599414Y-137136928D01*
X97701232Y-136996788D01*
X97779873Y-136842445D01*
X97833402Y-136677701D01*
X97860500Y-136506611D01*
X97860500Y-136333389D01*
X97833402Y-136162299D01*
X97779873Y-135997555D01*
X97701232Y-135843212D01*
X97599414Y-135703072D01*
X97476928Y-135580586D01*
X97336788Y-135478768D01*
X97182445Y-135400127D01*
X97017701Y-135346598D01*
X97017699Y-135346597D01*
X97017698Y-135346597D01*
X96886271Y-135325781D01*
X96846611Y-135319500D01*
X95873389Y-135319500D01*
X95833728Y-135325781D01*
X95702302Y-135346597D01*
X95537552Y-135400128D01*
X95383211Y-135478768D01*
X95303256Y-135536859D01*
X95243072Y-135580586D01*
X95243070Y-135580588D01*
X95243069Y-135580588D01*
X95120588Y-135703069D01*
X95120588Y-135703070D01*
X95120586Y-135703072D01*
X95076859Y-135763256D01*
X95018768Y-135843211D01*
X94940128Y-135997552D01*
X94886597Y-136162302D01*
X94859500Y-136333389D01*
X75000500Y-136333389D01*
X74973402Y-136162299D01*
X74919873Y-135997555D01*
X74841232Y-135843212D01*
X74739414Y-135703072D01*
X74616928Y-135580586D01*
X74476788Y-135478768D01*
X74322445Y-135400127D01*
X74157701Y-135346598D01*
X74157699Y-135346597D01*
X74157698Y-135346597D01*
X74026271Y-135325781D01*
X73986611Y-135319500D01*
X73013389Y-135319500D01*
X72973728Y-135325781D01*
X72842302Y-135346597D01*
X72677552Y-135400128D01*
X72523211Y-135478768D01*
X72443256Y-135536859D01*
X72383072Y-135580586D01*
X72383070Y-135580588D01*
X72383069Y-135580588D01*
X72260588Y-135703069D01*
X72260588Y-135703070D01*
X72260586Y-135703072D01*
X72216859Y-135763256D01*
X72158768Y-135843211D01*
X72080128Y-135997552D01*
X72026597Y-136162302D01*
X71999500Y-136333389D01*
X46643905Y-136333389D01*
X46687061Y-136263423D01*
X46687063Y-136263420D01*
X46734356Y-136186745D01*
X46734358Y-136186740D01*
X46789505Y-136020318D01*
X46789506Y-136020311D01*
X46799999Y-135917607D01*
X46800000Y-135917594D01*
X46800000Y-135567621D01*
X45815686Y-135567621D01*
X45820080Y-135563227D01*
X45872741Y-135472015D01*
X45900000Y-135370282D01*
X45900000Y-135264960D01*
X45872741Y-135163227D01*
X45820080Y-135072015D01*
X45815686Y-135067621D01*
X46799999Y-135067621D01*
X46799999Y-134717649D01*
X46799998Y-134717634D01*
X46789505Y-134614923D01*
X46734358Y-134448501D01*
X46734356Y-134448496D01*
X46642315Y-134299275D01*
X46518345Y-134175305D01*
X46369124Y-134083264D01*
X46369119Y-134083262D01*
X46202697Y-134028115D01*
X46202690Y-134028114D01*
X46099986Y-134017621D01*
X45750000Y-134017621D01*
X45750000Y-135001935D01*
X45745606Y-134997541D01*
X45654394Y-134944880D01*
X45552661Y-134917621D01*
X45447339Y-134917621D01*
X45345606Y-134944880D01*
X45254394Y-134997541D01*
X45250000Y-135001935D01*
X45250000Y-134017621D01*
X44900028Y-134017621D01*
X44900012Y-134017622D01*
X44797302Y-134028115D01*
X44630880Y-134083262D01*
X44630875Y-134083264D01*
X44481654Y-134175305D01*
X44357684Y-134299275D01*
X44265643Y-134448496D01*
X44265641Y-134448501D01*
X44210494Y-134614923D01*
X44210493Y-134614930D01*
X44200000Y-134717634D01*
X44200000Y-135067621D01*
X45184314Y-135067621D01*
X45179920Y-135072015D01*
X45127259Y-135163227D01*
X45100000Y-135264960D01*
X45100000Y-135370282D01*
X45127259Y-135472015D01*
X45179920Y-135563227D01*
X45184314Y-135567621D01*
X44200001Y-135567621D01*
X44200001Y-135917607D01*
X44210494Y-136020318D01*
X44265641Y-136186740D01*
X44265643Y-136186745D01*
X44357684Y-136335966D01*
X44481654Y-136459936D01*
X44630875Y-136551977D01*
X44630882Y-136551980D01*
X44675256Y-136566684D01*
X44732701Y-136606456D01*
X44759525Y-136670972D01*
X44747210Y-136739748D01*
X44709139Y-136784708D01*
X44652782Y-136825653D01*
X44508028Y-136970407D01*
X44387715Y-137136007D01*
X44294781Y-137318397D01*
X44231522Y-137513086D01*
X44199500Y-137715269D01*
X33996235Y-137715269D01*
X34000500Y-137671969D01*
X34000500Y-137328031D01*
X33966789Y-136985750D01*
X33899690Y-136648422D01*
X33799850Y-136319295D01*
X33668231Y-136001538D01*
X33666100Y-135997552D01*
X33506106Y-135698224D01*
X33506105Y-135698222D01*
X33506100Y-135698213D01*
X33315019Y-135412240D01*
X33096828Y-135146373D01*
X33096827Y-135146372D01*
X33096823Y-135146367D01*
X32853632Y-134903176D01*
X32813837Y-134870517D01*
X32587760Y-134684981D01*
X32301787Y-134493900D01*
X32301782Y-134493897D01*
X32301775Y-134493893D01*
X31998469Y-134331772D01*
X31998464Y-134331770D01*
X31680706Y-134200150D01*
X31351572Y-134100308D01*
X31014248Y-134033210D01*
X31014249Y-134033210D01*
X30756456Y-134007821D01*
X30671969Y-133999500D01*
X30328031Y-133999500D01*
X30249966Y-134007188D01*
X29985750Y-134033210D01*
X29648427Y-134100308D01*
X29319293Y-134200150D01*
X29001535Y-134331770D01*
X29001530Y-134331772D01*
X28698224Y-134493893D01*
X28698206Y-134493904D01*
X28412248Y-134684975D01*
X28412234Y-134684985D01*
X28146367Y-134903176D01*
X27903176Y-135146367D01*
X27684985Y-135412234D01*
X27684975Y-135412248D01*
X27493904Y-135698206D01*
X27493893Y-135698224D01*
X27331772Y-136001530D01*
X27331770Y-136001535D01*
X27200150Y-136319293D01*
X27100308Y-136648427D01*
X27033210Y-136985750D01*
X27018321Y-137136929D01*
X27000449Y-137318402D01*
X26999500Y-137328034D01*
X24000500Y-137328034D01*
X24000500Y-119482135D01*
X41149500Y-119482135D01*
X41149500Y-121277870D01*
X41149501Y-121277876D01*
X41155908Y-121337483D01*
X41206202Y-121472328D01*
X41206206Y-121472335D01*
X41292452Y-121587544D01*
X41292455Y-121587547D01*
X41407664Y-121673793D01*
X41407671Y-121673797D01*
X41539082Y-121722810D01*
X41595016Y-121764681D01*
X41619433Y-121830145D01*
X41604582Y-121898418D01*
X41583431Y-121926673D01*
X41469889Y-122040215D01*
X41344951Y-122212179D01*
X41248444Y-122401585D01*
X41182753Y-122603760D01*
X41167490Y-122700127D01*
X41149500Y-122813713D01*
X41149500Y-123026287D01*
X41182754Y-123236243D01*
X41244236Y-123425465D01*
X41248444Y-123438414D01*
X41344951Y-123627820D01*
X41469890Y-123799786D01*
X41620213Y-123950109D01*
X41792182Y-124075050D01*
X41800946Y-124079516D01*
X41851742Y-124127491D01*
X41868536Y-124195312D01*
X41845998Y-124261447D01*
X41800946Y-124300484D01*
X41792182Y-124304949D01*
X41620213Y-124429890D01*
X41469890Y-124580213D01*
X41344951Y-124752179D01*
X41248444Y-124941585D01*
X41182753Y-125143760D01*
X41167490Y-125240127D01*
X41149500Y-125353713D01*
X41149500Y-125566287D01*
X41182754Y-125776243D01*
X41244236Y-125965465D01*
X41248444Y-125978414D01*
X41344951Y-126167820D01*
X41469890Y-126339786D01*
X41620213Y-126490109D01*
X41792182Y-126615050D01*
X41800946Y-126619516D01*
X41851742Y-126667491D01*
X41868536Y-126735312D01*
X41845998Y-126801447D01*
X41800946Y-126840484D01*
X41792182Y-126844949D01*
X41620213Y-126969890D01*
X41469890Y-127120213D01*
X41344951Y-127292179D01*
X41248444Y-127481585D01*
X41182753Y-127683760D01*
X41149500Y-127893713D01*
X41149500Y-128106286D01*
X41172792Y-128253350D01*
X41182754Y-128316243D01*
X41244236Y-128505465D01*
X41248444Y-128518414D01*
X41344951Y-128707820D01*
X41469890Y-128879786D01*
X41620213Y-129030109D01*
X41792179Y-129155048D01*
X41792181Y-129155049D01*
X41792184Y-129155051D01*
X41981588Y-129251557D01*
X42183757Y-129317246D01*
X42393713Y-129350500D01*
X42393714Y-129350500D01*
X42606286Y-129350500D01*
X42606287Y-129350500D01*
X42816243Y-129317246D01*
X43018412Y-129251557D01*
X43207816Y-129155051D01*
X43341808Y-129057701D01*
X43379786Y-129030109D01*
X43379788Y-129030106D01*
X43379792Y-129030104D01*
X43530104Y-128879792D01*
X43530106Y-128879788D01*
X43530109Y-128879786D01*
X43655048Y-128707820D01*
X43655047Y-128707820D01*
X43655051Y-128707816D01*
X43751557Y-128518412D01*
X43817246Y-128316243D01*
X43850500Y-128106287D01*
X43850500Y-127893713D01*
X43817246Y-127683757D01*
X43751557Y-127481588D01*
X43655051Y-127292184D01*
X43655049Y-127292181D01*
X43655048Y-127292179D01*
X43530109Y-127120213D01*
X43379786Y-126969890D01*
X43207820Y-126844951D01*
X43207115Y-126844591D01*
X43199054Y-126840485D01*
X43148259Y-126792512D01*
X43131463Y-126724692D01*
X43153999Y-126658556D01*
X43199054Y-126619515D01*
X43207816Y-126615051D01*
X43341808Y-126517701D01*
X43379786Y-126490109D01*
X43379788Y-126490106D01*
X43379792Y-126490104D01*
X43530104Y-126339792D01*
X43530106Y-126339788D01*
X43530109Y-126339786D01*
X43655048Y-126167820D01*
X43655047Y-126167820D01*
X43655051Y-126167816D01*
X43751557Y-125978412D01*
X43817246Y-125776243D01*
X43850500Y-125566287D01*
X43850500Y-125353713D01*
X43817246Y-125143757D01*
X43751557Y-124941588D01*
X43655051Y-124752184D01*
X43655049Y-124752181D01*
X43655048Y-124752179D01*
X43530109Y-124580213D01*
X43379786Y-124429890D01*
X43207820Y-124304951D01*
X43207115Y-124304591D01*
X43199054Y-124300485D01*
X43148259Y-124252512D01*
X43131463Y-124184692D01*
X43153999Y-124118556D01*
X43199054Y-124079515D01*
X43207816Y-124075051D01*
X43341808Y-123977701D01*
X43379786Y-123950109D01*
X43379788Y-123950106D01*
X43379792Y-123950104D01*
X43530104Y-123799792D01*
X43530106Y-123799788D01*
X43530109Y-123799786D01*
X43655048Y-123627820D01*
X43655047Y-123627820D01*
X43655051Y-123627816D01*
X43751557Y-123438412D01*
X43817246Y-123236243D01*
X43850500Y-123026287D01*
X43850500Y-122813713D01*
X43817246Y-122603757D01*
X43751557Y-122401588D01*
X43655051Y-122212184D01*
X43655049Y-122212181D01*
X43655048Y-122212179D01*
X43530109Y-122040213D01*
X43416569Y-121926673D01*
X43383084Y-121865350D01*
X43388068Y-121795658D01*
X43429940Y-121739725D01*
X43460915Y-121722810D01*
X43592331Y-121673796D01*
X43707546Y-121587546D01*
X43793796Y-121472331D01*
X43844091Y-121337483D01*
X43850500Y-121277873D01*
X43850499Y-119482128D01*
X43844091Y-119422517D01*
X43819628Y-119356929D01*
X43793797Y-119287671D01*
X43793793Y-119287664D01*
X43707547Y-119172455D01*
X43707544Y-119172452D01*
X43592335Y-119086206D01*
X43592328Y-119086202D01*
X43457482Y-119035908D01*
X43457483Y-119035908D01*
X43397883Y-119029501D01*
X43397881Y-119029500D01*
X43397873Y-119029500D01*
X43397864Y-119029500D01*
X41602129Y-119029500D01*
X41602123Y-119029501D01*
X41542516Y-119035908D01*
X41407671Y-119086202D01*
X41407664Y-119086206D01*
X41292455Y-119172452D01*
X41292452Y-119172455D01*
X41206206Y-119287664D01*
X41206202Y-119287671D01*
X41155908Y-119422517D01*
X41149501Y-119482116D01*
X41149501Y-119482123D01*
X41149500Y-119482135D01*
X24000500Y-119482135D01*
X24000500Y-118547648D01*
X51859500Y-118547648D01*
X51859500Y-118752351D01*
X51891522Y-118954534D01*
X51954781Y-119149223D01*
X52047715Y-119331613D01*
X52168028Y-119497213D01*
X52312786Y-119641971D01*
X52467749Y-119754556D01*
X52478390Y-119762287D01*
X52569840Y-119808883D01*
X52571080Y-119809515D01*
X52621876Y-119857490D01*
X52638671Y-119925311D01*
X52616134Y-119991446D01*
X52571080Y-120030485D01*
X52478386Y-120077715D01*
X52312786Y-120198028D01*
X52168028Y-120342786D01*
X52047715Y-120508386D01*
X51954781Y-120690776D01*
X51891522Y-120885465D01*
X51859500Y-121087648D01*
X51859500Y-121292351D01*
X51891522Y-121494534D01*
X51954781Y-121689223D01*
X51993366Y-121764949D01*
X52044523Y-121865350D01*
X52047715Y-121871613D01*
X52168028Y-122037213D01*
X52312786Y-122181971D01*
X52467749Y-122294556D01*
X52478390Y-122302287D01*
X52569840Y-122348883D01*
X52571080Y-122349515D01*
X52621876Y-122397490D01*
X52638671Y-122465311D01*
X52616134Y-122531446D01*
X52571080Y-122570485D01*
X52478386Y-122617715D01*
X52312786Y-122738028D01*
X52168028Y-122882786D01*
X52047715Y-123048386D01*
X51954781Y-123230776D01*
X51891522Y-123425465D01*
X51859500Y-123627648D01*
X51859500Y-123832351D01*
X51891522Y-124034534D01*
X51954781Y-124229223D01*
X52047715Y-124411613D01*
X52168028Y-124577213D01*
X52312786Y-124721971D01*
X52467749Y-124834556D01*
X52478390Y-124842287D01*
X52569840Y-124888883D01*
X52571080Y-124889515D01*
X52621876Y-124937490D01*
X52638671Y-125005311D01*
X52616134Y-125071446D01*
X52571080Y-125110485D01*
X52478386Y-125157715D01*
X52312786Y-125278028D01*
X52168028Y-125422786D01*
X52047715Y-125588386D01*
X51954781Y-125770776D01*
X51891522Y-125965465D01*
X51859500Y-126167648D01*
X51859500Y-126372351D01*
X51891522Y-126574534D01*
X51954781Y-126769223D01*
X52047715Y-126951613D01*
X52168028Y-127117213D01*
X52312786Y-127261971D01*
X52467749Y-127374556D01*
X52478390Y-127382287D01*
X52564034Y-127425925D01*
X52571080Y-127429515D01*
X52621876Y-127477490D01*
X52638671Y-127545311D01*
X52616134Y-127611446D01*
X52571080Y-127650485D01*
X52478386Y-127697715D01*
X52312786Y-127818028D01*
X52168028Y-127962786D01*
X52047715Y-128128386D01*
X51954781Y-128310776D01*
X51891522Y-128505465D01*
X51859500Y-128707648D01*
X51859500Y-128912351D01*
X51891522Y-129114534D01*
X51954781Y-129309223D01*
X52047715Y-129491613D01*
X52168028Y-129657213D01*
X52312786Y-129801971D01*
X52467749Y-129914556D01*
X52478390Y-129922287D01*
X52550424Y-129958990D01*
X52571629Y-129969795D01*
X52622425Y-130017770D01*
X52639220Y-130085591D01*
X52616682Y-130151726D01*
X52571629Y-130190765D01*
X52478650Y-130238140D01*
X52313105Y-130358417D01*
X52313104Y-130358417D01*
X52168417Y-130503104D01*
X52168417Y-130503105D01*
X52048140Y-130668650D01*
X51955244Y-130850970D01*
X51892009Y-131045586D01*
X51883391Y-131100000D01*
X52844314Y-131100000D01*
X52839920Y-131104394D01*
X52787259Y-131195606D01*
X52760000Y-131297339D01*
X52760000Y-131402661D01*
X52787259Y-131504394D01*
X52839920Y-131595606D01*
X52844314Y-131600000D01*
X51883391Y-131600000D01*
X51892009Y-131654413D01*
X51955244Y-131849029D01*
X52048140Y-132031349D01*
X52168417Y-132196894D01*
X52168417Y-132196895D01*
X52313104Y-132341582D01*
X52478652Y-132461861D01*
X52571628Y-132509234D01*
X52622425Y-132557208D01*
X52639220Y-132625029D01*
X52616683Y-132691164D01*
X52571630Y-132730203D01*
X52478388Y-132777713D01*
X52312786Y-132898028D01*
X52168028Y-133042786D01*
X52047715Y-133208386D01*
X51954781Y-133390776D01*
X51891522Y-133585465D01*
X51859500Y-133787648D01*
X51859500Y-133992351D01*
X51891522Y-134194534D01*
X51954781Y-134389223D01*
X52047715Y-134571613D01*
X52168028Y-134737213D01*
X52312786Y-134881971D01*
X52467749Y-134994556D01*
X52478390Y-135002287D01*
X52594607Y-135061503D01*
X52660776Y-135095218D01*
X52660778Y-135095218D01*
X52660781Y-135095220D01*
X52765137Y-135129127D01*
X52855465Y-135158477D01*
X52956557Y-135174488D01*
X53057648Y-135190500D01*
X53057649Y-135190500D01*
X53262351Y-135190500D01*
X53262352Y-135190500D01*
X53464534Y-135158477D01*
X53659219Y-135095220D01*
X53841610Y-135002287D01*
X53978026Y-134903176D01*
X54007213Y-134881971D01*
X54007215Y-134881968D01*
X54007219Y-134881966D01*
X54151966Y-134737219D01*
X54151968Y-134737215D01*
X54151971Y-134737213D01*
X54240813Y-134614930D01*
X54272287Y-134571610D01*
X54365220Y-134389219D01*
X54428477Y-134194534D01*
X54460500Y-133992352D01*
X54460500Y-133787648D01*
X54428477Y-133585466D01*
X54365220Y-133390781D01*
X54365218Y-133390778D01*
X54365218Y-133390776D01*
X54320601Y-133303211D01*
X54272287Y-133208390D01*
X54239362Y-133163072D01*
X54151971Y-133042786D01*
X54007213Y-132898028D01*
X53841611Y-132777713D01*
X53748369Y-132730203D01*
X53697574Y-132682229D01*
X53680779Y-132614407D01*
X53703317Y-132548273D01*
X53748371Y-132509234D01*
X53841347Y-132461861D01*
X54006894Y-132341582D01*
X54006895Y-132341582D01*
X54151582Y-132196895D01*
X54151582Y-132196894D01*
X54271859Y-132031349D01*
X54364755Y-131849029D01*
X54427990Y-131654413D01*
X54436609Y-131600000D01*
X53475686Y-131600000D01*
X53480080Y-131595606D01*
X53532741Y-131504394D01*
X53560000Y-131402661D01*
X53560000Y-131297339D01*
X53532741Y-131195606D01*
X53480080Y-131104394D01*
X53475686Y-131100000D01*
X54436609Y-131100000D01*
X54427990Y-131045586D01*
X54364755Y-130850970D01*
X54271859Y-130668650D01*
X54151582Y-130503105D01*
X54151582Y-130503104D01*
X54006895Y-130358417D01*
X53841349Y-130238140D01*
X53748370Y-130190765D01*
X53697574Y-130142790D01*
X53680779Y-130074969D01*
X53703316Y-130008835D01*
X53748370Y-129969795D01*
X53748920Y-129969515D01*
X53841610Y-129922287D01*
X53862770Y-129906913D01*
X54007213Y-129801971D01*
X54007215Y-129801968D01*
X54007219Y-129801966D01*
X54151966Y-129657219D01*
X54151968Y-129657215D01*
X54151971Y-129657213D01*
X54204732Y-129584590D01*
X54272287Y-129491610D01*
X54365220Y-129309219D01*
X54428477Y-129114534D01*
X54460500Y-128912352D01*
X54460500Y-128707648D01*
X54446652Y-128620215D01*
X54428477Y-128505465D01*
X54376322Y-128344949D01*
X54365220Y-128310781D01*
X54365218Y-128310778D01*
X54365218Y-128310776D01*
X54320601Y-128223211D01*
X54272287Y-128128390D01*
X54239362Y-128083072D01*
X54151971Y-127962786D01*
X54007213Y-127818028D01*
X53841614Y-127697715D01*
X53814220Y-127683757D01*
X53748917Y-127650483D01*
X53698123Y-127602511D01*
X53681328Y-127534690D01*
X53703865Y-127468555D01*
X53748917Y-127429516D01*
X53841610Y-127382287D01*
X53862770Y-127366913D01*
X54007213Y-127261971D01*
X54007215Y-127261968D01*
X54007219Y-127261966D01*
X54151966Y-127117219D01*
X54151968Y-127117215D01*
X54151971Y-127117213D01*
X54218366Y-127025826D01*
X54272287Y-126951610D01*
X54365220Y-126769219D01*
X54428477Y-126574534D01*
X54460500Y-126372352D01*
X54460500Y-126167648D01*
X54430528Y-125978414D01*
X54428477Y-125965465D01*
X54386915Y-125837552D01*
X54365220Y-125770781D01*
X54365218Y-125770778D01*
X54365218Y-125770776D01*
X54286559Y-125616401D01*
X54272287Y-125588390D01*
X54239362Y-125543072D01*
X54151971Y-125422786D01*
X54007213Y-125278028D01*
X53841614Y-125157715D01*
X53814220Y-125143757D01*
X53748917Y-125110483D01*
X53698123Y-125062511D01*
X53681328Y-124994690D01*
X53703865Y-124928555D01*
X53748917Y-124889516D01*
X53841610Y-124842287D01*
X53862770Y-124826913D01*
X54007213Y-124721971D01*
X54007215Y-124721968D01*
X54007219Y-124721966D01*
X54151966Y-124577219D01*
X54151968Y-124577215D01*
X54151971Y-124577213D01*
X54204732Y-124504590D01*
X54272287Y-124411610D01*
X54365220Y-124229219D01*
X54428477Y-124034534D01*
X54460500Y-123832352D01*
X54460500Y-123627648D01*
X54430528Y-123438414D01*
X54428477Y-123425465D01*
X54386915Y-123297552D01*
X54365220Y-123230781D01*
X54365218Y-123230778D01*
X54365218Y-123230776D01*
X54320601Y-123143211D01*
X54272287Y-123048390D01*
X54239362Y-123003072D01*
X54151971Y-122882786D01*
X54007213Y-122738028D01*
X53841614Y-122617715D01*
X53814220Y-122603757D01*
X53748917Y-122570483D01*
X53698123Y-122522511D01*
X53681328Y-122454690D01*
X53703865Y-122388555D01*
X53748917Y-122349516D01*
X53841610Y-122302287D01*
X53862770Y-122286913D01*
X54007213Y-122181971D01*
X54007215Y-122181968D01*
X54007219Y-122181966D01*
X54151966Y-122037219D01*
X54151968Y-122037215D01*
X54151971Y-122037213D01*
X54204732Y-121964590D01*
X54272287Y-121871610D01*
X54365220Y-121689219D01*
X54428477Y-121494534D01*
X54460500Y-121292352D01*
X54460500Y-121087648D01*
X54428477Y-120885466D01*
X54365220Y-120690781D01*
X54365218Y-120690778D01*
X54365218Y-120690776D01*
X54320601Y-120603211D01*
X54272287Y-120508390D01*
X54239362Y-120463072D01*
X54151971Y-120342786D01*
X54007213Y-120198028D01*
X53841614Y-120077715D01*
X53835006Y-120074348D01*
X53748917Y-120030483D01*
X53698123Y-119982511D01*
X53681328Y-119914690D01*
X53703865Y-119848555D01*
X53748917Y-119809516D01*
X53841610Y-119762287D01*
X53862770Y-119746913D01*
X54007213Y-119641971D01*
X54007215Y-119641968D01*
X54007219Y-119641966D01*
X54151966Y-119497219D01*
X54151968Y-119497215D01*
X54151971Y-119497213D01*
X54206240Y-119422516D01*
X54272287Y-119331610D01*
X54365220Y-119149219D01*
X54428477Y-118954534D01*
X54460500Y-118752352D01*
X54460500Y-118547648D01*
X54428477Y-118345466D01*
X54365220Y-118150781D01*
X54365218Y-118150778D01*
X54365218Y-118150776D01*
X54320601Y-118063211D01*
X54272287Y-117968390D01*
X54239362Y-117923072D01*
X54151971Y-117802786D01*
X54007217Y-117658032D01*
X54007212Y-117658028D01*
X53970325Y-117631228D01*
X53927659Y-117575898D01*
X53921680Y-117506285D01*
X53954286Y-117444490D01*
X54015124Y-117410133D01*
X54029956Y-117407620D01*
X54067379Y-117403596D01*
X54202086Y-117353354D01*
X54202093Y-117353350D01*
X54317187Y-117267190D01*
X54317190Y-117267187D01*
X54403350Y-117152093D01*
X54403354Y-117152086D01*
X54453596Y-117017379D01*
X54453598Y-117017372D01*
X54459999Y-116957844D01*
X54460000Y-116957827D01*
X54460000Y-116360000D01*
X53475686Y-116360000D01*
X53480080Y-116355606D01*
X53532741Y-116264394D01*
X53560000Y-116162661D01*
X53560000Y-116057339D01*
X53546685Y-116007648D01*
X64559500Y-116007648D01*
X64559500Y-116212351D01*
X64591522Y-116414534D01*
X64654781Y-116609223D01*
X64747715Y-116791613D01*
X64868028Y-116957213D01*
X65012786Y-117101971D01*
X65167749Y-117214556D01*
X65178390Y-117222287D01*
X65266511Y-117267187D01*
X65271080Y-117269515D01*
X65321876Y-117317490D01*
X65338671Y-117385311D01*
X65316134Y-117451446D01*
X65271080Y-117490485D01*
X65178386Y-117537715D01*
X65012786Y-117658028D01*
X64868028Y-117802786D01*
X64747715Y-117968386D01*
X64654781Y-118150776D01*
X64591522Y-118345465D01*
X64559500Y-118547648D01*
X64559500Y-118752351D01*
X64591522Y-118954534D01*
X64654781Y-119149223D01*
X64747715Y-119331613D01*
X64868028Y-119497213D01*
X65012786Y-119641971D01*
X65167749Y-119754556D01*
X65178390Y-119762287D01*
X65269840Y-119808883D01*
X65271080Y-119809515D01*
X65321876Y-119857490D01*
X65338671Y-119925311D01*
X65316134Y-119991446D01*
X65271080Y-120030485D01*
X65178386Y-120077715D01*
X65012786Y-120198028D01*
X64868028Y-120342786D01*
X64747715Y-120508386D01*
X64654781Y-120690776D01*
X64591522Y-120885465D01*
X64559500Y-121087648D01*
X64559500Y-121292351D01*
X64591522Y-121494534D01*
X64654781Y-121689223D01*
X64693366Y-121764949D01*
X64744523Y-121865350D01*
X64747715Y-121871613D01*
X64868028Y-122037213D01*
X65012786Y-122181971D01*
X65167749Y-122294556D01*
X65178390Y-122302287D01*
X65269840Y-122348883D01*
X65271080Y-122349515D01*
X65321876Y-122397490D01*
X65338671Y-122465311D01*
X65316134Y-122531446D01*
X65271080Y-122570485D01*
X65178386Y-122617715D01*
X65012786Y-122738028D01*
X64868028Y-122882786D01*
X64747715Y-123048386D01*
X64654781Y-123230776D01*
X64591522Y-123425465D01*
X64559500Y-123627648D01*
X64559500Y-123832351D01*
X64591522Y-124034534D01*
X64654781Y-124229223D01*
X64747715Y-124411613D01*
X64868028Y-124577213D01*
X65012786Y-124721971D01*
X65167749Y-124834556D01*
X65178390Y-124842287D01*
X65269840Y-124888883D01*
X65271080Y-124889515D01*
X65321876Y-124937490D01*
X65338671Y-125005311D01*
X65316134Y-125071446D01*
X65271080Y-125110485D01*
X65178386Y-125157715D01*
X65012786Y-125278028D01*
X64868028Y-125422786D01*
X64747715Y-125588386D01*
X64654781Y-125770776D01*
X64591522Y-125965465D01*
X64559500Y-126167648D01*
X64559500Y-126372351D01*
X64591522Y-126574534D01*
X64654781Y-126769223D01*
X64747715Y-126951613D01*
X64868028Y-127117213D01*
X65012786Y-127261971D01*
X65167749Y-127374556D01*
X65178390Y-127382287D01*
X65264034Y-127425925D01*
X65271080Y-127429515D01*
X65321876Y-127477490D01*
X65338671Y-127545311D01*
X65316134Y-127611446D01*
X65271080Y-127650485D01*
X65178386Y-127697715D01*
X65012786Y-127818028D01*
X64868028Y-127962786D01*
X64747715Y-128128386D01*
X64654781Y-128310776D01*
X64591522Y-128505465D01*
X64559500Y-128707648D01*
X64559500Y-128912351D01*
X64591522Y-129114534D01*
X64654781Y-129309223D01*
X64747715Y-129491613D01*
X64868028Y-129657213D01*
X65012786Y-129801971D01*
X65167749Y-129914556D01*
X65178390Y-129922287D01*
X65269840Y-129968883D01*
X65271080Y-129969515D01*
X65321876Y-130017490D01*
X65338671Y-130085311D01*
X65316134Y-130151446D01*
X65271080Y-130190485D01*
X65178386Y-130237715D01*
X65012786Y-130358028D01*
X64868028Y-130502786D01*
X64747715Y-130668386D01*
X64654781Y-130850776D01*
X64591522Y-131045465D01*
X64559500Y-131247648D01*
X64559500Y-131452351D01*
X64591522Y-131654534D01*
X64654781Y-131849223D01*
X64747715Y-132031613D01*
X64868028Y-132197213D01*
X65012786Y-132341971D01*
X65167749Y-132454556D01*
X65178390Y-132462287D01*
X65269840Y-132508883D01*
X65271080Y-132509515D01*
X65321876Y-132557490D01*
X65338671Y-132625311D01*
X65316134Y-132691446D01*
X65271080Y-132730485D01*
X65178386Y-132777715D01*
X65012786Y-132898028D01*
X64868028Y-133042786D01*
X64747715Y-133208386D01*
X64654781Y-133390776D01*
X64591522Y-133585465D01*
X64559500Y-133787648D01*
X64559500Y-133992351D01*
X64591522Y-134194534D01*
X64654781Y-134389223D01*
X64747715Y-134571613D01*
X64868028Y-134737213D01*
X65012786Y-134881971D01*
X65167749Y-134994556D01*
X65178390Y-135002287D01*
X65294607Y-135061503D01*
X65360776Y-135095218D01*
X65360778Y-135095218D01*
X65360781Y-135095220D01*
X65465137Y-135129127D01*
X65555465Y-135158477D01*
X65656557Y-135174488D01*
X65757648Y-135190500D01*
X65757649Y-135190500D01*
X65962351Y-135190500D01*
X65962352Y-135190500D01*
X66164534Y-135158477D01*
X66359219Y-135095220D01*
X66541610Y-135002287D01*
X66678026Y-134903176D01*
X66707213Y-134881971D01*
X66707215Y-134881968D01*
X66707219Y-134881966D01*
X66851966Y-134737219D01*
X66851968Y-134737215D01*
X66851971Y-134737213D01*
X66940813Y-134614930D01*
X66972287Y-134571610D01*
X67065220Y-134389219D01*
X67128477Y-134194534D01*
X67160500Y-133992352D01*
X67160500Y-133793389D01*
X71999500Y-133793389D01*
X71999500Y-133966610D01*
X72020675Y-134100308D01*
X72026598Y-134137701D01*
X72080127Y-134302445D01*
X72158768Y-134456788D01*
X72260586Y-134596928D01*
X72383072Y-134719414D01*
X72523212Y-134821232D01*
X72677555Y-134899873D01*
X72842299Y-134953402D01*
X73013389Y-134980500D01*
X73013390Y-134980500D01*
X73986610Y-134980500D01*
X73986611Y-134980500D01*
X74157701Y-134953402D01*
X74322445Y-134899873D01*
X74476788Y-134821232D01*
X74616928Y-134719414D01*
X74739414Y-134596928D01*
X74841232Y-134456788D01*
X74919873Y-134302445D01*
X74973402Y-134137701D01*
X75000500Y-133966611D01*
X75000500Y-133793389D01*
X94859500Y-133793389D01*
X94859500Y-133966610D01*
X94880675Y-134100308D01*
X94886598Y-134137701D01*
X94940127Y-134302445D01*
X95018768Y-134456788D01*
X95120586Y-134596928D01*
X95243072Y-134719414D01*
X95383212Y-134821232D01*
X95537555Y-134899873D01*
X95702299Y-134953402D01*
X95873389Y-134980500D01*
X95873390Y-134980500D01*
X96846610Y-134980500D01*
X96846611Y-134980500D01*
X97017701Y-134953402D01*
X97182445Y-134899873D01*
X97336788Y-134821232D01*
X97476928Y-134719414D01*
X97599414Y-134596928D01*
X97701232Y-134456788D01*
X97779873Y-134302445D01*
X97833402Y-134137701D01*
X97860500Y-133966611D01*
X97860500Y-133793389D01*
X97833402Y-133622299D01*
X97779873Y-133457555D01*
X97701232Y-133303212D01*
X97599414Y-133163072D01*
X97476928Y-133040586D01*
X97336788Y-132938768D01*
X97182445Y-132860127D01*
X97017701Y-132806598D01*
X97017699Y-132806597D01*
X97017698Y-132806597D01*
X96886271Y-132785781D01*
X96846611Y-132779500D01*
X95873389Y-132779500D01*
X95833728Y-132785781D01*
X95702302Y-132806597D01*
X95537552Y-132860128D01*
X95383211Y-132938768D01*
X95303256Y-132996859D01*
X95243072Y-133040586D01*
X95243070Y-133040588D01*
X95243069Y-133040588D01*
X95120588Y-133163069D01*
X95120588Y-133163070D01*
X95120586Y-133163072D01*
X95076859Y-133223256D01*
X95018768Y-133303211D01*
X94940128Y-133457552D01*
X94886597Y-133622302D01*
X94859500Y-133793389D01*
X75000500Y-133793389D01*
X74973402Y-133622299D01*
X74919873Y-133457555D01*
X74841232Y-133303212D01*
X74739414Y-133163072D01*
X74616928Y-133040586D01*
X74476788Y-132938768D01*
X74322445Y-132860127D01*
X74157701Y-132806598D01*
X74157699Y-132806597D01*
X74157698Y-132806597D01*
X74026271Y-132785781D01*
X73986611Y-132779500D01*
X73013389Y-132779500D01*
X72973728Y-132785781D01*
X72842302Y-132806597D01*
X72677552Y-132860128D01*
X72523211Y-132938768D01*
X72443256Y-132996859D01*
X72383072Y-133040586D01*
X72383070Y-133040588D01*
X72383069Y-133040588D01*
X72260588Y-133163069D01*
X72260588Y-133163070D01*
X72260586Y-133163072D01*
X72216859Y-133223256D01*
X72158768Y-133303211D01*
X72080128Y-133457552D01*
X72026597Y-133622302D01*
X71999500Y-133793389D01*
X67160500Y-133793389D01*
X67160500Y-133787648D01*
X67128477Y-133585466D01*
X67065220Y-133390781D01*
X67065218Y-133390778D01*
X67065218Y-133390776D01*
X67020601Y-133303211D01*
X66972287Y-133208390D01*
X66939362Y-133163072D01*
X66851971Y-133042786D01*
X66707213Y-132898028D01*
X66541614Y-132777715D01*
X66535006Y-132774348D01*
X66448917Y-132730483D01*
X66398123Y-132682511D01*
X66381328Y-132614690D01*
X66403865Y-132548555D01*
X66448917Y-132509516D01*
X66541610Y-132462287D01*
X66562770Y-132446913D01*
X66707213Y-132341971D01*
X66707215Y-132341968D01*
X66707219Y-132341966D01*
X66851966Y-132197219D01*
X66851968Y-132197215D01*
X66851971Y-132197213D01*
X66904732Y-132124590D01*
X66972287Y-132031610D01*
X67065220Y-131849219D01*
X67128477Y-131654534D01*
X67160500Y-131452352D01*
X67160500Y-131253389D01*
X71999500Y-131253389D01*
X71999500Y-131426611D01*
X72026598Y-131597701D01*
X72080127Y-131762445D01*
X72158768Y-131916788D01*
X72260586Y-132056928D01*
X72383072Y-132179414D01*
X72523212Y-132281232D01*
X72677555Y-132359873D01*
X72842299Y-132413402D01*
X73013389Y-132440500D01*
X73013390Y-132440500D01*
X73986610Y-132440500D01*
X73986611Y-132440500D01*
X74157701Y-132413402D01*
X74322445Y-132359873D01*
X74476788Y-132281232D01*
X74616928Y-132179414D01*
X74739414Y-132056928D01*
X74841232Y-131916788D01*
X74919873Y-131762445D01*
X74973402Y-131597701D01*
X75000500Y-131426611D01*
X75000500Y-131253389D01*
X94859500Y-131253389D01*
X94859500Y-131426611D01*
X94886598Y-131597701D01*
X94940127Y-131762445D01*
X95018768Y-131916788D01*
X95120586Y-132056928D01*
X95243072Y-132179414D01*
X95383212Y-132281232D01*
X95537555Y-132359873D01*
X95702299Y-132413402D01*
X95873389Y-132440500D01*
X95873390Y-132440500D01*
X96846610Y-132440500D01*
X96846611Y-132440500D01*
X97017701Y-132413402D01*
X97182445Y-132359873D01*
X97336788Y-132281232D01*
X97476928Y-132179414D01*
X97599414Y-132056928D01*
X97701232Y-131916788D01*
X97779873Y-131762445D01*
X97833402Y-131597701D01*
X97860500Y-131426611D01*
X97860500Y-131253389D01*
X97833402Y-131082299D01*
X97779873Y-130917555D01*
X97701232Y-130763212D01*
X97599414Y-130623072D01*
X97476928Y-130500586D01*
X97336788Y-130398768D01*
X97182445Y-130320127D01*
X97017701Y-130266598D01*
X97017699Y-130266597D01*
X97017698Y-130266597D01*
X96886271Y-130245781D01*
X96846611Y-130239500D01*
X95873389Y-130239500D01*
X95833728Y-130245781D01*
X95702302Y-130266597D01*
X95537552Y-130320128D01*
X95383211Y-130398768D01*
X95303256Y-130456859D01*
X95243072Y-130500586D01*
X95243070Y-130500588D01*
X95243069Y-130500588D01*
X95120588Y-130623069D01*
X95120588Y-130623070D01*
X95120586Y-130623072D01*
X95087472Y-130668650D01*
X95018768Y-130763211D01*
X94940128Y-130917552D01*
X94886597Y-131082302D01*
X94868652Y-131195606D01*
X94859500Y-131253389D01*
X75000500Y-131253389D01*
X74973402Y-131082299D01*
X74919873Y-130917555D01*
X74841232Y-130763212D01*
X74739414Y-130623072D01*
X74616928Y-130500586D01*
X74476788Y-130398768D01*
X74322445Y-130320127D01*
X74157701Y-130266598D01*
X74157699Y-130266597D01*
X74157698Y-130266597D01*
X74026271Y-130245781D01*
X73986611Y-130239500D01*
X73013389Y-130239500D01*
X72973728Y-130245781D01*
X72842302Y-130266597D01*
X72677552Y-130320128D01*
X72523211Y-130398768D01*
X72443256Y-130456859D01*
X72383072Y-130500586D01*
X72383070Y-130500588D01*
X72383069Y-130500588D01*
X72260588Y-130623069D01*
X72260588Y-130623070D01*
X72260586Y-130623072D01*
X72227472Y-130668650D01*
X72158768Y-130763211D01*
X72080128Y-130917552D01*
X72026597Y-131082302D01*
X72008652Y-131195606D01*
X71999500Y-131253389D01*
X67160500Y-131253389D01*
X67160500Y-131247648D01*
X67152257Y-131195606D01*
X67128477Y-131045465D01*
X67086915Y-130917552D01*
X67065220Y-130850781D01*
X67065218Y-130850778D01*
X67065218Y-130850776D01*
X67031503Y-130784607D01*
X66972287Y-130668390D01*
X66939362Y-130623072D01*
X66851971Y-130502786D01*
X66707213Y-130358028D01*
X66541614Y-130237715D01*
X66535006Y-130234348D01*
X66448917Y-130190483D01*
X66398123Y-130142511D01*
X66381328Y-130074690D01*
X66403865Y-130008555D01*
X66448917Y-129969516D01*
X66541610Y-129922287D01*
X66562770Y-129906913D01*
X66707213Y-129801971D01*
X66707215Y-129801968D01*
X66707219Y-129801966D01*
X66851966Y-129657219D01*
X66851968Y-129657215D01*
X66851971Y-129657213D01*
X66904732Y-129584590D01*
X66972287Y-129491610D01*
X67065220Y-129309219D01*
X67128477Y-129114534D01*
X67160500Y-128912352D01*
X67160500Y-128713389D01*
X71999500Y-128713389D01*
X71999500Y-128886611D01*
X72026598Y-129057701D01*
X72080127Y-129222445D01*
X72158768Y-129376788D01*
X72260586Y-129516928D01*
X72383072Y-129639414D01*
X72523212Y-129741232D01*
X72677555Y-129819873D01*
X72842299Y-129873402D01*
X73013389Y-129900500D01*
X73013390Y-129900500D01*
X73986610Y-129900500D01*
X73986611Y-129900500D01*
X74157701Y-129873402D01*
X74322445Y-129819873D01*
X74476788Y-129741232D01*
X74616928Y-129639414D01*
X74739414Y-129516928D01*
X74841232Y-129376788D01*
X74919873Y-129222445D01*
X74973402Y-129057701D01*
X75000500Y-128886611D01*
X75000500Y-128713389D01*
X94859500Y-128713389D01*
X94859500Y-128886611D01*
X94886598Y-129057701D01*
X94940127Y-129222445D01*
X95018768Y-129376788D01*
X95120586Y-129516928D01*
X95243072Y-129639414D01*
X95383212Y-129741232D01*
X95537555Y-129819873D01*
X95702299Y-129873402D01*
X95873389Y-129900500D01*
X95873390Y-129900500D01*
X96846610Y-129900500D01*
X96846611Y-129900500D01*
X97017701Y-129873402D01*
X97182445Y-129819873D01*
X97336788Y-129741232D01*
X97476928Y-129639414D01*
X97599414Y-129516928D01*
X97688935Y-129393713D01*
X108649500Y-129393713D01*
X108649500Y-129606286D01*
X108680493Y-129801971D01*
X108682754Y-129816243D01*
X108748234Y-130017770D01*
X108748444Y-130018414D01*
X108844951Y-130207820D01*
X108969890Y-130379786D01*
X109120213Y-130530109D01*
X109292182Y-130655050D01*
X109300946Y-130659516D01*
X109351742Y-130707491D01*
X109368536Y-130775312D01*
X109345998Y-130841447D01*
X109300946Y-130880484D01*
X109292182Y-130884949D01*
X109120213Y-131009890D01*
X108969890Y-131160213D01*
X108844951Y-131332179D01*
X108748444Y-131521585D01*
X108682753Y-131723760D01*
X108649500Y-131933713D01*
X108649500Y-132146286D01*
X108680493Y-132341971D01*
X108682754Y-132356243D01*
X108748143Y-132557490D01*
X108748444Y-132558414D01*
X108844951Y-132747820D01*
X108969890Y-132919786D01*
X109120213Y-133070109D01*
X109292179Y-133195048D01*
X109292181Y-133195049D01*
X109292184Y-133195051D01*
X109481588Y-133291557D01*
X109683757Y-133357246D01*
X109893713Y-133390500D01*
X109893714Y-133390500D01*
X110106286Y-133390500D01*
X110106287Y-133390500D01*
X110316243Y-133357246D01*
X110518412Y-133291557D01*
X110707816Y-133195051D01*
X110751832Y-133163072D01*
X110879786Y-133070109D01*
X110879788Y-133070106D01*
X110879792Y-133070104D01*
X111030104Y-132919792D01*
X111030106Y-132919788D01*
X111030109Y-132919786D01*
X111155048Y-132747820D01*
X111155047Y-132747820D01*
X111155051Y-132747816D01*
X111251557Y-132558412D01*
X111317246Y-132356243D01*
X111350500Y-132146287D01*
X111350500Y-131933713D01*
X111317246Y-131723757D01*
X111251557Y-131521588D01*
X111155051Y-131332184D01*
X111155049Y-131332181D01*
X111155048Y-131332179D01*
X111030109Y-131160213D01*
X110879786Y-131009890D01*
X110707820Y-130884951D01*
X110707115Y-130884591D01*
X110699054Y-130880485D01*
X110648259Y-130832512D01*
X110631463Y-130764692D01*
X110653999Y-130698556D01*
X110699054Y-130659515D01*
X110707816Y-130655051D01*
X110751832Y-130623072D01*
X110879786Y-130530109D01*
X110879788Y-130530106D01*
X110879792Y-130530104D01*
X111030104Y-130379792D01*
X111030106Y-130379788D01*
X111030109Y-130379786D01*
X111155048Y-130207820D01*
X111155047Y-130207820D01*
X111155051Y-130207816D01*
X111251557Y-130018412D01*
X111317246Y-129816243D01*
X111350500Y-129606287D01*
X111350500Y-129393713D01*
X111317246Y-129183757D01*
X111251557Y-128981588D01*
X111155051Y-128792184D01*
X111155049Y-128792181D01*
X111155048Y-128792179D01*
X111030109Y-128620213D01*
X110916181Y-128506285D01*
X110882696Y-128444962D01*
X110887680Y-128375270D01*
X110929552Y-128319337D01*
X110960529Y-128302422D01*
X111092086Y-128253354D01*
X111092093Y-128253350D01*
X111207187Y-128167190D01*
X111207190Y-128167187D01*
X111293350Y-128052093D01*
X111293354Y-128052086D01*
X111343596Y-127917379D01*
X111343598Y-127917372D01*
X111349999Y-127857844D01*
X111350000Y-127857827D01*
X111350000Y-127210000D01*
X110433012Y-127210000D01*
X110465925Y-127152993D01*
X110500000Y-127025826D01*
X110500000Y-126894174D01*
X110465925Y-126767007D01*
X110433012Y-126710000D01*
X111350000Y-126710000D01*
X111350000Y-126062172D01*
X111349999Y-126062155D01*
X111343598Y-126002627D01*
X111343596Y-126002620D01*
X111293354Y-125867913D01*
X111293350Y-125867906D01*
X111207190Y-125752812D01*
X111207187Y-125752809D01*
X111092093Y-125666649D01*
X111092086Y-125666645D01*
X110957379Y-125616403D01*
X110957372Y-125616401D01*
X110897844Y-125610000D01*
X110250000Y-125610000D01*
X110250000Y-126526988D01*
X110192993Y-126494075D01*
X110065826Y-126460000D01*
X109934174Y-126460000D01*
X109807007Y-126494075D01*
X109750000Y-126526988D01*
X109750000Y-125610000D01*
X109102155Y-125610000D01*
X109042627Y-125616401D01*
X109042620Y-125616403D01*
X108907913Y-125666645D01*
X108907906Y-125666649D01*
X108792812Y-125752809D01*
X108792809Y-125752812D01*
X108706649Y-125867906D01*
X108706645Y-125867913D01*
X108656403Y-126002620D01*
X108656401Y-126002627D01*
X108650000Y-126062155D01*
X108650000Y-126710000D01*
X109566988Y-126710000D01*
X109534075Y-126767007D01*
X109500000Y-126894174D01*
X109500000Y-127025826D01*
X109534075Y-127152993D01*
X109566988Y-127210000D01*
X108650000Y-127210000D01*
X108650000Y-127857844D01*
X108656401Y-127917372D01*
X108656403Y-127917379D01*
X108706645Y-128052086D01*
X108706649Y-128052093D01*
X108792809Y-128167187D01*
X108792812Y-128167190D01*
X108907906Y-128253350D01*
X108907913Y-128253354D01*
X109039470Y-128302422D01*
X109095404Y-128344293D01*
X109119821Y-128409758D01*
X109104969Y-128478031D01*
X109083819Y-128506285D01*
X108969889Y-128620215D01*
X108844951Y-128792179D01*
X108748444Y-128981585D01*
X108748443Y-128981587D01*
X108748443Y-128981588D01*
X108723714Y-129057697D01*
X108682753Y-129183760D01*
X108649500Y-129393713D01*
X97688935Y-129393713D01*
X97701232Y-129376788D01*
X97779873Y-129222445D01*
X97833402Y-129057701D01*
X97860500Y-128886611D01*
X97860500Y-128713389D01*
X97833402Y-128542299D01*
X97779873Y-128377555D01*
X97701232Y-128223212D01*
X97599414Y-128083072D01*
X97476928Y-127960586D01*
X97336788Y-127858768D01*
X97182445Y-127780127D01*
X97017701Y-127726598D01*
X97017699Y-127726597D01*
X97017698Y-127726597D01*
X96886271Y-127705781D01*
X96846611Y-127699500D01*
X95873389Y-127699500D01*
X95833728Y-127705781D01*
X95702302Y-127726597D01*
X95537552Y-127780128D01*
X95383211Y-127858768D01*
X95335114Y-127893713D01*
X95243072Y-127960586D01*
X95243070Y-127960588D01*
X95243069Y-127960588D01*
X95120588Y-128083069D01*
X95120588Y-128083070D01*
X95120586Y-128083072D01*
X95076859Y-128143256D01*
X95018768Y-128223211D01*
X94940128Y-128377552D01*
X94886597Y-128542302D01*
X94874257Y-128620215D01*
X94859500Y-128713389D01*
X75000500Y-128713389D01*
X74973402Y-128542299D01*
X74919873Y-128377555D01*
X74841232Y-128223212D01*
X74739414Y-128083072D01*
X74616928Y-127960586D01*
X74476788Y-127858768D01*
X74322445Y-127780127D01*
X74157701Y-127726598D01*
X74157699Y-127726597D01*
X74157698Y-127726597D01*
X74026271Y-127705781D01*
X73986611Y-127699500D01*
X73013389Y-127699500D01*
X72973728Y-127705781D01*
X72842302Y-127726597D01*
X72677552Y-127780128D01*
X72523211Y-127858768D01*
X72475114Y-127893713D01*
X72383072Y-127960586D01*
X72383070Y-127960588D01*
X72383069Y-127960588D01*
X72260588Y-128083069D01*
X72260588Y-128083070D01*
X72260586Y-128083072D01*
X72216859Y-128143256D01*
X72158768Y-128223211D01*
X72080128Y-128377552D01*
X72026597Y-128542302D01*
X72014257Y-128620215D01*
X71999500Y-128713389D01*
X67160500Y-128713389D01*
X67160500Y-128707648D01*
X67146652Y-128620215D01*
X67128477Y-128505465D01*
X67076322Y-128344949D01*
X67065220Y-128310781D01*
X67065218Y-128310778D01*
X67065218Y-128310776D01*
X67020601Y-128223211D01*
X66972287Y-128128390D01*
X66939362Y-128083072D01*
X66851971Y-127962786D01*
X66707213Y-127818028D01*
X66541614Y-127697715D01*
X66514220Y-127683757D01*
X66448917Y-127650483D01*
X66398123Y-127602511D01*
X66381328Y-127534690D01*
X66403865Y-127468555D01*
X66448917Y-127429516D01*
X66541610Y-127382287D01*
X66562770Y-127366913D01*
X66707213Y-127261971D01*
X66707215Y-127261968D01*
X66707219Y-127261966D01*
X66851966Y-127117219D01*
X66851968Y-127117215D01*
X66851971Y-127117213D01*
X66918366Y-127025826D01*
X66972287Y-126951610D01*
X67065220Y-126769219D01*
X67128477Y-126574534D01*
X67160500Y-126372352D01*
X67160500Y-126173389D01*
X71999500Y-126173389D01*
X71999500Y-126346611D01*
X72026598Y-126517701D01*
X72080127Y-126682445D01*
X72158768Y-126836788D01*
X72260586Y-126976928D01*
X72383072Y-127099414D01*
X72523212Y-127201232D01*
X72677555Y-127279873D01*
X72842299Y-127333402D01*
X73013389Y-127360500D01*
X73013390Y-127360500D01*
X73986610Y-127360500D01*
X73986611Y-127360500D01*
X74157701Y-127333402D01*
X74322445Y-127279873D01*
X74476788Y-127201232D01*
X74616928Y-127099414D01*
X74739414Y-126976928D01*
X74841232Y-126836788D01*
X74919873Y-126682445D01*
X74973402Y-126517701D01*
X75000500Y-126346611D01*
X75000500Y-126173389D01*
X94859500Y-126173389D01*
X94859500Y-126346611D01*
X94886598Y-126517701D01*
X94940127Y-126682445D01*
X95018768Y-126836788D01*
X95120586Y-126976928D01*
X95243072Y-127099414D01*
X95383212Y-127201232D01*
X95537555Y-127279873D01*
X95702299Y-127333402D01*
X95873389Y-127360500D01*
X95873390Y-127360500D01*
X96846610Y-127360500D01*
X96846611Y-127360500D01*
X97017701Y-127333402D01*
X97182445Y-127279873D01*
X97336788Y-127201232D01*
X97476928Y-127099414D01*
X97599414Y-126976928D01*
X97701232Y-126836788D01*
X97779873Y-126682445D01*
X97833402Y-126517701D01*
X97860500Y-126346611D01*
X97860500Y-126173389D01*
X97833402Y-126002299D01*
X97779873Y-125837555D01*
X97701232Y-125683212D01*
X97599414Y-125543072D01*
X97476928Y-125420586D01*
X97336788Y-125318768D01*
X97182445Y-125240127D01*
X97017701Y-125186598D01*
X97017699Y-125186597D01*
X97017698Y-125186597D01*
X96886271Y-125165781D01*
X96846611Y-125159500D01*
X95873389Y-125159500D01*
X95833728Y-125165781D01*
X95702302Y-125186597D01*
X95537552Y-125240128D01*
X95383211Y-125318768D01*
X95335114Y-125353713D01*
X95243072Y-125420586D01*
X95243070Y-125420588D01*
X95243069Y-125420588D01*
X95120588Y-125543069D01*
X95120588Y-125543070D01*
X95120586Y-125543072D01*
X95076859Y-125603256D01*
X95018768Y-125683211D01*
X94940128Y-125837552D01*
X94886597Y-126002302D01*
X94860409Y-126167648D01*
X94859500Y-126173389D01*
X75000500Y-126173389D01*
X74973402Y-126002299D01*
X74919873Y-125837555D01*
X74841232Y-125683212D01*
X74739414Y-125543072D01*
X74616928Y-125420586D01*
X74476788Y-125318768D01*
X74322445Y-125240127D01*
X74157701Y-125186598D01*
X74157699Y-125186597D01*
X74157698Y-125186597D01*
X74026271Y-125165781D01*
X73986611Y-125159500D01*
X73013389Y-125159500D01*
X72973728Y-125165781D01*
X72842302Y-125186597D01*
X72677552Y-125240128D01*
X72523211Y-125318768D01*
X72475114Y-125353713D01*
X72383072Y-125420586D01*
X72383070Y-125420588D01*
X72383069Y-125420588D01*
X72260588Y-125543069D01*
X72260588Y-125543070D01*
X72260586Y-125543072D01*
X72216859Y-125603256D01*
X72158768Y-125683211D01*
X72080128Y-125837552D01*
X72026597Y-126002302D01*
X72000409Y-126167648D01*
X71999500Y-126173389D01*
X67160500Y-126173389D01*
X67160500Y-126167648D01*
X67130528Y-125978414D01*
X67128477Y-125965465D01*
X67086915Y-125837552D01*
X67065220Y-125770781D01*
X67065218Y-125770778D01*
X67065218Y-125770776D01*
X66986559Y-125616401D01*
X66972287Y-125588390D01*
X66939362Y-125543072D01*
X66851971Y-125422786D01*
X66707213Y-125278028D01*
X66541614Y-125157715D01*
X66514220Y-125143757D01*
X66448917Y-125110483D01*
X66398123Y-125062511D01*
X66381328Y-124994690D01*
X66403865Y-124928555D01*
X66448917Y-124889516D01*
X66541610Y-124842287D01*
X66562770Y-124826913D01*
X66707213Y-124721971D01*
X66707215Y-124721968D01*
X66707219Y-124721966D01*
X66851966Y-124577219D01*
X66851968Y-124577215D01*
X66851971Y-124577213D01*
X66904732Y-124504590D01*
X66972287Y-124411610D01*
X67065220Y-124229219D01*
X67128477Y-124034534D01*
X67160500Y-123832352D01*
X67160500Y-123633389D01*
X71999500Y-123633389D01*
X71999500Y-123806611D01*
X72026598Y-123977701D01*
X72080127Y-124142445D01*
X72158768Y-124296788D01*
X72260586Y-124436928D01*
X72383072Y-124559414D01*
X72523212Y-124661232D01*
X72677555Y-124739873D01*
X72842299Y-124793402D01*
X73013389Y-124820500D01*
X73013390Y-124820500D01*
X73986610Y-124820500D01*
X73986611Y-124820500D01*
X74157701Y-124793402D01*
X74322445Y-124739873D01*
X74476788Y-124661232D01*
X74616928Y-124559414D01*
X74739414Y-124436928D01*
X74841232Y-124296788D01*
X74919873Y-124142445D01*
X74973402Y-123977701D01*
X75000500Y-123806611D01*
X75000500Y-123633389D01*
X94859500Y-123633389D01*
X94859500Y-123806611D01*
X94886598Y-123977701D01*
X94940127Y-124142445D01*
X95018768Y-124296788D01*
X95120586Y-124436928D01*
X95243072Y-124559414D01*
X95383212Y-124661232D01*
X95537555Y-124739873D01*
X95702299Y-124793402D01*
X95873389Y-124820500D01*
X95873390Y-124820500D01*
X96846610Y-124820500D01*
X96846611Y-124820500D01*
X97017701Y-124793402D01*
X97182445Y-124739873D01*
X97336788Y-124661232D01*
X97476928Y-124559414D01*
X97599414Y-124436928D01*
X97701232Y-124296788D01*
X97779873Y-124142445D01*
X97833402Y-123977701D01*
X97860500Y-123806611D01*
X97860500Y-123633389D01*
X97833402Y-123462299D01*
X97779873Y-123297555D01*
X97701232Y-123143212D01*
X97599414Y-123003072D01*
X97476928Y-122880586D01*
X97336788Y-122778768D01*
X97182445Y-122700127D01*
X97017701Y-122646598D01*
X97017699Y-122646597D01*
X97017698Y-122646597D01*
X96886271Y-122625781D01*
X96846611Y-122619500D01*
X95873389Y-122619500D01*
X95833728Y-122625781D01*
X95702302Y-122646597D01*
X95537552Y-122700128D01*
X95383211Y-122778768D01*
X95335114Y-122813713D01*
X95243072Y-122880586D01*
X95243070Y-122880588D01*
X95243069Y-122880588D01*
X95120588Y-123003069D01*
X95120588Y-123003070D01*
X95120586Y-123003072D01*
X95076859Y-123063256D01*
X95018768Y-123143211D01*
X94940128Y-123297552D01*
X94886597Y-123462302D01*
X94860409Y-123627648D01*
X94859500Y-123633389D01*
X75000500Y-123633389D01*
X74973402Y-123462299D01*
X74919873Y-123297555D01*
X74841232Y-123143212D01*
X74739414Y-123003072D01*
X74616928Y-122880586D01*
X74476788Y-122778768D01*
X74322445Y-122700127D01*
X74157701Y-122646598D01*
X74157699Y-122646597D01*
X74157698Y-122646597D01*
X74026271Y-122625781D01*
X73986611Y-122619500D01*
X73013389Y-122619500D01*
X72973728Y-122625781D01*
X72842302Y-122646597D01*
X72677552Y-122700128D01*
X72523211Y-122778768D01*
X72475114Y-122813713D01*
X72383072Y-122880586D01*
X72383070Y-122880588D01*
X72383069Y-122880588D01*
X72260588Y-123003069D01*
X72260588Y-123003070D01*
X72260586Y-123003072D01*
X72216859Y-123063256D01*
X72158768Y-123143211D01*
X72080128Y-123297552D01*
X72026597Y-123462302D01*
X72000409Y-123627648D01*
X71999500Y-123633389D01*
X67160500Y-123633389D01*
X67160500Y-123627648D01*
X67130528Y-123438414D01*
X67128477Y-123425465D01*
X67086915Y-123297552D01*
X67065220Y-123230781D01*
X67065218Y-123230778D01*
X67065218Y-123230776D01*
X67020601Y-123143211D01*
X66972287Y-123048390D01*
X66939362Y-123003072D01*
X66851971Y-122882786D01*
X66707213Y-122738028D01*
X66541614Y-122617715D01*
X66514220Y-122603757D01*
X66448917Y-122570483D01*
X66398123Y-122522511D01*
X66381328Y-122454690D01*
X66403865Y-122388555D01*
X66448917Y-122349516D01*
X66541610Y-122302287D01*
X66562770Y-122286913D01*
X66707213Y-122181971D01*
X66707215Y-122181968D01*
X66707219Y-122181966D01*
X66851966Y-122037219D01*
X66851968Y-122037215D01*
X66851971Y-122037213D01*
X66904732Y-121964590D01*
X66972287Y-121871610D01*
X67065220Y-121689219D01*
X67128477Y-121494534D01*
X67160500Y-121292352D01*
X67160500Y-121093389D01*
X71999500Y-121093389D01*
X71999500Y-121266611D01*
X72026598Y-121437701D01*
X72080127Y-121602445D01*
X72158768Y-121756788D01*
X72260586Y-121896928D01*
X72383072Y-122019414D01*
X72523212Y-122121232D01*
X72677555Y-122199873D01*
X72842299Y-122253402D01*
X73013389Y-122280500D01*
X73013390Y-122280500D01*
X73986610Y-122280500D01*
X73986611Y-122280500D01*
X74157701Y-122253402D01*
X74322445Y-122199873D01*
X74476788Y-122121232D01*
X74616928Y-122019414D01*
X74739414Y-121896928D01*
X74841232Y-121756788D01*
X74919873Y-121602445D01*
X74973402Y-121437701D01*
X75000500Y-121266611D01*
X75000500Y-121093389D01*
X94859500Y-121093389D01*
X94859500Y-121266611D01*
X94886598Y-121437701D01*
X94940127Y-121602445D01*
X95018768Y-121756788D01*
X95120586Y-121896928D01*
X95243072Y-122019414D01*
X95383212Y-122121232D01*
X95537555Y-122199873D01*
X95702299Y-122253402D01*
X95873389Y-122280500D01*
X95873390Y-122280500D01*
X96846610Y-122280500D01*
X96846611Y-122280500D01*
X97017701Y-122253402D01*
X97182445Y-122199873D01*
X97336788Y-122121232D01*
X97476928Y-122019414D01*
X97599414Y-121896928D01*
X97701232Y-121756788D01*
X97779873Y-121602445D01*
X97833402Y-121437701D01*
X97860500Y-121266611D01*
X97860500Y-121093389D01*
X97833402Y-120922299D01*
X97779873Y-120757555D01*
X97701232Y-120603212D01*
X97599414Y-120463072D01*
X97476928Y-120340586D01*
X97336788Y-120238768D01*
X97182445Y-120160127D01*
X97017701Y-120106598D01*
X97017699Y-120106597D01*
X97017698Y-120106597D01*
X96886271Y-120085781D01*
X96846611Y-120079500D01*
X95873389Y-120079500D01*
X95833728Y-120085781D01*
X95702302Y-120106597D01*
X95537552Y-120160128D01*
X95383211Y-120238768D01*
X95303256Y-120296859D01*
X95243072Y-120340586D01*
X95243070Y-120340588D01*
X95243069Y-120340588D01*
X95120588Y-120463069D01*
X95120588Y-120463070D01*
X95120586Y-120463072D01*
X95076859Y-120523256D01*
X95018768Y-120603211D01*
X94940128Y-120757552D01*
X94886597Y-120922302D01*
X94860409Y-121087648D01*
X94859500Y-121093389D01*
X75000500Y-121093389D01*
X74973402Y-120922299D01*
X74919873Y-120757555D01*
X74841232Y-120603212D01*
X74739414Y-120463072D01*
X74616928Y-120340586D01*
X74476788Y-120238768D01*
X74322445Y-120160127D01*
X74157701Y-120106598D01*
X74157699Y-120106597D01*
X74157698Y-120106597D01*
X74026271Y-120085781D01*
X73986611Y-120079500D01*
X73013389Y-120079500D01*
X72973728Y-120085781D01*
X72842302Y-120106597D01*
X72677552Y-120160128D01*
X72523211Y-120238768D01*
X72443256Y-120296859D01*
X72383072Y-120340586D01*
X72383070Y-120340588D01*
X72383069Y-120340588D01*
X72260588Y-120463069D01*
X72260588Y-120463070D01*
X72260586Y-120463072D01*
X72216859Y-120523256D01*
X72158768Y-120603211D01*
X72080128Y-120757552D01*
X72026597Y-120922302D01*
X72000409Y-121087648D01*
X71999500Y-121093389D01*
X67160500Y-121093389D01*
X67160500Y-121087648D01*
X67128477Y-120885466D01*
X67065220Y-120690781D01*
X67065218Y-120690778D01*
X67065218Y-120690776D01*
X67020601Y-120603211D01*
X66972287Y-120508390D01*
X66939362Y-120463072D01*
X66851971Y-120342786D01*
X66707213Y-120198028D01*
X66541614Y-120077715D01*
X66535006Y-120074348D01*
X66448917Y-120030483D01*
X66398123Y-119982511D01*
X66381328Y-119914690D01*
X66403865Y-119848555D01*
X66448917Y-119809516D01*
X66541610Y-119762287D01*
X66562770Y-119746913D01*
X66707213Y-119641971D01*
X66707215Y-119641968D01*
X66707219Y-119641966D01*
X66851966Y-119497219D01*
X66851968Y-119497215D01*
X66851971Y-119497213D01*
X66906240Y-119422516D01*
X66972287Y-119331610D01*
X67065220Y-119149219D01*
X67128477Y-118954534D01*
X67160500Y-118752352D01*
X67160500Y-118553389D01*
X71999500Y-118553389D01*
X71999500Y-118726611D01*
X72026598Y-118897701D01*
X72080127Y-119062445D01*
X72158768Y-119216788D01*
X72260586Y-119356928D01*
X72383072Y-119479414D01*
X72523212Y-119581232D01*
X72677555Y-119659873D01*
X72842299Y-119713402D01*
X73013389Y-119740500D01*
X73013390Y-119740500D01*
X73986610Y-119740500D01*
X73986611Y-119740500D01*
X74157701Y-119713402D01*
X74322445Y-119659873D01*
X74476788Y-119581232D01*
X74616928Y-119479414D01*
X74739414Y-119356928D01*
X74841232Y-119216788D01*
X74919873Y-119062445D01*
X74973402Y-118897701D01*
X75000500Y-118726611D01*
X75000500Y-118553389D01*
X94859500Y-118553389D01*
X94859500Y-118726611D01*
X94886598Y-118897701D01*
X94940127Y-119062445D01*
X95018768Y-119216788D01*
X95120586Y-119356928D01*
X95243072Y-119479414D01*
X95383212Y-119581232D01*
X95537555Y-119659873D01*
X95702299Y-119713402D01*
X95873389Y-119740500D01*
X95873390Y-119740500D01*
X96846610Y-119740500D01*
X96846611Y-119740500D01*
X97017701Y-119713402D01*
X97182445Y-119659873D01*
X97336788Y-119581232D01*
X97476928Y-119479414D01*
X97599414Y-119356928D01*
X97701232Y-119216788D01*
X97779873Y-119062445D01*
X97833402Y-118897701D01*
X97860500Y-118726611D01*
X97860500Y-118553389D01*
X97833402Y-118382299D01*
X97779873Y-118217555D01*
X97701232Y-118063212D01*
X97599414Y-117923072D01*
X97476928Y-117800586D01*
X97336788Y-117698768D01*
X97182445Y-117620127D01*
X97017701Y-117566598D01*
X97017699Y-117566597D01*
X97017698Y-117566597D01*
X96886271Y-117545781D01*
X96846611Y-117539500D01*
X95873389Y-117539500D01*
X95833728Y-117545781D01*
X95702302Y-117566597D01*
X95537552Y-117620128D01*
X95383211Y-117698768D01*
X95303256Y-117756859D01*
X95243072Y-117800586D01*
X95243070Y-117800588D01*
X95243069Y-117800588D01*
X95120588Y-117923069D01*
X95120588Y-117923070D01*
X95120586Y-117923072D01*
X95076859Y-117983256D01*
X95018768Y-118063211D01*
X94940128Y-118217552D01*
X94886597Y-118382302D01*
X94860409Y-118547648D01*
X94859500Y-118553389D01*
X75000500Y-118553389D01*
X74973402Y-118382299D01*
X74919873Y-118217555D01*
X74841232Y-118063212D01*
X74739414Y-117923072D01*
X74616928Y-117800586D01*
X74476788Y-117698768D01*
X74322445Y-117620127D01*
X74157701Y-117566598D01*
X74157699Y-117566597D01*
X74157698Y-117566597D01*
X74026271Y-117545781D01*
X73986611Y-117539500D01*
X73013389Y-117539500D01*
X72973728Y-117545781D01*
X72842302Y-117566597D01*
X72677552Y-117620128D01*
X72523211Y-117698768D01*
X72443256Y-117756859D01*
X72383072Y-117800586D01*
X72383070Y-117800588D01*
X72383069Y-117800588D01*
X72260588Y-117923069D01*
X72260588Y-117923070D01*
X72260586Y-117923072D01*
X72216859Y-117983256D01*
X72158768Y-118063211D01*
X72080128Y-118217552D01*
X72026597Y-118382302D01*
X72000409Y-118547648D01*
X71999500Y-118553389D01*
X67160500Y-118553389D01*
X67160500Y-118547648D01*
X67128477Y-118345466D01*
X67065220Y-118150781D01*
X67065218Y-118150778D01*
X67065218Y-118150776D01*
X67020601Y-118063211D01*
X66972287Y-117968390D01*
X66939362Y-117923072D01*
X66851971Y-117802786D01*
X66707213Y-117658028D01*
X66541614Y-117537715D01*
X66479929Y-117506285D01*
X66448917Y-117490483D01*
X66398123Y-117442511D01*
X66381328Y-117374690D01*
X66403865Y-117308555D01*
X66448917Y-117269516D01*
X66541610Y-117222287D01*
X66562770Y-117206913D01*
X66707213Y-117101971D01*
X66707215Y-117101968D01*
X66707219Y-117101966D01*
X66851966Y-116957219D01*
X66851968Y-116957215D01*
X66851971Y-116957213D01*
X66904732Y-116884590D01*
X66972287Y-116791610D01*
X67065220Y-116609219D01*
X67128477Y-116414534D01*
X67160500Y-116212352D01*
X67160500Y-116013389D01*
X71999500Y-116013389D01*
X71999500Y-116186611D01*
X72026598Y-116357701D01*
X72080127Y-116522445D01*
X72158768Y-116676788D01*
X72260586Y-116816928D01*
X72383072Y-116939414D01*
X72523212Y-117041232D01*
X72677555Y-117119873D01*
X72842299Y-117173402D01*
X73013389Y-117200500D01*
X73013390Y-117200500D01*
X73986610Y-117200500D01*
X73986611Y-117200500D01*
X74157701Y-117173402D01*
X74322445Y-117119873D01*
X74476788Y-117041232D01*
X74616928Y-116939414D01*
X74739414Y-116816928D01*
X74841232Y-116676788D01*
X74919873Y-116522445D01*
X74973402Y-116357701D01*
X75000500Y-116186611D01*
X75000500Y-116013389D01*
X94859500Y-116013389D01*
X94859500Y-116186611D01*
X94886598Y-116357701D01*
X94940127Y-116522445D01*
X95018768Y-116676788D01*
X95120586Y-116816928D01*
X95243072Y-116939414D01*
X95383212Y-117041232D01*
X95537555Y-117119873D01*
X95702299Y-117173402D01*
X95873389Y-117200500D01*
X95873390Y-117200500D01*
X96846610Y-117200500D01*
X96846611Y-117200500D01*
X97017701Y-117173402D01*
X97182445Y-117119873D01*
X97336788Y-117041232D01*
X97476928Y-116939414D01*
X97599414Y-116816928D01*
X97701232Y-116676788D01*
X97779873Y-116522445D01*
X97833402Y-116357701D01*
X97860500Y-116186611D01*
X97860500Y-116013389D01*
X97833402Y-115842299D01*
X97779873Y-115677555D01*
X97701232Y-115523212D01*
X97599414Y-115383072D01*
X97476928Y-115260586D01*
X97336788Y-115158768D01*
X97182445Y-115080127D01*
X97017701Y-115026598D01*
X97017699Y-115026597D01*
X97017698Y-115026597D01*
X96886271Y-115005781D01*
X96846611Y-114999500D01*
X95873389Y-114999500D01*
X95833728Y-115005781D01*
X95702302Y-115026597D01*
X95537552Y-115080128D01*
X95383211Y-115158768D01*
X95322855Y-115202620D01*
X95243072Y-115260586D01*
X95243070Y-115260588D01*
X95243069Y-115260588D01*
X95120588Y-115383069D01*
X95120588Y-115383070D01*
X95120586Y-115383072D01*
X95076859Y-115443256D01*
X95018768Y-115523211D01*
X94940128Y-115677552D01*
X94886597Y-115842302D01*
X94883794Y-115860000D01*
X94859500Y-116013389D01*
X75000500Y-116013389D01*
X74973402Y-115842299D01*
X74919873Y-115677555D01*
X74841232Y-115523212D01*
X74739414Y-115383072D01*
X74616928Y-115260586D01*
X74476788Y-115158768D01*
X74322445Y-115080127D01*
X74157701Y-115026598D01*
X74157699Y-115026597D01*
X74157698Y-115026597D01*
X74026271Y-115005781D01*
X73986611Y-114999500D01*
X73013389Y-114999500D01*
X72973728Y-115005781D01*
X72842302Y-115026597D01*
X72677552Y-115080128D01*
X72523211Y-115158768D01*
X72462855Y-115202620D01*
X72383072Y-115260586D01*
X72383070Y-115260588D01*
X72383069Y-115260588D01*
X72260588Y-115383069D01*
X72260588Y-115383070D01*
X72260586Y-115383072D01*
X72216859Y-115443256D01*
X72158768Y-115523211D01*
X72080128Y-115677552D01*
X72026597Y-115842302D01*
X72023794Y-115860000D01*
X71999500Y-116013389D01*
X67160500Y-116013389D01*
X67160500Y-116007648D01*
X67152257Y-115955606D01*
X67128477Y-115805465D01*
X67065218Y-115610776D01*
X67020601Y-115523211D01*
X66972287Y-115428390D01*
X66939362Y-115383072D01*
X66851971Y-115262786D01*
X66707213Y-115118028D01*
X66541613Y-114997715D01*
X66541612Y-114997714D01*
X66541610Y-114997713D01*
X66453487Y-114952812D01*
X66359223Y-114904781D01*
X66164534Y-114841522D01*
X65989995Y-114813878D01*
X65962352Y-114809500D01*
X65757648Y-114809500D01*
X65733329Y-114813351D01*
X65555465Y-114841522D01*
X65360776Y-114904781D01*
X65178386Y-114997715D01*
X65012786Y-115118028D01*
X64868028Y-115262786D01*
X64747715Y-115428386D01*
X64654781Y-115610776D01*
X64591522Y-115805465D01*
X64559500Y-116007648D01*
X53546685Y-116007648D01*
X53532741Y-115955606D01*
X53480080Y-115864394D01*
X53475686Y-115860000D01*
X54460000Y-115860000D01*
X54460000Y-115262172D01*
X54459999Y-115262155D01*
X54453598Y-115202627D01*
X54453596Y-115202620D01*
X54403354Y-115067913D01*
X54403350Y-115067906D01*
X54317190Y-114952812D01*
X54317187Y-114952809D01*
X54202093Y-114866649D01*
X54202086Y-114866645D01*
X54067379Y-114816403D01*
X54067372Y-114816401D01*
X54007844Y-114810000D01*
X53410000Y-114810000D01*
X53410000Y-115794314D01*
X53405606Y-115789920D01*
X53314394Y-115737259D01*
X53212661Y-115710000D01*
X53107339Y-115710000D01*
X53005606Y-115737259D01*
X52914394Y-115789920D01*
X52910000Y-115794314D01*
X52910000Y-114810000D01*
X52312155Y-114810000D01*
X52252627Y-114816401D01*
X52252620Y-114816403D01*
X52117913Y-114866645D01*
X52117906Y-114866649D01*
X52002812Y-114952809D01*
X52002809Y-114952812D01*
X51916649Y-115067906D01*
X51916645Y-115067913D01*
X51866403Y-115202620D01*
X51866401Y-115202627D01*
X51860000Y-115262155D01*
X51860000Y-115860000D01*
X52844314Y-115860000D01*
X52839920Y-115864394D01*
X52787259Y-115955606D01*
X52760000Y-116057339D01*
X52760000Y-116162661D01*
X52787259Y-116264394D01*
X52839920Y-116355606D01*
X52844314Y-116360000D01*
X51860000Y-116360000D01*
X51860000Y-116957844D01*
X51866401Y-117017372D01*
X51866403Y-117017379D01*
X51916645Y-117152086D01*
X51916649Y-117152093D01*
X52002809Y-117267187D01*
X52002812Y-117267190D01*
X52117906Y-117353350D01*
X52117913Y-117353354D01*
X52252620Y-117403596D01*
X52290043Y-117407620D01*
X52354595Y-117434358D01*
X52394443Y-117491750D01*
X52396937Y-117561576D01*
X52361285Y-117621665D01*
X52349675Y-117631227D01*
X52312789Y-117658026D01*
X52312782Y-117658032D01*
X52168028Y-117802786D01*
X52047715Y-117968386D01*
X51954781Y-118150776D01*
X51891522Y-118345465D01*
X51859500Y-118547648D01*
X24000500Y-118547648D01*
X24000500Y-112897648D01*
X44699500Y-112897648D01*
X44699500Y-113102351D01*
X44731522Y-113304534D01*
X44794781Y-113499223D01*
X44887715Y-113681613D01*
X45008028Y-113847213D01*
X45152786Y-113991971D01*
X45307749Y-114104556D01*
X45318390Y-114112287D01*
X45434607Y-114171503D01*
X45500776Y-114205218D01*
X45500778Y-114205218D01*
X45500781Y-114205220D01*
X45605137Y-114239127D01*
X45695465Y-114268477D01*
X45748835Y-114276930D01*
X45897648Y-114300500D01*
X45897649Y-114300500D01*
X46102351Y-114300500D01*
X46102352Y-114300500D01*
X46304534Y-114268477D01*
X46499219Y-114205220D01*
X46681610Y-114112287D01*
X46774590Y-114044732D01*
X46847213Y-113991971D01*
X46847215Y-113991968D01*
X46847219Y-113991966D01*
X46991966Y-113847219D01*
X46991968Y-113847215D01*
X46991971Y-113847213D01*
X47044732Y-113774590D01*
X47112287Y-113681610D01*
X47205220Y-113499219D01*
X47213613Y-113473389D01*
X71999500Y-113473389D01*
X71999500Y-113646611D01*
X72026598Y-113817701D01*
X72080127Y-113982445D01*
X72158768Y-114136788D01*
X72260586Y-114276928D01*
X72383072Y-114399414D01*
X72523212Y-114501232D01*
X72677555Y-114579873D01*
X72842299Y-114633402D01*
X73013389Y-114660500D01*
X73013390Y-114660500D01*
X73986610Y-114660500D01*
X73986611Y-114660500D01*
X74157701Y-114633402D01*
X74322445Y-114579873D01*
X74476788Y-114501232D01*
X74616928Y-114399414D01*
X74739414Y-114276928D01*
X74841232Y-114136788D01*
X74919873Y-113982445D01*
X74973402Y-113817701D01*
X75000500Y-113646611D01*
X75000500Y-113473389D01*
X94859500Y-113473389D01*
X94859500Y-113646611D01*
X94886598Y-113817701D01*
X94940127Y-113982445D01*
X95018768Y-114136788D01*
X95120586Y-114276928D01*
X95243072Y-114399414D01*
X95383212Y-114501232D01*
X95537555Y-114579873D01*
X95702299Y-114633402D01*
X95873389Y-114660500D01*
X95873390Y-114660500D01*
X96846610Y-114660500D01*
X96846611Y-114660500D01*
X97017701Y-114633402D01*
X97182445Y-114579873D01*
X97336788Y-114501232D01*
X97476928Y-114399414D01*
X97599414Y-114276928D01*
X97701232Y-114136788D01*
X97779873Y-113982445D01*
X97833402Y-113817701D01*
X97860500Y-113646611D01*
X97860500Y-113473389D01*
X97833402Y-113302299D01*
X97779873Y-113137555D01*
X97701232Y-112983212D01*
X97599414Y-112843072D01*
X97476928Y-112720586D01*
X97336788Y-112618768D01*
X97182445Y-112540127D01*
X97017701Y-112486598D01*
X97017699Y-112486597D01*
X97017698Y-112486597D01*
X96886271Y-112465781D01*
X96846611Y-112459500D01*
X95873389Y-112459500D01*
X95833728Y-112465781D01*
X95702302Y-112486597D01*
X95537552Y-112540128D01*
X95383211Y-112618768D01*
X95303256Y-112676859D01*
X95243072Y-112720586D01*
X95243070Y-112720588D01*
X95243069Y-112720588D01*
X95120588Y-112843069D01*
X95120588Y-112843070D01*
X95120586Y-112843072D01*
X95080934Y-112897648D01*
X95018768Y-112983211D01*
X94940128Y-113137552D01*
X94886597Y-113302302D01*
X94866341Y-113430198D01*
X94859500Y-113473389D01*
X75000500Y-113473389D01*
X74973402Y-113302299D01*
X74919873Y-113137555D01*
X74841232Y-112983212D01*
X74739414Y-112843072D01*
X74616928Y-112720586D01*
X74476788Y-112618768D01*
X74322445Y-112540127D01*
X74157701Y-112486598D01*
X74157699Y-112486597D01*
X74157698Y-112486597D01*
X74026271Y-112465781D01*
X73986611Y-112459500D01*
X73013389Y-112459500D01*
X72973728Y-112465781D01*
X72842302Y-112486597D01*
X72677552Y-112540128D01*
X72523211Y-112618768D01*
X72443256Y-112676859D01*
X72383072Y-112720586D01*
X72383070Y-112720588D01*
X72383069Y-112720588D01*
X72260588Y-112843069D01*
X72260588Y-112843070D01*
X72260586Y-112843072D01*
X72220934Y-112897648D01*
X72158768Y-112983211D01*
X72080128Y-113137552D01*
X72026597Y-113302302D01*
X72006341Y-113430198D01*
X71999500Y-113473389D01*
X47213613Y-113473389D01*
X47268477Y-113304534D01*
X47300500Y-113102352D01*
X47300500Y-112897648D01*
X47268477Y-112695466D01*
X47205220Y-112500781D01*
X47205218Y-112500778D01*
X47205218Y-112500776D01*
X47171503Y-112434607D01*
X47112287Y-112318390D01*
X47104556Y-112307749D01*
X46991971Y-112152786D01*
X46847219Y-112008034D01*
X46790861Y-111967088D01*
X46748195Y-111911758D01*
X46742216Y-111842144D01*
X46774821Y-111780349D01*
X46824743Y-111749063D01*
X46869117Y-111734359D01*
X46869124Y-111734356D01*
X47018345Y-111642315D01*
X47142315Y-111518345D01*
X47234356Y-111369124D01*
X47234358Y-111369119D01*
X47289505Y-111202697D01*
X47289506Y-111202690D01*
X47299999Y-111099986D01*
X47300000Y-111099973D01*
X47300000Y-110933389D01*
X71999500Y-110933389D01*
X71999500Y-111106610D01*
X72014718Y-111202697D01*
X72026598Y-111277701D01*
X72080127Y-111442445D01*
X72158768Y-111596788D01*
X72260586Y-111736928D01*
X72383072Y-111859414D01*
X72523212Y-111961232D01*
X72677555Y-112039873D01*
X72842299Y-112093402D01*
X73013389Y-112120500D01*
X73013390Y-112120500D01*
X73986610Y-112120500D01*
X73986611Y-112120500D01*
X74157701Y-112093402D01*
X74322445Y-112039873D01*
X74476788Y-111961232D01*
X74616928Y-111859414D01*
X74739414Y-111736928D01*
X74841232Y-111596788D01*
X74919873Y-111442445D01*
X74973402Y-111277701D01*
X75000500Y-111106611D01*
X75000500Y-110933389D01*
X94859500Y-110933389D01*
X94859500Y-111106610D01*
X94874718Y-111202697D01*
X94886598Y-111277701D01*
X94940127Y-111442445D01*
X95018768Y-111596788D01*
X95120586Y-111736928D01*
X95243072Y-111859414D01*
X95383212Y-111961232D01*
X95537555Y-112039873D01*
X95702299Y-112093402D01*
X95873389Y-112120500D01*
X95873390Y-112120500D01*
X96846610Y-112120500D01*
X96846611Y-112120500D01*
X97017701Y-112093402D01*
X97182445Y-112039873D01*
X97336788Y-111961232D01*
X97476928Y-111859414D01*
X97599414Y-111736928D01*
X97701232Y-111596788D01*
X97779873Y-111442445D01*
X97833402Y-111277701D01*
X97860500Y-111106611D01*
X97860500Y-110933389D01*
X97833402Y-110762299D01*
X97779873Y-110597555D01*
X97701232Y-110443212D01*
X97599414Y-110303072D01*
X97476928Y-110180586D01*
X97336788Y-110078768D01*
X97182445Y-110000127D01*
X97017701Y-109946598D01*
X97017699Y-109946597D01*
X97017698Y-109946597D01*
X96886271Y-109925781D01*
X96846611Y-109919500D01*
X95873389Y-109919500D01*
X95833728Y-109925781D01*
X95702302Y-109946597D01*
X95537552Y-110000128D01*
X95383211Y-110078768D01*
X95316470Y-110127259D01*
X95243072Y-110180586D01*
X95243070Y-110180588D01*
X95243069Y-110180588D01*
X95120588Y-110303069D01*
X95120588Y-110303070D01*
X95120586Y-110303072D01*
X95089683Y-110345606D01*
X95018768Y-110443211D01*
X94940128Y-110597552D01*
X94886597Y-110762302D01*
X94859500Y-110933389D01*
X75000500Y-110933389D01*
X74973402Y-110762299D01*
X74919873Y-110597555D01*
X74841232Y-110443212D01*
X74739414Y-110303072D01*
X74616928Y-110180586D01*
X74476788Y-110078768D01*
X74322445Y-110000127D01*
X74157701Y-109946598D01*
X74157699Y-109946597D01*
X74157698Y-109946597D01*
X74026271Y-109925781D01*
X73986611Y-109919500D01*
X73013389Y-109919500D01*
X72973728Y-109925781D01*
X72842302Y-109946597D01*
X72677552Y-110000128D01*
X72523211Y-110078768D01*
X72456470Y-110127259D01*
X72383072Y-110180586D01*
X72383070Y-110180588D01*
X72383069Y-110180588D01*
X72260588Y-110303069D01*
X72260588Y-110303070D01*
X72260586Y-110303072D01*
X72229683Y-110345606D01*
X72158768Y-110443211D01*
X72080128Y-110597552D01*
X72026597Y-110762302D01*
X71999500Y-110933389D01*
X47300000Y-110933389D01*
X47300000Y-110750000D01*
X46315686Y-110750000D01*
X46320080Y-110745606D01*
X46372741Y-110654394D01*
X46400000Y-110552661D01*
X46400000Y-110447339D01*
X46372741Y-110345606D01*
X46320080Y-110254394D01*
X46315686Y-110250000D01*
X47299999Y-110250000D01*
X47299999Y-109900028D01*
X47299998Y-109900013D01*
X47289505Y-109797302D01*
X47234358Y-109630880D01*
X47234356Y-109630875D01*
X47142315Y-109481654D01*
X47018345Y-109357684D01*
X46869124Y-109265643D01*
X46869119Y-109265641D01*
X46702697Y-109210494D01*
X46702690Y-109210493D01*
X46599986Y-109200000D01*
X46250000Y-109200000D01*
X46250000Y-110184314D01*
X46245606Y-110179920D01*
X46154394Y-110127259D01*
X46052661Y-110100000D01*
X45947339Y-110100000D01*
X45845606Y-110127259D01*
X45754394Y-110179920D01*
X45750000Y-110184314D01*
X45750000Y-109200000D01*
X45400028Y-109200000D01*
X45400012Y-109200001D01*
X45297302Y-109210494D01*
X45130880Y-109265641D01*
X45130875Y-109265643D01*
X44981654Y-109357684D01*
X44857684Y-109481654D01*
X44765643Y-109630875D01*
X44765641Y-109630880D01*
X44710494Y-109797302D01*
X44710493Y-109797309D01*
X44700000Y-109900013D01*
X44700000Y-110250000D01*
X45684314Y-110250000D01*
X45679920Y-110254394D01*
X45627259Y-110345606D01*
X45600000Y-110447339D01*
X45600000Y-110552661D01*
X45627259Y-110654394D01*
X45679920Y-110745606D01*
X45684314Y-110750000D01*
X44700001Y-110750000D01*
X44700001Y-111099986D01*
X44710494Y-111202697D01*
X44765641Y-111369119D01*
X44765643Y-111369124D01*
X44857684Y-111518345D01*
X44981654Y-111642315D01*
X45130875Y-111734356D01*
X45130882Y-111734359D01*
X45175256Y-111749063D01*
X45232701Y-111788835D01*
X45259525Y-111853351D01*
X45247210Y-111922127D01*
X45209139Y-111967087D01*
X45152782Y-112008032D01*
X45008028Y-112152786D01*
X44887715Y-112318386D01*
X44794781Y-112500776D01*
X44731522Y-112695465D01*
X44699500Y-112897648D01*
X24000500Y-112897648D01*
X24000500Y-93982135D01*
X41149500Y-93982135D01*
X41149500Y-95777870D01*
X41149501Y-95777876D01*
X41155908Y-95837483D01*
X41206202Y-95972328D01*
X41206206Y-95972335D01*
X41292452Y-96087544D01*
X41292455Y-96087547D01*
X41407664Y-96173793D01*
X41407671Y-96173797D01*
X41539082Y-96222810D01*
X41595016Y-96264681D01*
X41619433Y-96330145D01*
X41604582Y-96398418D01*
X41583431Y-96426673D01*
X41469889Y-96540215D01*
X41344951Y-96712179D01*
X41248444Y-96901585D01*
X41182753Y-97103760D01*
X41174101Y-97158390D01*
X41149500Y-97313713D01*
X41149500Y-97526287D01*
X41182754Y-97736243D01*
X41185018Y-97743212D01*
X41248444Y-97938414D01*
X41344951Y-98127820D01*
X41469890Y-98299786D01*
X41620213Y-98450109D01*
X41792182Y-98575050D01*
X41800946Y-98579516D01*
X41851742Y-98627491D01*
X41868536Y-98695312D01*
X41845998Y-98761447D01*
X41800946Y-98800484D01*
X41792182Y-98804949D01*
X41620213Y-98929890D01*
X41469890Y-99080213D01*
X41344951Y-99252179D01*
X41248444Y-99441585D01*
X41182753Y-99643760D01*
X41174101Y-99698390D01*
X41149500Y-99853713D01*
X41149500Y-100066287D01*
X41182754Y-100276243D01*
X41185018Y-100283212D01*
X41248444Y-100478414D01*
X41344951Y-100667820D01*
X41469890Y-100839786D01*
X41620213Y-100990109D01*
X41792182Y-101115050D01*
X41800946Y-101119516D01*
X41851742Y-101167491D01*
X41868536Y-101235312D01*
X41845998Y-101301447D01*
X41800946Y-101340484D01*
X41792182Y-101344949D01*
X41620213Y-101469890D01*
X41469890Y-101620213D01*
X41344951Y-101792179D01*
X41248444Y-101981585D01*
X41182753Y-102183760D01*
X41174101Y-102238390D01*
X41149500Y-102393713D01*
X41149500Y-102606287D01*
X41182754Y-102816243D01*
X41185018Y-102823212D01*
X41248444Y-103018414D01*
X41344951Y-103207820D01*
X41469890Y-103379786D01*
X41620213Y-103530109D01*
X41792179Y-103655048D01*
X41792181Y-103655049D01*
X41792184Y-103655051D01*
X41981588Y-103751557D01*
X42183757Y-103817246D01*
X42393713Y-103850500D01*
X42393714Y-103850500D01*
X42606286Y-103850500D01*
X42606287Y-103850500D01*
X42816243Y-103817246D01*
X43018412Y-103751557D01*
X43207816Y-103655051D01*
X43294471Y-103592093D01*
X43379786Y-103530109D01*
X43379788Y-103530106D01*
X43379792Y-103530104D01*
X43530104Y-103379792D01*
X43530106Y-103379788D01*
X43530109Y-103379786D01*
X43655048Y-103207820D01*
X43655047Y-103207820D01*
X43655051Y-103207816D01*
X43751557Y-103018412D01*
X43817246Y-102816243D01*
X43850500Y-102606287D01*
X43850500Y-102393713D01*
X43817246Y-102183757D01*
X43751557Y-101981588D01*
X43655051Y-101792184D01*
X43655049Y-101792181D01*
X43655048Y-101792179D01*
X43530109Y-101620213D01*
X43379786Y-101469890D01*
X43207820Y-101344951D01*
X43207115Y-101344591D01*
X43199054Y-101340485D01*
X43148259Y-101292512D01*
X43131463Y-101224692D01*
X43153999Y-101158556D01*
X43199054Y-101119515D01*
X43207816Y-101115051D01*
X43281372Y-101061610D01*
X43379786Y-100990109D01*
X43379788Y-100990106D01*
X43379792Y-100990104D01*
X43530104Y-100839792D01*
X43530106Y-100839788D01*
X43530109Y-100839786D01*
X43655048Y-100667820D01*
X43655047Y-100667820D01*
X43655051Y-100667816D01*
X43751557Y-100478412D01*
X43817246Y-100276243D01*
X43850500Y-100066287D01*
X43850500Y-99853713D01*
X43817246Y-99643757D01*
X43751557Y-99441588D01*
X43655051Y-99252184D01*
X43655049Y-99252181D01*
X43655048Y-99252179D01*
X43530109Y-99080213D01*
X43379786Y-98929890D01*
X43207820Y-98804951D01*
X43207115Y-98804591D01*
X43199054Y-98800485D01*
X43148259Y-98752512D01*
X43131463Y-98684692D01*
X43153999Y-98618556D01*
X43199054Y-98579515D01*
X43207816Y-98575051D01*
X43281372Y-98521610D01*
X43379786Y-98450109D01*
X43379788Y-98450106D01*
X43379792Y-98450104D01*
X43530104Y-98299792D01*
X43530106Y-98299788D01*
X43530109Y-98299786D01*
X43655048Y-98127820D01*
X43655047Y-98127820D01*
X43655051Y-98127816D01*
X43751557Y-97938412D01*
X43817246Y-97736243D01*
X43850500Y-97526287D01*
X43850500Y-97313713D01*
X43817246Y-97103757D01*
X43751557Y-96901588D01*
X43655051Y-96712184D01*
X43655049Y-96712181D01*
X43655048Y-96712179D01*
X43530109Y-96540213D01*
X43416569Y-96426673D01*
X43383084Y-96365350D01*
X43388068Y-96295658D01*
X43429940Y-96239725D01*
X43460915Y-96222810D01*
X43592331Y-96173796D01*
X43707546Y-96087546D01*
X43793796Y-95972331D01*
X43844091Y-95837483D01*
X43850500Y-95777873D01*
X43850499Y-93982128D01*
X43844091Y-93922517D01*
X43842971Y-93919515D01*
X43793797Y-93787671D01*
X43793793Y-93787664D01*
X43707547Y-93672455D01*
X43707544Y-93672452D01*
X43592335Y-93586206D01*
X43592328Y-93586202D01*
X43457482Y-93535908D01*
X43457483Y-93535908D01*
X43397883Y-93529501D01*
X43397881Y-93529500D01*
X43397873Y-93529500D01*
X43397864Y-93529500D01*
X41602129Y-93529500D01*
X41602123Y-93529501D01*
X41542516Y-93535908D01*
X41407671Y-93586202D01*
X41407664Y-93586206D01*
X41292455Y-93672452D01*
X41292452Y-93672455D01*
X41206206Y-93787664D01*
X41206202Y-93787671D01*
X41155908Y-93922517D01*
X41149501Y-93982116D01*
X41149501Y-93982123D01*
X41149500Y-93982135D01*
X24000500Y-93982135D01*
X24000500Y-92657648D01*
X51999500Y-92657648D01*
X51999500Y-92862351D01*
X52031522Y-93064534D01*
X52094781Y-93259223D01*
X52187715Y-93441613D01*
X52308028Y-93607213D01*
X52452786Y-93751971D01*
X52607749Y-93864556D01*
X52618390Y-93872287D01*
X52709840Y-93918883D01*
X52711080Y-93919515D01*
X52761876Y-93967490D01*
X52778671Y-94035311D01*
X52756134Y-94101446D01*
X52711080Y-94140485D01*
X52618386Y-94187715D01*
X52452786Y-94308028D01*
X52308028Y-94452786D01*
X52187715Y-94618386D01*
X52094781Y-94800776D01*
X52031522Y-94995465D01*
X51999500Y-95197648D01*
X51999500Y-95402351D01*
X52031522Y-95604534D01*
X52094781Y-95799223D01*
X52158691Y-95924653D01*
X52182987Y-95972335D01*
X52187715Y-95981613D01*
X52308028Y-96147213D01*
X52452786Y-96291971D01*
X52553786Y-96365350D01*
X52618390Y-96412287D01*
X52709840Y-96458883D01*
X52711080Y-96459515D01*
X52761876Y-96507490D01*
X52778671Y-96575311D01*
X52756134Y-96641446D01*
X52711080Y-96680485D01*
X52618386Y-96727715D01*
X52452786Y-96848028D01*
X52308028Y-96992786D01*
X52187715Y-97158386D01*
X52094781Y-97340776D01*
X52031522Y-97535465D01*
X51999500Y-97737648D01*
X51999500Y-97942351D01*
X52031522Y-98144534D01*
X52094781Y-98339223D01*
X52187715Y-98521613D01*
X52308028Y-98687213D01*
X52452786Y-98831971D01*
X52587563Y-98929890D01*
X52618390Y-98952287D01*
X52709840Y-98998883D01*
X52711080Y-98999515D01*
X52761876Y-99047490D01*
X52778671Y-99115311D01*
X52756134Y-99181446D01*
X52711080Y-99220485D01*
X52618386Y-99267715D01*
X52452786Y-99388028D01*
X52308028Y-99532786D01*
X52187715Y-99698386D01*
X52094781Y-99880776D01*
X52031522Y-100075465D01*
X51999500Y-100277648D01*
X51999500Y-100482351D01*
X52031522Y-100684534D01*
X52094781Y-100879223D01*
X52187715Y-101061613D01*
X52308028Y-101227213D01*
X52452786Y-101371971D01*
X52587563Y-101469890D01*
X52618390Y-101492287D01*
X52684487Y-101525965D01*
X52711080Y-101539515D01*
X52761876Y-101587490D01*
X52778671Y-101655311D01*
X52756134Y-101721446D01*
X52711080Y-101760485D01*
X52618386Y-101807715D01*
X52452786Y-101928028D01*
X52308028Y-102072786D01*
X52187715Y-102238386D01*
X52094781Y-102420776D01*
X52031522Y-102615465D01*
X51999500Y-102817648D01*
X51999500Y-103022351D01*
X52031522Y-103224534D01*
X52094781Y-103419223D01*
X52129117Y-103486610D01*
X52182860Y-103592086D01*
X52187715Y-103601613D01*
X52308028Y-103767213D01*
X52452786Y-103911971D01*
X52553252Y-103984962D01*
X52618390Y-104032287D01*
X52690424Y-104068990D01*
X52711629Y-104079795D01*
X52762425Y-104127770D01*
X52779220Y-104195591D01*
X52756682Y-104261726D01*
X52711629Y-104300765D01*
X52618650Y-104348140D01*
X52453105Y-104468417D01*
X52453104Y-104468417D01*
X52308417Y-104613104D01*
X52308417Y-104613105D01*
X52188140Y-104778650D01*
X52095244Y-104960970D01*
X52032009Y-105155586D01*
X52023391Y-105210000D01*
X52984314Y-105210000D01*
X52979920Y-105214394D01*
X52927259Y-105305606D01*
X52900000Y-105407339D01*
X52900000Y-105512661D01*
X52927259Y-105614394D01*
X52979920Y-105705606D01*
X52984314Y-105710000D01*
X52023391Y-105710000D01*
X52032009Y-105764413D01*
X52095244Y-105959029D01*
X52188140Y-106141349D01*
X52308417Y-106306894D01*
X52308417Y-106306895D01*
X52453104Y-106451582D01*
X52618652Y-106571861D01*
X52711628Y-106619234D01*
X52762425Y-106667208D01*
X52779220Y-106735029D01*
X52756683Y-106801164D01*
X52711630Y-106840203D01*
X52618388Y-106887713D01*
X52452786Y-107008028D01*
X52308028Y-107152786D01*
X52187715Y-107318386D01*
X52094781Y-107500776D01*
X52031522Y-107695465D01*
X51999500Y-107897648D01*
X51999500Y-108102351D01*
X52031522Y-108304534D01*
X52094781Y-108499223D01*
X52187715Y-108681613D01*
X52308028Y-108847213D01*
X52452786Y-108991971D01*
X52607749Y-109104556D01*
X52618390Y-109112287D01*
X52734607Y-109171503D01*
X52800776Y-109205218D01*
X52800778Y-109205218D01*
X52800781Y-109205220D01*
X52905137Y-109239127D01*
X52995465Y-109268477D01*
X53096557Y-109284488D01*
X53197648Y-109300500D01*
X53197649Y-109300500D01*
X53402351Y-109300500D01*
X53402352Y-109300500D01*
X53604534Y-109268477D01*
X53799219Y-109205220D01*
X53981610Y-109112287D01*
X54074590Y-109044732D01*
X54147213Y-108991971D01*
X54147215Y-108991968D01*
X54147219Y-108991966D01*
X54291966Y-108847219D01*
X54291968Y-108847215D01*
X54291971Y-108847213D01*
X54371535Y-108737701D01*
X54412287Y-108681610D01*
X54505220Y-108499219D01*
X54568477Y-108304534D01*
X54600500Y-108102352D01*
X54600500Y-107897648D01*
X54579185Y-107763070D01*
X54568477Y-107695465D01*
X54539127Y-107605137D01*
X54505220Y-107500781D01*
X54505218Y-107500778D01*
X54505218Y-107500776D01*
X54443424Y-107379500D01*
X54412287Y-107318390D01*
X54404556Y-107307749D01*
X54291971Y-107152786D01*
X54147213Y-107008028D01*
X53981611Y-106887713D01*
X53888369Y-106840203D01*
X53837574Y-106792229D01*
X53820779Y-106724407D01*
X53843317Y-106658273D01*
X53888371Y-106619234D01*
X53981347Y-106571861D01*
X54146894Y-106451582D01*
X54146895Y-106451582D01*
X54291582Y-106306895D01*
X54291582Y-106306894D01*
X54411859Y-106141349D01*
X54504755Y-105959029D01*
X54567990Y-105764413D01*
X54576609Y-105710000D01*
X53615686Y-105710000D01*
X53620080Y-105705606D01*
X53672741Y-105614394D01*
X53700000Y-105512661D01*
X53700000Y-105407339D01*
X53672741Y-105305606D01*
X53620080Y-105214394D01*
X53615686Y-105210000D01*
X54576609Y-105210000D01*
X54567990Y-105155586D01*
X54504755Y-104960970D01*
X54411859Y-104778650D01*
X54291582Y-104613105D01*
X54291582Y-104613104D01*
X54146895Y-104468417D01*
X53981349Y-104348140D01*
X53888370Y-104300765D01*
X53837574Y-104252790D01*
X53820779Y-104184969D01*
X53843316Y-104118835D01*
X53888370Y-104079795D01*
X53888920Y-104079515D01*
X53981610Y-104032287D01*
X54046748Y-103984962D01*
X54147213Y-103911971D01*
X54147215Y-103911968D01*
X54147219Y-103911966D01*
X54291966Y-103767219D01*
X54291968Y-103767215D01*
X54291971Y-103767213D01*
X54371535Y-103657701D01*
X54412287Y-103601610D01*
X54505220Y-103419219D01*
X54568477Y-103224534D01*
X54600500Y-103022352D01*
X54600500Y-102817648D01*
X54579185Y-102683070D01*
X54568477Y-102615465D01*
X54539127Y-102525137D01*
X54505220Y-102420781D01*
X54505218Y-102420778D01*
X54505218Y-102420776D01*
X54443424Y-102299500D01*
X54412287Y-102238390D01*
X54404556Y-102227749D01*
X54291971Y-102072786D01*
X54147213Y-101928028D01*
X53981614Y-101807715D01*
X53968888Y-101801231D01*
X53888917Y-101760483D01*
X53838123Y-101712511D01*
X53821328Y-101644690D01*
X53843865Y-101578555D01*
X53888917Y-101539516D01*
X53981610Y-101492287D01*
X54012437Y-101469890D01*
X54147213Y-101371971D01*
X54147215Y-101371968D01*
X54147219Y-101371966D01*
X54291966Y-101227219D01*
X54291968Y-101227215D01*
X54291971Y-101227213D01*
X54370216Y-101119516D01*
X54412287Y-101061610D01*
X54505220Y-100879219D01*
X54568477Y-100684534D01*
X54600500Y-100482352D01*
X54600500Y-100277648D01*
X54579185Y-100143070D01*
X54568477Y-100075465D01*
X54539127Y-99985137D01*
X54505220Y-99880781D01*
X54505218Y-99880778D01*
X54505218Y-99880776D01*
X54443424Y-99759500D01*
X54412287Y-99698390D01*
X54404556Y-99687749D01*
X54291971Y-99532786D01*
X54147213Y-99388028D01*
X53981614Y-99267715D01*
X53968888Y-99261231D01*
X53888917Y-99220483D01*
X53838123Y-99172511D01*
X53821328Y-99104690D01*
X53843865Y-99038555D01*
X53888917Y-98999516D01*
X53981610Y-98952287D01*
X54012437Y-98929890D01*
X54147213Y-98831971D01*
X54147215Y-98831968D01*
X54147219Y-98831966D01*
X54291966Y-98687219D01*
X54291968Y-98687215D01*
X54291971Y-98687213D01*
X54370216Y-98579516D01*
X54412287Y-98521610D01*
X54505220Y-98339219D01*
X54568477Y-98144534D01*
X54600500Y-97942352D01*
X54600500Y-97737648D01*
X54579185Y-97603070D01*
X54568477Y-97535465D01*
X54539127Y-97445137D01*
X54505220Y-97340781D01*
X54505218Y-97340778D01*
X54505218Y-97340776D01*
X54443424Y-97219500D01*
X54412287Y-97158390D01*
X54404556Y-97147749D01*
X54291971Y-96992786D01*
X54147213Y-96848028D01*
X53981614Y-96727715D01*
X53968050Y-96720804D01*
X53888917Y-96680483D01*
X53838123Y-96632511D01*
X53821328Y-96564690D01*
X53843865Y-96498555D01*
X53888917Y-96459516D01*
X53981610Y-96412287D01*
X54094670Y-96330145D01*
X54147213Y-96291971D01*
X54147215Y-96291968D01*
X54147219Y-96291966D01*
X54291966Y-96147219D01*
X54291968Y-96147215D01*
X54291971Y-96147213D01*
X54380322Y-96025606D01*
X54412287Y-95981610D01*
X54505220Y-95799219D01*
X54568477Y-95604534D01*
X54600500Y-95402352D01*
X54600500Y-95197648D01*
X54590123Y-95132129D01*
X54568477Y-94995465D01*
X54505218Y-94800776D01*
X54457479Y-94707085D01*
X54412287Y-94618390D01*
X54404556Y-94607749D01*
X54291971Y-94452786D01*
X54147213Y-94308028D01*
X53981614Y-94187715D01*
X53975006Y-94184348D01*
X53888917Y-94140483D01*
X53838123Y-94092511D01*
X53821328Y-94024690D01*
X53843865Y-93958555D01*
X53888917Y-93919516D01*
X53981610Y-93872287D01*
X54098085Y-93787664D01*
X54147213Y-93751971D01*
X54147215Y-93751968D01*
X54147219Y-93751966D01*
X54291966Y-93607219D01*
X54291968Y-93607215D01*
X54291971Y-93607213D01*
X54348432Y-93529500D01*
X54412287Y-93441610D01*
X54505220Y-93259219D01*
X54568477Y-93064534D01*
X54600500Y-92862352D01*
X54600500Y-92657648D01*
X54568477Y-92455466D01*
X54505220Y-92260781D01*
X54505218Y-92260778D01*
X54505218Y-92260776D01*
X54471503Y-92194607D01*
X54412287Y-92078390D01*
X54404556Y-92067749D01*
X54291971Y-91912786D01*
X54147217Y-91768032D01*
X54147212Y-91768028D01*
X54110325Y-91741228D01*
X54067659Y-91685898D01*
X54061680Y-91616285D01*
X54094286Y-91554490D01*
X54155124Y-91520133D01*
X54169956Y-91517620D01*
X54207379Y-91513596D01*
X54342086Y-91463354D01*
X54342093Y-91463350D01*
X54457187Y-91377190D01*
X54457190Y-91377187D01*
X54543350Y-91262093D01*
X54543354Y-91262086D01*
X54593596Y-91127379D01*
X54593598Y-91127372D01*
X54599999Y-91067844D01*
X54600000Y-91067827D01*
X54600000Y-90470000D01*
X53615686Y-90470000D01*
X53620080Y-90465606D01*
X53672741Y-90374394D01*
X53700000Y-90272661D01*
X53700000Y-90167339D01*
X53686685Y-90117648D01*
X64699500Y-90117648D01*
X64699500Y-90322351D01*
X64731522Y-90524534D01*
X64794781Y-90719223D01*
X64887715Y-90901613D01*
X65008028Y-91067213D01*
X65152786Y-91211971D01*
X65307749Y-91324556D01*
X65318390Y-91332287D01*
X65406511Y-91377187D01*
X65411080Y-91379515D01*
X65461876Y-91427490D01*
X65478671Y-91495311D01*
X65456134Y-91561446D01*
X65411080Y-91600485D01*
X65318386Y-91647715D01*
X65152786Y-91768028D01*
X65008028Y-91912786D01*
X64887715Y-92078386D01*
X64794781Y-92260776D01*
X64731522Y-92455465D01*
X64699500Y-92657648D01*
X64699500Y-92862351D01*
X64731522Y-93064534D01*
X64794781Y-93259223D01*
X64887715Y-93441613D01*
X65008028Y-93607213D01*
X65152786Y-93751971D01*
X65307749Y-93864556D01*
X65318390Y-93872287D01*
X65409840Y-93918883D01*
X65411080Y-93919515D01*
X65461876Y-93967490D01*
X65478671Y-94035311D01*
X65456134Y-94101446D01*
X65411080Y-94140485D01*
X65318386Y-94187715D01*
X65152786Y-94308028D01*
X65008028Y-94452786D01*
X64887715Y-94618386D01*
X64794781Y-94800776D01*
X64731522Y-94995465D01*
X64699500Y-95197648D01*
X64699500Y-95402351D01*
X64731522Y-95604534D01*
X64794781Y-95799223D01*
X64858691Y-95924653D01*
X64882987Y-95972335D01*
X64887715Y-95981613D01*
X65008028Y-96147213D01*
X65152786Y-96291971D01*
X65253786Y-96365350D01*
X65318390Y-96412287D01*
X65409840Y-96458883D01*
X65411080Y-96459515D01*
X65461876Y-96507490D01*
X65478671Y-96575311D01*
X65456134Y-96641446D01*
X65411080Y-96680485D01*
X65318386Y-96727715D01*
X65152786Y-96848028D01*
X65008028Y-96992786D01*
X64887715Y-97158386D01*
X64794781Y-97340776D01*
X64731522Y-97535465D01*
X64699500Y-97737648D01*
X64699500Y-97942351D01*
X64731522Y-98144534D01*
X64794781Y-98339223D01*
X64887715Y-98521613D01*
X65008028Y-98687213D01*
X65152786Y-98831971D01*
X65287563Y-98929890D01*
X65318390Y-98952287D01*
X65409840Y-98998883D01*
X65411080Y-98999515D01*
X65461876Y-99047490D01*
X65478671Y-99115311D01*
X65456134Y-99181446D01*
X65411080Y-99220485D01*
X65318386Y-99267715D01*
X65152786Y-99388028D01*
X65008028Y-99532786D01*
X64887715Y-99698386D01*
X64794781Y-99880776D01*
X64731522Y-100075465D01*
X64699500Y-100277648D01*
X64699500Y-100482351D01*
X64731522Y-100684534D01*
X64794781Y-100879223D01*
X64887715Y-101061613D01*
X65008028Y-101227213D01*
X65152786Y-101371971D01*
X65287563Y-101469890D01*
X65318390Y-101492287D01*
X65384487Y-101525965D01*
X65411080Y-101539515D01*
X65461876Y-101587490D01*
X65478671Y-101655311D01*
X65456134Y-101721446D01*
X65411080Y-101760485D01*
X65318386Y-101807715D01*
X65152786Y-101928028D01*
X65008028Y-102072786D01*
X64887715Y-102238386D01*
X64794781Y-102420776D01*
X64731522Y-102615465D01*
X64699500Y-102817648D01*
X64699500Y-103022351D01*
X64731522Y-103224534D01*
X64794781Y-103419223D01*
X64829117Y-103486610D01*
X64882860Y-103592086D01*
X64887715Y-103601613D01*
X65008028Y-103767213D01*
X65152786Y-103911971D01*
X65253252Y-103984962D01*
X65318390Y-104032287D01*
X65409840Y-104078883D01*
X65411080Y-104079515D01*
X65461876Y-104127490D01*
X65478671Y-104195311D01*
X65456134Y-104261446D01*
X65411080Y-104300485D01*
X65318386Y-104347715D01*
X65152786Y-104468028D01*
X65008028Y-104612786D01*
X64887715Y-104778386D01*
X64794781Y-104960776D01*
X64731522Y-105155465D01*
X64699500Y-105357648D01*
X64699500Y-105562351D01*
X64731522Y-105764534D01*
X64794781Y-105959223D01*
X64887715Y-106141613D01*
X65008028Y-106307213D01*
X65152786Y-106451971D01*
X65287563Y-106549890D01*
X65318390Y-106572287D01*
X65409840Y-106618883D01*
X65411080Y-106619515D01*
X65461876Y-106667490D01*
X65478671Y-106735311D01*
X65456134Y-106801446D01*
X65411080Y-106840485D01*
X65318386Y-106887715D01*
X65152786Y-107008028D01*
X65008028Y-107152786D01*
X64887715Y-107318386D01*
X64794781Y-107500776D01*
X64731522Y-107695465D01*
X64699500Y-107897648D01*
X64699500Y-108102351D01*
X64731522Y-108304534D01*
X64794781Y-108499223D01*
X64887715Y-108681613D01*
X65008028Y-108847213D01*
X65152786Y-108991971D01*
X65307749Y-109104556D01*
X65318390Y-109112287D01*
X65434607Y-109171503D01*
X65500776Y-109205218D01*
X65500778Y-109205218D01*
X65500781Y-109205220D01*
X65605137Y-109239127D01*
X65695465Y-109268477D01*
X65796557Y-109284488D01*
X65897648Y-109300500D01*
X65897649Y-109300500D01*
X66102351Y-109300500D01*
X66102352Y-109300500D01*
X66304534Y-109268477D01*
X66499219Y-109205220D01*
X66681610Y-109112287D01*
X66774590Y-109044732D01*
X66847213Y-108991971D01*
X66847215Y-108991968D01*
X66847219Y-108991966D01*
X66991966Y-108847219D01*
X66991968Y-108847215D01*
X66991971Y-108847213D01*
X67071535Y-108737701D01*
X67112287Y-108681610D01*
X67205220Y-108499219D01*
X67239606Y-108393389D01*
X71999500Y-108393389D01*
X71999500Y-108566610D01*
X72026177Y-108735048D01*
X72026598Y-108737701D01*
X72080127Y-108902445D01*
X72158768Y-109056788D01*
X72260586Y-109196928D01*
X72383072Y-109319414D01*
X72523212Y-109421232D01*
X72677555Y-109499873D01*
X72842299Y-109553402D01*
X73013389Y-109580500D01*
X73013390Y-109580500D01*
X73986610Y-109580500D01*
X73986611Y-109580500D01*
X74157701Y-109553402D01*
X74322445Y-109499873D01*
X74476788Y-109421232D01*
X74616928Y-109319414D01*
X74739414Y-109196928D01*
X74841232Y-109056788D01*
X74919873Y-108902445D01*
X74973402Y-108737701D01*
X75000500Y-108566611D01*
X75000500Y-108393389D01*
X94859500Y-108393389D01*
X94859500Y-108566610D01*
X94886177Y-108735048D01*
X94886598Y-108737701D01*
X94940127Y-108902445D01*
X95018768Y-109056788D01*
X95120586Y-109196928D01*
X95243072Y-109319414D01*
X95383212Y-109421232D01*
X95537555Y-109499873D01*
X95702299Y-109553402D01*
X95873389Y-109580500D01*
X95873390Y-109580500D01*
X96846610Y-109580500D01*
X96846611Y-109580500D01*
X97017701Y-109553402D01*
X97182445Y-109499873D01*
X97336788Y-109421232D01*
X97476928Y-109319414D01*
X97599414Y-109196928D01*
X97701232Y-109056788D01*
X97779873Y-108902445D01*
X97833402Y-108737701D01*
X97860500Y-108566611D01*
X97860500Y-108393389D01*
X97833402Y-108222299D01*
X97779873Y-108057555D01*
X97701232Y-107903212D01*
X97599414Y-107763072D01*
X97476928Y-107640586D01*
X97336788Y-107538768D01*
X97182445Y-107460127D01*
X97017701Y-107406598D01*
X97017699Y-107406597D01*
X97017698Y-107406597D01*
X96886271Y-107385781D01*
X96846611Y-107379500D01*
X95873389Y-107379500D01*
X95833728Y-107385781D01*
X95702302Y-107406597D01*
X95537552Y-107460128D01*
X95383211Y-107538768D01*
X95303256Y-107596859D01*
X95243072Y-107640586D01*
X95243070Y-107640588D01*
X95243069Y-107640588D01*
X95120588Y-107763069D01*
X95120588Y-107763070D01*
X95120586Y-107763072D01*
X95076859Y-107823256D01*
X95018768Y-107903211D01*
X94940128Y-108057552D01*
X94886597Y-108222302D01*
X94859500Y-108393389D01*
X75000500Y-108393389D01*
X74973402Y-108222299D01*
X74919873Y-108057555D01*
X74841232Y-107903212D01*
X74739414Y-107763072D01*
X74616928Y-107640586D01*
X74476788Y-107538768D01*
X74322445Y-107460127D01*
X74157701Y-107406598D01*
X74157699Y-107406597D01*
X74157698Y-107406597D01*
X74026271Y-107385781D01*
X73986611Y-107379500D01*
X73013389Y-107379500D01*
X72973728Y-107385781D01*
X72842302Y-107406597D01*
X72677552Y-107460128D01*
X72523211Y-107538768D01*
X72443256Y-107596859D01*
X72383072Y-107640586D01*
X72383070Y-107640588D01*
X72383069Y-107640588D01*
X72260588Y-107763069D01*
X72260588Y-107763070D01*
X72260586Y-107763072D01*
X72216859Y-107823256D01*
X72158768Y-107903211D01*
X72080128Y-108057552D01*
X72026597Y-108222302D01*
X71999500Y-108393389D01*
X67239606Y-108393389D01*
X67268477Y-108304534D01*
X67300500Y-108102352D01*
X67300500Y-107897648D01*
X67279185Y-107763070D01*
X67268477Y-107695465D01*
X67239127Y-107605137D01*
X67205220Y-107500781D01*
X67205218Y-107500778D01*
X67205218Y-107500776D01*
X67143424Y-107379500D01*
X67112287Y-107318390D01*
X67104556Y-107307749D01*
X66991971Y-107152786D01*
X66847213Y-107008028D01*
X66681614Y-106887715D01*
X66668888Y-106881231D01*
X66588917Y-106840483D01*
X66538123Y-106792511D01*
X66521328Y-106724690D01*
X66543865Y-106658555D01*
X66588917Y-106619516D01*
X66681610Y-106572287D01*
X66712437Y-106549890D01*
X66847213Y-106451971D01*
X66847215Y-106451968D01*
X66847219Y-106451966D01*
X66991966Y-106307219D01*
X66991968Y-106307215D01*
X66991971Y-106307213D01*
X67070216Y-106199516D01*
X67112287Y-106141610D01*
X67205220Y-105959219D01*
X67239606Y-105853389D01*
X71999500Y-105853389D01*
X71999500Y-106026610D01*
X72026177Y-106195048D01*
X72026598Y-106197701D01*
X72080127Y-106362445D01*
X72158768Y-106516788D01*
X72260586Y-106656928D01*
X72383072Y-106779414D01*
X72523212Y-106881232D01*
X72677555Y-106959873D01*
X72842299Y-107013402D01*
X73013389Y-107040500D01*
X73013390Y-107040500D01*
X73986610Y-107040500D01*
X73986611Y-107040500D01*
X74157701Y-107013402D01*
X74322445Y-106959873D01*
X74476788Y-106881232D01*
X74616928Y-106779414D01*
X74739414Y-106656928D01*
X74841232Y-106516788D01*
X74919873Y-106362445D01*
X74973402Y-106197701D01*
X75000500Y-106026611D01*
X75000500Y-105853389D01*
X94859500Y-105853389D01*
X94859500Y-106026610D01*
X94886177Y-106195048D01*
X94886598Y-106197701D01*
X94940127Y-106362445D01*
X95018768Y-106516788D01*
X95120586Y-106656928D01*
X95243072Y-106779414D01*
X95383212Y-106881232D01*
X95537555Y-106959873D01*
X95702299Y-107013402D01*
X95873389Y-107040500D01*
X95873390Y-107040500D01*
X96846610Y-107040500D01*
X96846611Y-107040500D01*
X97017701Y-107013402D01*
X97182445Y-106959873D01*
X97336788Y-106881232D01*
X97476928Y-106779414D01*
X97599414Y-106656928D01*
X97701232Y-106516788D01*
X97779873Y-106362445D01*
X97833402Y-106197701D01*
X97860500Y-106026611D01*
X97860500Y-105853389D01*
X97833402Y-105682299D01*
X97779873Y-105517555D01*
X97701232Y-105363212D01*
X97599414Y-105223072D01*
X97476928Y-105100586D01*
X97336788Y-104998768D01*
X97209109Y-104933713D01*
X107649500Y-104933713D01*
X107649500Y-105146287D01*
X107682754Y-105356243D01*
X107685018Y-105363212D01*
X107748444Y-105558414D01*
X107844951Y-105747820D01*
X107969890Y-105919786D01*
X108120213Y-106070109D01*
X108292182Y-106195050D01*
X108300946Y-106199516D01*
X108351742Y-106247491D01*
X108368536Y-106315312D01*
X108345998Y-106381447D01*
X108300946Y-106420484D01*
X108292182Y-106424949D01*
X108120213Y-106549890D01*
X107969890Y-106700213D01*
X107844951Y-106872179D01*
X107748444Y-107061585D01*
X107682753Y-107263760D01*
X107674101Y-107318390D01*
X107649500Y-107473713D01*
X107649500Y-107686287D01*
X107682754Y-107896243D01*
X107685018Y-107903212D01*
X107748444Y-108098414D01*
X107844951Y-108287820D01*
X107969890Y-108459786D01*
X108120213Y-108610109D01*
X108292179Y-108735048D01*
X108292181Y-108735049D01*
X108292184Y-108735051D01*
X108481588Y-108831557D01*
X108683757Y-108897246D01*
X108893713Y-108930500D01*
X108893714Y-108930500D01*
X109106286Y-108930500D01*
X109106287Y-108930500D01*
X109316243Y-108897246D01*
X109518412Y-108831557D01*
X109707816Y-108735051D01*
X109781372Y-108681610D01*
X109879786Y-108610109D01*
X109879788Y-108610106D01*
X109879792Y-108610104D01*
X110030104Y-108459792D01*
X110030106Y-108459788D01*
X110030109Y-108459786D01*
X110155048Y-108287820D01*
X110155047Y-108287820D01*
X110155051Y-108287816D01*
X110251557Y-108098412D01*
X110317246Y-107896243D01*
X110350500Y-107686287D01*
X110350500Y-107473713D01*
X110317246Y-107263757D01*
X110251557Y-107061588D01*
X110155051Y-106872184D01*
X110155049Y-106872181D01*
X110155048Y-106872179D01*
X110030109Y-106700213D01*
X109879786Y-106549890D01*
X109707820Y-106424951D01*
X109707115Y-106424591D01*
X109699054Y-106420485D01*
X109648259Y-106372512D01*
X109631463Y-106304692D01*
X109653999Y-106238556D01*
X109699054Y-106199515D01*
X109707816Y-106195051D01*
X109781731Y-106141349D01*
X109879786Y-106070109D01*
X109879788Y-106070106D01*
X109879792Y-106070104D01*
X110030104Y-105919792D01*
X110030106Y-105919788D01*
X110030109Y-105919786D01*
X110155048Y-105747820D01*
X110155047Y-105747820D01*
X110155051Y-105747816D01*
X110251557Y-105558412D01*
X110317246Y-105356243D01*
X110350500Y-105146287D01*
X110350500Y-104933713D01*
X110317246Y-104723757D01*
X110251557Y-104521588D01*
X110155051Y-104332184D01*
X110155049Y-104332181D01*
X110155048Y-104332179D01*
X110030109Y-104160213D01*
X109916181Y-104046285D01*
X109882696Y-103984962D01*
X109887680Y-103915270D01*
X109929552Y-103859337D01*
X109960529Y-103842422D01*
X110092086Y-103793354D01*
X110092093Y-103793350D01*
X110207187Y-103707190D01*
X110207190Y-103707187D01*
X110293350Y-103592093D01*
X110293354Y-103592086D01*
X110343596Y-103457379D01*
X110343598Y-103457372D01*
X110349999Y-103397844D01*
X110350000Y-103397827D01*
X110350000Y-102750000D01*
X109433012Y-102750000D01*
X109465925Y-102692993D01*
X109500000Y-102565826D01*
X109500000Y-102434174D01*
X109465925Y-102307007D01*
X109433012Y-102250000D01*
X110350000Y-102250000D01*
X110350000Y-101602172D01*
X110349999Y-101602155D01*
X110343598Y-101542627D01*
X110343596Y-101542620D01*
X110293354Y-101407913D01*
X110293350Y-101407906D01*
X110207190Y-101292812D01*
X110207187Y-101292809D01*
X110092093Y-101206649D01*
X110092086Y-101206645D01*
X109957379Y-101156403D01*
X109957372Y-101156401D01*
X109897844Y-101150000D01*
X109250000Y-101150000D01*
X109250000Y-102066988D01*
X109192993Y-102034075D01*
X109065826Y-102000000D01*
X108934174Y-102000000D01*
X108807007Y-102034075D01*
X108750000Y-102066988D01*
X108750000Y-101150000D01*
X108102155Y-101150000D01*
X108042627Y-101156401D01*
X108042620Y-101156403D01*
X107907913Y-101206645D01*
X107907906Y-101206649D01*
X107792812Y-101292809D01*
X107792809Y-101292812D01*
X107706649Y-101407906D01*
X107706645Y-101407913D01*
X107656403Y-101542620D01*
X107656401Y-101542627D01*
X107650000Y-101602155D01*
X107650000Y-102250000D01*
X108566988Y-102250000D01*
X108534075Y-102307007D01*
X108500000Y-102434174D01*
X108500000Y-102565826D01*
X108534075Y-102692993D01*
X108566988Y-102750000D01*
X107650000Y-102750000D01*
X107650000Y-103397844D01*
X107656401Y-103457372D01*
X107656403Y-103457379D01*
X107706645Y-103592086D01*
X107706649Y-103592093D01*
X107792809Y-103707187D01*
X107792812Y-103707190D01*
X107907906Y-103793350D01*
X107907913Y-103793354D01*
X108039470Y-103842422D01*
X108095404Y-103884293D01*
X108119821Y-103949758D01*
X108104969Y-104018031D01*
X108083819Y-104046285D01*
X107969889Y-104160215D01*
X107844951Y-104332179D01*
X107748444Y-104521585D01*
X107682753Y-104723760D01*
X107664422Y-104839500D01*
X107649500Y-104933713D01*
X97209109Y-104933713D01*
X97182445Y-104920127D01*
X97017701Y-104866598D01*
X97017699Y-104866597D01*
X97017698Y-104866597D01*
X96886271Y-104845781D01*
X96846611Y-104839500D01*
X95873389Y-104839500D01*
X95833728Y-104845781D01*
X95702302Y-104866597D01*
X95537552Y-104920128D01*
X95383211Y-104998768D01*
X95303256Y-105056859D01*
X95243072Y-105100586D01*
X95243070Y-105100588D01*
X95243069Y-105100588D01*
X95120588Y-105223069D01*
X95120588Y-105223070D01*
X95120586Y-105223072D01*
X95076859Y-105283256D01*
X95018768Y-105363211D01*
X94940128Y-105517552D01*
X94886597Y-105682302D01*
X94859500Y-105853389D01*
X75000500Y-105853389D01*
X74973402Y-105682299D01*
X74919873Y-105517555D01*
X74841232Y-105363212D01*
X74739414Y-105223072D01*
X74616928Y-105100586D01*
X74476788Y-104998768D01*
X74322445Y-104920127D01*
X74157701Y-104866598D01*
X74157699Y-104866597D01*
X74157698Y-104866597D01*
X74026271Y-104845781D01*
X73986611Y-104839500D01*
X73013389Y-104839500D01*
X72973728Y-104845781D01*
X72842302Y-104866597D01*
X72677552Y-104920128D01*
X72523211Y-104998768D01*
X72443256Y-105056859D01*
X72383072Y-105100586D01*
X72383070Y-105100588D01*
X72383069Y-105100588D01*
X72260588Y-105223069D01*
X72260588Y-105223070D01*
X72260586Y-105223072D01*
X72216859Y-105283256D01*
X72158768Y-105363211D01*
X72080128Y-105517552D01*
X72026597Y-105682302D01*
X71999500Y-105853389D01*
X67239606Y-105853389D01*
X67268477Y-105764534D01*
X67300500Y-105562352D01*
X67300500Y-105357648D01*
X67279185Y-105223070D01*
X67268477Y-105155465D01*
X67227437Y-105029159D01*
X67205220Y-104960781D01*
X67205218Y-104960778D01*
X67205218Y-104960776D01*
X67112419Y-104778650D01*
X67112287Y-104778390D01*
X67104556Y-104767749D01*
X66991971Y-104612786D01*
X66847213Y-104468028D01*
X66681614Y-104347715D01*
X66668888Y-104341231D01*
X66588917Y-104300483D01*
X66538123Y-104252511D01*
X66521328Y-104184690D01*
X66543865Y-104118555D01*
X66588917Y-104079516D01*
X66681610Y-104032287D01*
X66746748Y-103984962D01*
X66847213Y-103911971D01*
X66847215Y-103911968D01*
X66847219Y-103911966D01*
X66991966Y-103767219D01*
X66991968Y-103767215D01*
X66991971Y-103767213D01*
X67071535Y-103657701D01*
X67112287Y-103601610D01*
X67205220Y-103419219D01*
X67239606Y-103313389D01*
X71999500Y-103313389D01*
X71999500Y-103486610D01*
X72026177Y-103655048D01*
X72026598Y-103657701D01*
X72080127Y-103822445D01*
X72158768Y-103976788D01*
X72260586Y-104116928D01*
X72383072Y-104239414D01*
X72523212Y-104341232D01*
X72677555Y-104419873D01*
X72842299Y-104473402D01*
X73013389Y-104500500D01*
X73013390Y-104500500D01*
X73986610Y-104500500D01*
X73986611Y-104500500D01*
X74157701Y-104473402D01*
X74322445Y-104419873D01*
X74476788Y-104341232D01*
X74616928Y-104239414D01*
X74739414Y-104116928D01*
X74841232Y-103976788D01*
X74919873Y-103822445D01*
X74973402Y-103657701D01*
X75000500Y-103486611D01*
X75000500Y-103313389D01*
X94859500Y-103313389D01*
X94859500Y-103486610D01*
X94886177Y-103655048D01*
X94886598Y-103657701D01*
X94940127Y-103822445D01*
X95018768Y-103976788D01*
X95120586Y-104116928D01*
X95243072Y-104239414D01*
X95383212Y-104341232D01*
X95537555Y-104419873D01*
X95702299Y-104473402D01*
X95873389Y-104500500D01*
X95873390Y-104500500D01*
X96846610Y-104500500D01*
X96846611Y-104500500D01*
X97017701Y-104473402D01*
X97182445Y-104419873D01*
X97336788Y-104341232D01*
X97476928Y-104239414D01*
X97599414Y-104116928D01*
X97701232Y-103976788D01*
X97779873Y-103822445D01*
X97833402Y-103657701D01*
X97860500Y-103486611D01*
X97860500Y-103313389D01*
X97833402Y-103142299D01*
X97779873Y-102977555D01*
X97701232Y-102823212D01*
X97599414Y-102683072D01*
X97476928Y-102560586D01*
X97336788Y-102458768D01*
X97182445Y-102380127D01*
X97017701Y-102326598D01*
X97017699Y-102326597D01*
X97017698Y-102326597D01*
X96886271Y-102305781D01*
X96846611Y-102299500D01*
X95873389Y-102299500D01*
X95833728Y-102305781D01*
X95702302Y-102326597D01*
X95537552Y-102380128D01*
X95383211Y-102458768D01*
X95303256Y-102516859D01*
X95243072Y-102560586D01*
X95243070Y-102560588D01*
X95243069Y-102560588D01*
X95120588Y-102683069D01*
X95120588Y-102683070D01*
X95120586Y-102683072D01*
X95113378Y-102692993D01*
X95018768Y-102823211D01*
X94940128Y-102977552D01*
X94886597Y-103142302D01*
X94859500Y-103313389D01*
X75000500Y-103313389D01*
X74973402Y-103142299D01*
X74919873Y-102977555D01*
X74841232Y-102823212D01*
X74739414Y-102683072D01*
X74616928Y-102560586D01*
X74476788Y-102458768D01*
X74322445Y-102380127D01*
X74157701Y-102326598D01*
X74157699Y-102326597D01*
X74157698Y-102326597D01*
X74026271Y-102305781D01*
X73986611Y-102299500D01*
X73013389Y-102299500D01*
X72973728Y-102305781D01*
X72842302Y-102326597D01*
X72677552Y-102380128D01*
X72523211Y-102458768D01*
X72443256Y-102516859D01*
X72383072Y-102560586D01*
X72383070Y-102560588D01*
X72383069Y-102560588D01*
X72260588Y-102683069D01*
X72260588Y-102683070D01*
X72260586Y-102683072D01*
X72253378Y-102692993D01*
X72158768Y-102823211D01*
X72080128Y-102977552D01*
X72026597Y-103142302D01*
X71999500Y-103313389D01*
X67239606Y-103313389D01*
X67268477Y-103224534D01*
X67300500Y-103022352D01*
X67300500Y-102817648D01*
X67279185Y-102683070D01*
X67268477Y-102615465D01*
X67239127Y-102525137D01*
X67205220Y-102420781D01*
X67205218Y-102420778D01*
X67205218Y-102420776D01*
X67143424Y-102299500D01*
X67112287Y-102238390D01*
X67104556Y-102227749D01*
X66991971Y-102072786D01*
X66847213Y-101928028D01*
X66681614Y-101807715D01*
X66668888Y-101801231D01*
X66588917Y-101760483D01*
X66538123Y-101712511D01*
X66521328Y-101644690D01*
X66543865Y-101578555D01*
X66588917Y-101539516D01*
X66681610Y-101492287D01*
X66712437Y-101469890D01*
X66847213Y-101371971D01*
X66847215Y-101371968D01*
X66847219Y-101371966D01*
X66991966Y-101227219D01*
X66991968Y-101227215D01*
X66991971Y-101227213D01*
X67070216Y-101119516D01*
X67112287Y-101061610D01*
X67205220Y-100879219D01*
X67239606Y-100773389D01*
X71999500Y-100773389D01*
X71999500Y-100946610D01*
X72026177Y-101115048D01*
X72026598Y-101117701D01*
X72080127Y-101282445D01*
X72158768Y-101436788D01*
X72260586Y-101576928D01*
X72383072Y-101699414D01*
X72523212Y-101801232D01*
X72677555Y-101879873D01*
X72842299Y-101933402D01*
X73013389Y-101960500D01*
X73013390Y-101960500D01*
X73986610Y-101960500D01*
X73986611Y-101960500D01*
X74157701Y-101933402D01*
X74322445Y-101879873D01*
X74476788Y-101801232D01*
X74616928Y-101699414D01*
X74739414Y-101576928D01*
X74841232Y-101436788D01*
X74919873Y-101282445D01*
X74973402Y-101117701D01*
X75000500Y-100946611D01*
X75000500Y-100773389D01*
X94859500Y-100773389D01*
X94859500Y-100946610D01*
X94886177Y-101115048D01*
X94886598Y-101117701D01*
X94940127Y-101282445D01*
X95018768Y-101436788D01*
X95120586Y-101576928D01*
X95243072Y-101699414D01*
X95383212Y-101801232D01*
X95537555Y-101879873D01*
X95702299Y-101933402D01*
X95873389Y-101960500D01*
X95873390Y-101960500D01*
X96846610Y-101960500D01*
X96846611Y-101960500D01*
X97017701Y-101933402D01*
X97182445Y-101879873D01*
X97336788Y-101801232D01*
X97476928Y-101699414D01*
X97599414Y-101576928D01*
X97701232Y-101436788D01*
X97779873Y-101282445D01*
X97833402Y-101117701D01*
X97860500Y-100946611D01*
X97860500Y-100773389D01*
X97833402Y-100602299D01*
X97779873Y-100437555D01*
X97701232Y-100283212D01*
X97599414Y-100143072D01*
X97476928Y-100020586D01*
X97336788Y-99918768D01*
X97182445Y-99840127D01*
X97017701Y-99786598D01*
X97017699Y-99786597D01*
X97017698Y-99786597D01*
X96886271Y-99765781D01*
X96846611Y-99759500D01*
X95873389Y-99759500D01*
X95833728Y-99765781D01*
X95702302Y-99786597D01*
X95537552Y-99840128D01*
X95383211Y-99918768D01*
X95303256Y-99976859D01*
X95243072Y-100020586D01*
X95243070Y-100020588D01*
X95243069Y-100020588D01*
X95120588Y-100143069D01*
X95120588Y-100143070D01*
X95120586Y-100143072D01*
X95076859Y-100203256D01*
X95018768Y-100283211D01*
X94940128Y-100437552D01*
X94886597Y-100602302D01*
X94859500Y-100773389D01*
X75000500Y-100773389D01*
X74973402Y-100602299D01*
X74919873Y-100437555D01*
X74841232Y-100283212D01*
X74739414Y-100143072D01*
X74616928Y-100020586D01*
X74476788Y-99918768D01*
X74322445Y-99840127D01*
X74157701Y-99786598D01*
X74157699Y-99786597D01*
X74157698Y-99786597D01*
X74026271Y-99765781D01*
X73986611Y-99759500D01*
X73013389Y-99759500D01*
X72973728Y-99765781D01*
X72842302Y-99786597D01*
X72677552Y-99840128D01*
X72523211Y-99918768D01*
X72443256Y-99976859D01*
X72383072Y-100020586D01*
X72383070Y-100020588D01*
X72383069Y-100020588D01*
X72260588Y-100143069D01*
X72260588Y-100143070D01*
X72260586Y-100143072D01*
X72216859Y-100203256D01*
X72158768Y-100283211D01*
X72080128Y-100437552D01*
X72026597Y-100602302D01*
X71999500Y-100773389D01*
X67239606Y-100773389D01*
X67268477Y-100684534D01*
X67300500Y-100482352D01*
X67300500Y-100277648D01*
X67279185Y-100143070D01*
X67268477Y-100075465D01*
X67239127Y-99985137D01*
X67205220Y-99880781D01*
X67205218Y-99880778D01*
X67205218Y-99880776D01*
X67143424Y-99759500D01*
X67112287Y-99698390D01*
X67104556Y-99687749D01*
X66991971Y-99532786D01*
X66847213Y-99388028D01*
X66681614Y-99267715D01*
X66668888Y-99261231D01*
X66588917Y-99220483D01*
X66538123Y-99172511D01*
X66521328Y-99104690D01*
X66543865Y-99038555D01*
X66588917Y-98999516D01*
X66681610Y-98952287D01*
X66712437Y-98929890D01*
X66847213Y-98831971D01*
X66847215Y-98831968D01*
X66847219Y-98831966D01*
X66991966Y-98687219D01*
X66991968Y-98687215D01*
X66991971Y-98687213D01*
X67070216Y-98579516D01*
X67112287Y-98521610D01*
X67205220Y-98339219D01*
X67239606Y-98233389D01*
X71999500Y-98233389D01*
X71999500Y-98406610D01*
X72026177Y-98575048D01*
X72026598Y-98577701D01*
X72080127Y-98742445D01*
X72158768Y-98896788D01*
X72260586Y-99036928D01*
X72383072Y-99159414D01*
X72523212Y-99261232D01*
X72677555Y-99339873D01*
X72842299Y-99393402D01*
X73013389Y-99420500D01*
X73013390Y-99420500D01*
X73986610Y-99420500D01*
X73986611Y-99420500D01*
X74157701Y-99393402D01*
X74322445Y-99339873D01*
X74476788Y-99261232D01*
X74616928Y-99159414D01*
X74739414Y-99036928D01*
X74841232Y-98896788D01*
X74919873Y-98742445D01*
X74973402Y-98577701D01*
X75000500Y-98406611D01*
X75000500Y-98233389D01*
X94859500Y-98233389D01*
X94859500Y-98406610D01*
X94886177Y-98575048D01*
X94886598Y-98577701D01*
X94940127Y-98742445D01*
X95018768Y-98896788D01*
X95120586Y-99036928D01*
X95243072Y-99159414D01*
X95383212Y-99261232D01*
X95537555Y-99339873D01*
X95702299Y-99393402D01*
X95873389Y-99420500D01*
X95873390Y-99420500D01*
X96846610Y-99420500D01*
X96846611Y-99420500D01*
X97017701Y-99393402D01*
X97182445Y-99339873D01*
X97336788Y-99261232D01*
X97476928Y-99159414D01*
X97599414Y-99036928D01*
X97701232Y-98896788D01*
X97779873Y-98742445D01*
X97833402Y-98577701D01*
X97860500Y-98406611D01*
X97860500Y-98233389D01*
X97833402Y-98062299D01*
X97779873Y-97897555D01*
X97701232Y-97743212D01*
X97599414Y-97603072D01*
X97476928Y-97480586D01*
X97336788Y-97378768D01*
X97182445Y-97300127D01*
X97017701Y-97246598D01*
X97017699Y-97246597D01*
X97017698Y-97246597D01*
X96886271Y-97225781D01*
X96846611Y-97219500D01*
X95873389Y-97219500D01*
X95833728Y-97225781D01*
X95702302Y-97246597D01*
X95537552Y-97300128D01*
X95383211Y-97378768D01*
X95303256Y-97436859D01*
X95243072Y-97480586D01*
X95243070Y-97480588D01*
X95243069Y-97480588D01*
X95120588Y-97603069D01*
X95120588Y-97603070D01*
X95120586Y-97603072D01*
X95076859Y-97663256D01*
X95018768Y-97743211D01*
X94940128Y-97897552D01*
X94886597Y-98062302D01*
X94859500Y-98233389D01*
X75000500Y-98233389D01*
X74973402Y-98062299D01*
X74919873Y-97897555D01*
X74841232Y-97743212D01*
X74739414Y-97603072D01*
X74616928Y-97480586D01*
X74476788Y-97378768D01*
X74322445Y-97300127D01*
X74157701Y-97246598D01*
X74157699Y-97246597D01*
X74157698Y-97246597D01*
X74026271Y-97225781D01*
X73986611Y-97219500D01*
X73013389Y-97219500D01*
X72973728Y-97225781D01*
X72842302Y-97246597D01*
X72677552Y-97300128D01*
X72523211Y-97378768D01*
X72443256Y-97436859D01*
X72383072Y-97480586D01*
X72383070Y-97480588D01*
X72383069Y-97480588D01*
X72260588Y-97603069D01*
X72260588Y-97603070D01*
X72260586Y-97603072D01*
X72216859Y-97663256D01*
X72158768Y-97743211D01*
X72080128Y-97897552D01*
X72026597Y-98062302D01*
X71999500Y-98233389D01*
X67239606Y-98233389D01*
X67268477Y-98144534D01*
X67300500Y-97942352D01*
X67300500Y-97737648D01*
X67279185Y-97603070D01*
X67268477Y-97535465D01*
X67239127Y-97445137D01*
X67205220Y-97340781D01*
X67205218Y-97340778D01*
X67205218Y-97340776D01*
X67143424Y-97219500D01*
X67112287Y-97158390D01*
X67104556Y-97147749D01*
X66991971Y-96992786D01*
X66847213Y-96848028D01*
X66681614Y-96727715D01*
X66668050Y-96720804D01*
X66588917Y-96680483D01*
X66538123Y-96632511D01*
X66521328Y-96564690D01*
X66543865Y-96498555D01*
X66588917Y-96459516D01*
X66681610Y-96412287D01*
X66794670Y-96330145D01*
X66847213Y-96291971D01*
X66847215Y-96291968D01*
X66847219Y-96291966D01*
X66991966Y-96147219D01*
X66991968Y-96147215D01*
X66991971Y-96147213D01*
X67080322Y-96025606D01*
X67112287Y-95981610D01*
X67205220Y-95799219D01*
X67268477Y-95604534D01*
X67300500Y-95402352D01*
X67300500Y-95197648D01*
X67290123Y-95132135D01*
X71999500Y-95132135D01*
X71999500Y-96427870D01*
X71999501Y-96427876D01*
X72005908Y-96487483D01*
X72056202Y-96622328D01*
X72056206Y-96622335D01*
X72142452Y-96737544D01*
X72142455Y-96737547D01*
X72257664Y-96823793D01*
X72257671Y-96823797D01*
X72392517Y-96874091D01*
X72392516Y-96874091D01*
X72399444Y-96874835D01*
X72452127Y-96880500D01*
X74547872Y-96880499D01*
X74607483Y-96874091D01*
X74742331Y-96823796D01*
X74857546Y-96737546D01*
X74943796Y-96622331D01*
X74994091Y-96487483D01*
X75000500Y-96427873D01*
X75000499Y-95529999D01*
X94885884Y-95529999D01*
X94885885Y-95530000D01*
X96044314Y-95530000D01*
X96039920Y-95534394D01*
X95987259Y-95625606D01*
X95960000Y-95727339D01*
X95960000Y-95832661D01*
X95987259Y-95934394D01*
X96039920Y-96025606D01*
X96044314Y-96030000D01*
X94885885Y-96030000D01*
X94887085Y-96037584D01*
X94940591Y-96202255D01*
X95019195Y-96356524D01*
X95120967Y-96496602D01*
X95243397Y-96619032D01*
X95383475Y-96720804D01*
X95537742Y-96799408D01*
X95702415Y-96852914D01*
X95873429Y-96880000D01*
X96110000Y-96880000D01*
X96110000Y-96095686D01*
X96114394Y-96100080D01*
X96205606Y-96152741D01*
X96307339Y-96180000D01*
X96412661Y-96180000D01*
X96514394Y-96152741D01*
X96605606Y-96100080D01*
X96610000Y-96095686D01*
X96610000Y-96880000D01*
X96846571Y-96880000D01*
X97017584Y-96852914D01*
X97182257Y-96799408D01*
X97336524Y-96720804D01*
X97476602Y-96619032D01*
X97599032Y-96496602D01*
X97700804Y-96356524D01*
X97779408Y-96202255D01*
X97832914Y-96037584D01*
X97834115Y-96030000D01*
X96675686Y-96030000D01*
X96680080Y-96025606D01*
X96732741Y-95934394D01*
X96760000Y-95832661D01*
X96760000Y-95727339D01*
X96732741Y-95625606D01*
X96680080Y-95534394D01*
X96675686Y-95530000D01*
X97834115Y-95530000D01*
X97834115Y-95529999D01*
X97832914Y-95522415D01*
X97779408Y-95357744D01*
X97700804Y-95203475D01*
X97599032Y-95063397D01*
X97476602Y-94940967D01*
X97336524Y-94839195D01*
X97182257Y-94760591D01*
X97017584Y-94707085D01*
X96846571Y-94680000D01*
X96610000Y-94680000D01*
X96610000Y-95464314D01*
X96605606Y-95459920D01*
X96514394Y-95407259D01*
X96412661Y-95380000D01*
X96307339Y-95380000D01*
X96205606Y-95407259D01*
X96114394Y-95459920D01*
X96110000Y-95464314D01*
X96110000Y-94680000D01*
X95873429Y-94680000D01*
X95702415Y-94707085D01*
X95537742Y-94760591D01*
X95383475Y-94839195D01*
X95243397Y-94940967D01*
X95120967Y-95063397D01*
X95019195Y-95203475D01*
X94940591Y-95357744D01*
X94887085Y-95522415D01*
X94885884Y-95529999D01*
X75000499Y-95529999D01*
X75000499Y-95132128D01*
X74994091Y-95072517D01*
X74990689Y-95063397D01*
X74943797Y-94937671D01*
X74943793Y-94937664D01*
X74857547Y-94822455D01*
X74857544Y-94822452D01*
X74742335Y-94736206D01*
X74742328Y-94736202D01*
X74607482Y-94685908D01*
X74607483Y-94685908D01*
X74547883Y-94679501D01*
X74547881Y-94679500D01*
X74547873Y-94679500D01*
X74547864Y-94679500D01*
X72452129Y-94679500D01*
X72452123Y-94679501D01*
X72392516Y-94685908D01*
X72257671Y-94736202D01*
X72257664Y-94736206D01*
X72142455Y-94822452D01*
X72142452Y-94822455D01*
X72056206Y-94937664D01*
X72056202Y-94937671D01*
X72005908Y-95072517D01*
X71999501Y-95132116D01*
X71999501Y-95132123D01*
X71999500Y-95132135D01*
X67290123Y-95132135D01*
X67290122Y-95132128D01*
X67268477Y-94995465D01*
X67205218Y-94800776D01*
X67157479Y-94707085D01*
X67112287Y-94618390D01*
X67104556Y-94607749D01*
X66991971Y-94452786D01*
X66847213Y-94308028D01*
X66681614Y-94187715D01*
X66675006Y-94184348D01*
X66588917Y-94140483D01*
X66538123Y-94092511D01*
X66521328Y-94024690D01*
X66543865Y-93958555D01*
X66588917Y-93919516D01*
X66681610Y-93872287D01*
X66798085Y-93787664D01*
X66847213Y-93751971D01*
X66847215Y-93751968D01*
X66847219Y-93751966D01*
X66991966Y-93607219D01*
X66991968Y-93607215D01*
X66991971Y-93607213D01*
X67048432Y-93529500D01*
X67112287Y-93441610D01*
X67205220Y-93259219D01*
X67268477Y-93064534D01*
X67300500Y-92862352D01*
X67300500Y-92657648D01*
X67268477Y-92455466D01*
X67205220Y-92260781D01*
X67205218Y-92260778D01*
X67205218Y-92260776D01*
X67171503Y-92194607D01*
X67112287Y-92078390D01*
X67104556Y-92067749D01*
X66991971Y-91912786D01*
X66847213Y-91768028D01*
X66681614Y-91647715D01*
X66619929Y-91616285D01*
X66588917Y-91600483D01*
X66538123Y-91552511D01*
X66521328Y-91484690D01*
X66543865Y-91418555D01*
X66588917Y-91379516D01*
X66681610Y-91332287D01*
X66778225Y-91262093D01*
X66847213Y-91211971D01*
X66847215Y-91211968D01*
X66847219Y-91211966D01*
X66991966Y-91067219D01*
X66991968Y-91067215D01*
X66991971Y-91067213D01*
X67044732Y-90994590D01*
X67112287Y-90901610D01*
X67205220Y-90719219D01*
X67268477Y-90524534D01*
X67300500Y-90322352D01*
X67300500Y-90117648D01*
X67292257Y-90065606D01*
X67268477Y-89915465D01*
X67205218Y-89720776D01*
X67171503Y-89654607D01*
X67112287Y-89538390D01*
X67104556Y-89527749D01*
X66991971Y-89372786D01*
X66847213Y-89228028D01*
X66681613Y-89107715D01*
X66681612Y-89107714D01*
X66681610Y-89107713D01*
X66593487Y-89062812D01*
X66499223Y-89014781D01*
X66304534Y-88951522D01*
X66129995Y-88923878D01*
X66102352Y-88919500D01*
X65897648Y-88919500D01*
X65873329Y-88923351D01*
X65695465Y-88951522D01*
X65500776Y-89014781D01*
X65318386Y-89107715D01*
X65152786Y-89228028D01*
X65008028Y-89372786D01*
X64887715Y-89538386D01*
X64794781Y-89720776D01*
X64731522Y-89915465D01*
X64699500Y-90117648D01*
X53686685Y-90117648D01*
X53672741Y-90065606D01*
X53620080Y-89974394D01*
X53615686Y-89970000D01*
X54600000Y-89970000D01*
X54600000Y-89372172D01*
X54599999Y-89372155D01*
X54593598Y-89312627D01*
X54593596Y-89312620D01*
X54543354Y-89177913D01*
X54543350Y-89177906D01*
X54457190Y-89062812D01*
X54457187Y-89062809D01*
X54342093Y-88976649D01*
X54342086Y-88976645D01*
X54207379Y-88926403D01*
X54207372Y-88926401D01*
X54147844Y-88920000D01*
X53550000Y-88920000D01*
X53550000Y-89904314D01*
X53545606Y-89899920D01*
X53454394Y-89847259D01*
X53352661Y-89820000D01*
X53247339Y-89820000D01*
X53145606Y-89847259D01*
X53054394Y-89899920D01*
X53050000Y-89904314D01*
X53050000Y-88920000D01*
X52452155Y-88920000D01*
X52392627Y-88926401D01*
X52392620Y-88926403D01*
X52257913Y-88976645D01*
X52257906Y-88976649D01*
X52142812Y-89062809D01*
X52142809Y-89062812D01*
X52056649Y-89177906D01*
X52056645Y-89177913D01*
X52006403Y-89312620D01*
X52006401Y-89312627D01*
X52000000Y-89372155D01*
X52000000Y-89970000D01*
X52984314Y-89970000D01*
X52979920Y-89974394D01*
X52927259Y-90065606D01*
X52900000Y-90167339D01*
X52900000Y-90272661D01*
X52927259Y-90374394D01*
X52979920Y-90465606D01*
X52984314Y-90470000D01*
X52000000Y-90470000D01*
X52000000Y-91067844D01*
X52006401Y-91127372D01*
X52006403Y-91127379D01*
X52056645Y-91262086D01*
X52056649Y-91262093D01*
X52142809Y-91377187D01*
X52142812Y-91377190D01*
X52257906Y-91463350D01*
X52257913Y-91463354D01*
X52392620Y-91513596D01*
X52430043Y-91517620D01*
X52494595Y-91544358D01*
X52534443Y-91601750D01*
X52536937Y-91671576D01*
X52501285Y-91731665D01*
X52489675Y-91741227D01*
X52452789Y-91768026D01*
X52452782Y-91768032D01*
X52308028Y-91912786D01*
X52187715Y-92078386D01*
X52094781Y-92260776D01*
X52031522Y-92455465D01*
X51999500Y-92657648D01*
X24000500Y-92657648D01*
X24000500Y-80828034D01*
X52999500Y-80828034D01*
X52999500Y-81171965D01*
X53033210Y-81514249D01*
X53100307Y-81851565D01*
X53100310Y-81851578D01*
X53168417Y-82076095D01*
X53200150Y-82180706D01*
X53331770Y-82498464D01*
X53331772Y-82498469D01*
X53493893Y-82801775D01*
X53493904Y-82801793D01*
X53684975Y-83087751D01*
X53684985Y-83087765D01*
X53903176Y-83353632D01*
X54146367Y-83596823D01*
X54146372Y-83596827D01*
X54146373Y-83596828D01*
X54412240Y-83815019D01*
X54698213Y-84006100D01*
X54698222Y-84006105D01*
X54698224Y-84006106D01*
X55001530Y-84168227D01*
X55001532Y-84168227D01*
X55001538Y-84168231D01*
X55319295Y-84299850D01*
X55648422Y-84399690D01*
X55985750Y-84466789D01*
X56328031Y-84500500D01*
X56328034Y-84500500D01*
X56671966Y-84500500D01*
X56671969Y-84500500D01*
X57014250Y-84466789D01*
X57351578Y-84399690D01*
X57680705Y-84299850D01*
X57998462Y-84168231D01*
X58301787Y-84006100D01*
X58587760Y-83815019D01*
X58853627Y-83596828D01*
X59096828Y-83353627D01*
X59315019Y-83087760D01*
X59506100Y-82801787D01*
X59668231Y-82498462D01*
X59799850Y-82180705D01*
X59899690Y-81851578D01*
X59906427Y-81817712D01*
X59960805Y-81544331D01*
X59966789Y-81514250D01*
X60000500Y-81171969D01*
X60000500Y-80828031D01*
X59966789Y-80485750D01*
X59899690Y-80148422D01*
X59799850Y-79819295D01*
X59789670Y-79794719D01*
X59779136Y-79769286D01*
X59760785Y-79724983D01*
X69649500Y-79724983D01*
X69649500Y-81275001D01*
X69649501Y-81275018D01*
X69660000Y-81377796D01*
X69660001Y-81377799D01*
X69705217Y-81514249D01*
X69715186Y-81544334D01*
X69807288Y-81693656D01*
X69931344Y-81817712D01*
X70080666Y-81909814D01*
X70247203Y-81964999D01*
X70349991Y-81975500D01*
X71650008Y-81975499D01*
X71752797Y-81964999D01*
X71919334Y-81909814D01*
X72068656Y-81817712D01*
X72192712Y-81693656D01*
X72284814Y-81544334D01*
X72284814Y-81544331D01*
X72288178Y-81538879D01*
X72340126Y-81492154D01*
X72409088Y-81480931D01*
X72473170Y-81508774D01*
X72481398Y-81516294D01*
X72620213Y-81655109D01*
X72792179Y-81780048D01*
X72792181Y-81780049D01*
X72792184Y-81780051D01*
X72981588Y-81876557D01*
X73183757Y-81942246D01*
X73393713Y-81975500D01*
X73393714Y-81975500D01*
X73606286Y-81975500D01*
X73606287Y-81975500D01*
X73816243Y-81942246D01*
X74018412Y-81876557D01*
X74207816Y-81780051D01*
X74295571Y-81716294D01*
X74379786Y-81655109D01*
X74379788Y-81655106D01*
X74379792Y-81655104D01*
X74530104Y-81504792D01*
X74649991Y-81339779D01*
X74705320Y-81297115D01*
X74774933Y-81291136D01*
X74836729Y-81323741D01*
X74850627Y-81339781D01*
X74970272Y-81504459D01*
X74970276Y-81504464D01*
X75120535Y-81654723D01*
X75120540Y-81654727D01*
X75292442Y-81779620D01*
X75481782Y-81876095D01*
X75683871Y-81941757D01*
X75750000Y-81952231D01*
X75750000Y-80904145D01*
X75816657Y-80942630D01*
X75937465Y-80975000D01*
X76062535Y-80975000D01*
X76183343Y-80942630D01*
X76250000Y-80904145D01*
X76250000Y-81952230D01*
X76316126Y-81941757D01*
X76316129Y-81941757D01*
X76518217Y-81876095D01*
X76707557Y-81779620D01*
X76879459Y-81654727D01*
X76879464Y-81654723D01*
X77029723Y-81504464D01*
X77029727Y-81504459D01*
X77154620Y-81332557D01*
X77251095Y-81143217D01*
X77316757Y-80941130D01*
X77316757Y-80941127D01*
X77347030Y-80750000D01*
X76404146Y-80750000D01*
X76442630Y-80683343D01*
X76475000Y-80562535D01*
X76475000Y-80437465D01*
X76442630Y-80316657D01*
X76404146Y-80250000D01*
X77347030Y-80250000D01*
X77316757Y-80058872D01*
X77316757Y-80058869D01*
X77284682Y-79960152D01*
X77273255Y-79924983D01*
X81649500Y-79924983D01*
X81649500Y-81475001D01*
X81649501Y-81475018D01*
X81660000Y-81577796D01*
X81660001Y-81577799D01*
X81705894Y-81716294D01*
X81715186Y-81744334D01*
X81807288Y-81893656D01*
X81931344Y-82017712D01*
X82080666Y-82109814D01*
X82247203Y-82164999D01*
X82349991Y-82175500D01*
X83650008Y-82175499D01*
X83752797Y-82164999D01*
X83919334Y-82109814D01*
X84068656Y-82017712D01*
X84192712Y-81893656D01*
X84284814Y-81744334D01*
X84284814Y-81744331D01*
X84288178Y-81738879D01*
X84340126Y-81692154D01*
X84409088Y-81680931D01*
X84473170Y-81708774D01*
X84481398Y-81716294D01*
X84620213Y-81855109D01*
X84792179Y-81980048D01*
X84792181Y-81980049D01*
X84792184Y-81980051D01*
X84981588Y-82076557D01*
X85183757Y-82142246D01*
X85393713Y-82175500D01*
X85393714Y-82175500D01*
X85606286Y-82175500D01*
X85606287Y-82175500D01*
X85816243Y-82142246D01*
X86018412Y-82076557D01*
X86207816Y-81980051D01*
X86246109Y-81952230D01*
X86379786Y-81855109D01*
X86379788Y-81855106D01*
X86379792Y-81855104D01*
X86530104Y-81704792D01*
X86649991Y-81539779D01*
X86705320Y-81497115D01*
X86774933Y-81491136D01*
X86836729Y-81523741D01*
X86850627Y-81539781D01*
X86970272Y-81704459D01*
X86970276Y-81704464D01*
X87120535Y-81854723D01*
X87120540Y-81854727D01*
X87292442Y-81979620D01*
X87481782Y-82076095D01*
X87683871Y-82141757D01*
X87750000Y-82152231D01*
X87750000Y-81104145D01*
X87816657Y-81142630D01*
X87937465Y-81175000D01*
X88062535Y-81175000D01*
X88183343Y-81142630D01*
X88250000Y-81104145D01*
X88250000Y-82152230D01*
X88316126Y-82141757D01*
X88316129Y-82141757D01*
X88518217Y-82076095D01*
X88707557Y-81979620D01*
X88879459Y-81854727D01*
X88879464Y-81854723D01*
X89029723Y-81704464D01*
X89029727Y-81704459D01*
X89154620Y-81532557D01*
X89251095Y-81343217D01*
X89316757Y-81141130D01*
X89316757Y-81141127D01*
X89347030Y-80950000D01*
X88404146Y-80950000D01*
X88442630Y-80883343D01*
X88475000Y-80762535D01*
X88475000Y-80637465D01*
X88442630Y-80516657D01*
X88404146Y-80450000D01*
X89347030Y-80450000D01*
X89316757Y-80258872D01*
X89316757Y-80258869D01*
X89251095Y-80056782D01*
X89154620Y-79867442D01*
X89101785Y-79794719D01*
X89051119Y-79724983D01*
X93649500Y-79724983D01*
X93649500Y-81275001D01*
X93649501Y-81275018D01*
X93660000Y-81377796D01*
X93660001Y-81377799D01*
X93705217Y-81514249D01*
X93715186Y-81544334D01*
X93807288Y-81693656D01*
X93931344Y-81817712D01*
X94080666Y-81909814D01*
X94247203Y-81964999D01*
X94349991Y-81975500D01*
X95650008Y-81975499D01*
X95752797Y-81964999D01*
X95919334Y-81909814D01*
X96068656Y-81817712D01*
X96192712Y-81693656D01*
X96284814Y-81544334D01*
X96284814Y-81544331D01*
X96288178Y-81538879D01*
X96340126Y-81492154D01*
X96409088Y-81480931D01*
X96473170Y-81508774D01*
X96481398Y-81516294D01*
X96620213Y-81655109D01*
X96792179Y-81780048D01*
X96792181Y-81780049D01*
X96792184Y-81780051D01*
X96981588Y-81876557D01*
X97183757Y-81942246D01*
X97393713Y-81975500D01*
X97393714Y-81975500D01*
X97606286Y-81975500D01*
X97606287Y-81975500D01*
X97816243Y-81942246D01*
X98018412Y-81876557D01*
X98207816Y-81780051D01*
X98295571Y-81716294D01*
X98379786Y-81655109D01*
X98379788Y-81655106D01*
X98379792Y-81655104D01*
X98530104Y-81504792D01*
X98649991Y-81339779D01*
X98705320Y-81297115D01*
X98774933Y-81291136D01*
X98836729Y-81323741D01*
X98850627Y-81339781D01*
X98970272Y-81504459D01*
X98970276Y-81504464D01*
X99120535Y-81654723D01*
X99120540Y-81654727D01*
X99292442Y-81779620D01*
X99481782Y-81876095D01*
X99683871Y-81941757D01*
X99750000Y-81952231D01*
X99750000Y-80904145D01*
X99816657Y-80942630D01*
X99937465Y-80975000D01*
X100062535Y-80975000D01*
X100183343Y-80942630D01*
X100250000Y-80904145D01*
X100250000Y-81952230D01*
X100316126Y-81941757D01*
X100316129Y-81941757D01*
X100518217Y-81876095D01*
X100707557Y-81779620D01*
X100879459Y-81654727D01*
X100879464Y-81654723D01*
X101029723Y-81504464D01*
X101029727Y-81504459D01*
X101154620Y-81332557D01*
X101251095Y-81143217D01*
X101316757Y-80941130D01*
X101316757Y-80941127D01*
X101347030Y-80750000D01*
X100404146Y-80750000D01*
X100442630Y-80683343D01*
X100475000Y-80562535D01*
X100475000Y-80437465D01*
X100442630Y-80316657D01*
X100404146Y-80250000D01*
X101347030Y-80250000D01*
X101316757Y-80058872D01*
X101316757Y-80058869D01*
X101251095Y-79856782D01*
X101154620Y-79667442D01*
X101029727Y-79495540D01*
X101029723Y-79495535D01*
X100879464Y-79345276D01*
X100879459Y-79345272D01*
X100707557Y-79220379D01*
X100518215Y-79123903D01*
X100316124Y-79058241D01*
X100250000Y-79047768D01*
X100250000Y-80095854D01*
X100183343Y-80057370D01*
X100062535Y-80025000D01*
X99937465Y-80025000D01*
X99816657Y-80057370D01*
X99750000Y-80095854D01*
X99750000Y-79047768D01*
X99749999Y-79047768D01*
X99683875Y-79058241D01*
X99481784Y-79123903D01*
X99292442Y-79220379D01*
X99120540Y-79345272D01*
X99120535Y-79345276D01*
X98970276Y-79495535D01*
X98970272Y-79495540D01*
X98850627Y-79660218D01*
X98795297Y-79702884D01*
X98725684Y-79708863D01*
X98663889Y-79676257D01*
X98649991Y-79660218D01*
X98530109Y-79495214D01*
X98530105Y-79495209D01*
X98379786Y-79344890D01*
X98207820Y-79219951D01*
X98018414Y-79123444D01*
X98018413Y-79123443D01*
X98018412Y-79123443D01*
X97816243Y-79057754D01*
X97816241Y-79057753D01*
X97816240Y-79057753D01*
X97654957Y-79032208D01*
X97606287Y-79024500D01*
X97393713Y-79024500D01*
X97345042Y-79032208D01*
X97183760Y-79057753D01*
X96981585Y-79123444D01*
X96792179Y-79219951D01*
X96620215Y-79344889D01*
X96481398Y-79483706D01*
X96420075Y-79517190D01*
X96350383Y-79512206D01*
X96294450Y-79470334D01*
X96288178Y-79461120D01*
X96192712Y-79306344D01*
X96068657Y-79182289D01*
X96068656Y-79182288D01*
X95919334Y-79090186D01*
X95752797Y-79035001D01*
X95752795Y-79035000D01*
X95650010Y-79024500D01*
X94349998Y-79024500D01*
X94349981Y-79024501D01*
X94247203Y-79035000D01*
X94247200Y-79035001D01*
X94080668Y-79090185D01*
X94080663Y-79090187D01*
X93931342Y-79182289D01*
X93807289Y-79306342D01*
X93715187Y-79455663D01*
X93715185Y-79455668D01*
X93698393Y-79506344D01*
X93660001Y-79622203D01*
X93660001Y-79622204D01*
X93660000Y-79622204D01*
X93649500Y-79724983D01*
X89051119Y-79724983D01*
X89029727Y-79695540D01*
X89029723Y-79695535D01*
X88879464Y-79545276D01*
X88879459Y-79545272D01*
X88707557Y-79420379D01*
X88518215Y-79323903D01*
X88316124Y-79258241D01*
X88250000Y-79247768D01*
X88250000Y-80295854D01*
X88183343Y-80257370D01*
X88062535Y-80225000D01*
X87937465Y-80225000D01*
X87816657Y-80257370D01*
X87750000Y-80295854D01*
X87750000Y-79247768D01*
X87749999Y-79247768D01*
X87683875Y-79258241D01*
X87481784Y-79323903D01*
X87292442Y-79420379D01*
X87120540Y-79545272D01*
X87120535Y-79545276D01*
X86970276Y-79695535D01*
X86970272Y-79695540D01*
X86850627Y-79860218D01*
X86795297Y-79902884D01*
X86725684Y-79908863D01*
X86663889Y-79876257D01*
X86649991Y-79860218D01*
X86530109Y-79695214D01*
X86530105Y-79695209D01*
X86379786Y-79544890D01*
X86207820Y-79419951D01*
X86018414Y-79323444D01*
X86018413Y-79323443D01*
X86018412Y-79323443D01*
X85816243Y-79257754D01*
X85816241Y-79257753D01*
X85816240Y-79257753D01*
X85654957Y-79232208D01*
X85606287Y-79224500D01*
X85393713Y-79224500D01*
X85345042Y-79232208D01*
X85183760Y-79257753D01*
X84981585Y-79323444D01*
X84792179Y-79419951D01*
X84620215Y-79544889D01*
X84481398Y-79683706D01*
X84420075Y-79717190D01*
X84350383Y-79712206D01*
X84294450Y-79670334D01*
X84288178Y-79661120D01*
X84192712Y-79506344D01*
X84068657Y-79382289D01*
X84068656Y-79382288D01*
X83973253Y-79323443D01*
X83919336Y-79290187D01*
X83919331Y-79290185D01*
X83917862Y-79289698D01*
X83752797Y-79235001D01*
X83752795Y-79235000D01*
X83650010Y-79224500D01*
X82349998Y-79224500D01*
X82349981Y-79224501D01*
X82247203Y-79235000D01*
X82247200Y-79235001D01*
X82080668Y-79290185D01*
X82080663Y-79290187D01*
X81931342Y-79382289D01*
X81807289Y-79506342D01*
X81715187Y-79655663D01*
X81715185Y-79655668D01*
X81711369Y-79667184D01*
X81660001Y-79822203D01*
X81660001Y-79822204D01*
X81660000Y-79822204D01*
X81649500Y-79924983D01*
X77273255Y-79924983D01*
X77251095Y-79856782D01*
X77154620Y-79667442D01*
X77029727Y-79495540D01*
X77029723Y-79495535D01*
X76879464Y-79345276D01*
X76879459Y-79345272D01*
X76707557Y-79220379D01*
X76518215Y-79123903D01*
X76316124Y-79058241D01*
X76250000Y-79047768D01*
X76250000Y-80095854D01*
X76183343Y-80057370D01*
X76062535Y-80025000D01*
X75937465Y-80025000D01*
X75816657Y-80057370D01*
X75750000Y-80095854D01*
X75750000Y-79047768D01*
X75749999Y-79047768D01*
X75683875Y-79058241D01*
X75481784Y-79123903D01*
X75292442Y-79220379D01*
X75120540Y-79345272D01*
X75120535Y-79345276D01*
X74970276Y-79495535D01*
X74970272Y-79495540D01*
X74850627Y-79660218D01*
X74795297Y-79702884D01*
X74725684Y-79708863D01*
X74663889Y-79676257D01*
X74649991Y-79660218D01*
X74530109Y-79495214D01*
X74530105Y-79495209D01*
X74379786Y-79344890D01*
X74207820Y-79219951D01*
X74018414Y-79123444D01*
X74018413Y-79123443D01*
X74018412Y-79123443D01*
X73816243Y-79057754D01*
X73816241Y-79057753D01*
X73816240Y-79057753D01*
X73654957Y-79032208D01*
X73606287Y-79024500D01*
X73393713Y-79024500D01*
X73345042Y-79032208D01*
X73183760Y-79057753D01*
X72981585Y-79123444D01*
X72792179Y-79219951D01*
X72620215Y-79344889D01*
X72481398Y-79483706D01*
X72420075Y-79517190D01*
X72350383Y-79512206D01*
X72294450Y-79470334D01*
X72288178Y-79461120D01*
X72192712Y-79306344D01*
X72068657Y-79182289D01*
X72068656Y-79182288D01*
X71919334Y-79090186D01*
X71752797Y-79035001D01*
X71752795Y-79035000D01*
X71650010Y-79024500D01*
X70349998Y-79024500D01*
X70349981Y-79024501D01*
X70247203Y-79035000D01*
X70247200Y-79035001D01*
X70080668Y-79090185D01*
X70080663Y-79090187D01*
X69931342Y-79182289D01*
X69807289Y-79306342D01*
X69715187Y-79455663D01*
X69715185Y-79455668D01*
X69698393Y-79506344D01*
X69660001Y-79622203D01*
X69660001Y-79622204D01*
X69660000Y-79622204D01*
X69649500Y-79724983D01*
X59760785Y-79724983D01*
X59737084Y-79667764D01*
X59668231Y-79501538D01*
X59665022Y-79495535D01*
X59506106Y-79198224D01*
X59506105Y-79198222D01*
X59506100Y-79198213D01*
X59315019Y-78912240D01*
X59096828Y-78646373D01*
X59096827Y-78646372D01*
X59096823Y-78646367D01*
X58853632Y-78403176D01*
X58587765Y-78184985D01*
X58587764Y-78184984D01*
X58587760Y-78184981D01*
X58301787Y-77993900D01*
X58301782Y-77993897D01*
X58301775Y-77993893D01*
X57998469Y-77831772D01*
X57998464Y-77831770D01*
X57680706Y-77700150D01*
X57351572Y-77600308D01*
X57014248Y-77533210D01*
X57014249Y-77533210D01*
X56756456Y-77507821D01*
X56671969Y-77499500D01*
X56328031Y-77499500D01*
X56249966Y-77507188D01*
X55985750Y-77533210D01*
X55648427Y-77600308D01*
X55319293Y-77700150D01*
X55001535Y-77831770D01*
X55001530Y-77831772D01*
X54698224Y-77993893D01*
X54698206Y-77993904D01*
X54412248Y-78184975D01*
X54412234Y-78184985D01*
X54146367Y-78403176D01*
X53903176Y-78646367D01*
X53684985Y-78912234D01*
X53684975Y-78912248D01*
X53493904Y-79198206D01*
X53493893Y-79198224D01*
X53331772Y-79501530D01*
X53331770Y-79501535D01*
X53200150Y-79819293D01*
X53100308Y-80148427D01*
X53033210Y-80485750D01*
X53013750Y-80683343D01*
X53003083Y-80791657D01*
X52999500Y-80828034D01*
X24000500Y-80828034D01*
X24000500Y-76124500D01*
X24020185Y-76057461D01*
X24072989Y-76011706D01*
X24124500Y-76000500D01*
X118375500Y-76000500D01*
X118442539Y-76020185D01*
G37*
%TD.AperFunction*%
%TD*%
M02*
