%TF.GenerationSoftware,KiCad,Pcbnew,10.0.3*%
%TF.CreationDate,2026-05-26T23:16:29-07:00*%
%TF.ProjectId,MCU,4d43552e-6b69-4636-9164-5f7063625858,rev?*%
%TF.SameCoordinates,Original*%
%TF.FileFunction,Copper,L1,Top*%
%TF.FilePolarity,Positive*%
%FSLAX46Y46*%
G04 Gerber Fmt 4.6, Leading zero omitted, Abs format (unit mm)*
G04 Created by KiCad (PCBNEW 10.0.3) date 2026-05-26 23:16:29*
%MOMM*%
%LPD*%
G01*
G04 APERTURE LIST*
G04 Aperture macros list*
%AMRoundRect*
0 Rectangle with rounded corners*
0 $1 Rounding radius*
0 $2 $3 $4 $5 $6 $7 $8 $9 X,Y pos of 4 corners*
0 Add a 4 corners polygon primitive as box body*
4,1,4,$2,$3,$4,$5,$6,$7,$8,$9,$2,$3,0*
0 Add four circle primitives for the rounded corners*
1,1,$1+$1,$2,$3*
1,1,$1+$1,$4,$5*
1,1,$1+$1,$6,$7*
1,1,$1+$1,$8,$9*
0 Add four rect primitives between the rounded corners*
20,1,$1+$1,$2,$3,$4,$5,0*
20,1,$1+$1,$4,$5,$6,$7,0*
20,1,$1+$1,$6,$7,$8,$9,0*
20,1,$1+$1,$8,$9,$2,$3,0*%
G04 Aperture macros list end*
%TA.AperFunction,ComponentPad*%
%ADD10R,2.000000X1.200000*%
%TD*%
%TA.AperFunction,ComponentPad*%
%ADD11O,2.000000X1.200000*%
%TD*%
%TA.AperFunction,ComponentPad*%
%ADD12RoundRect,0.250000X-0.600000X-0.725000X0.600000X-0.725000X0.600000X0.725000X-0.600000X0.725000X0*%
%TD*%
%TA.AperFunction,ComponentPad*%
%ADD13O,1.700000X1.950000*%
%TD*%
%TA.AperFunction,ComponentPad*%
%ADD14R,1.700000X1.700000*%
%TD*%
%TA.AperFunction,ComponentPad*%
%ADD15C,1.700000*%
%TD*%
%TA.AperFunction,ComponentPad*%
%ADD16R,1.600000X1.600000*%
%TD*%
%TA.AperFunction,ComponentPad*%
%ADD17O,1.600000X1.600000*%
%TD*%
%TA.AperFunction,ComponentPad*%
%ADD18RoundRect,0.250000X-0.550000X0.550000X-0.550000X-0.550000X0.550000X-0.550000X0.550000X0.550000X0*%
%TD*%
%TA.AperFunction,ComponentPad*%
%ADD19C,1.600000*%
%TD*%
%TA.AperFunction,ComponentPad*%
%ADD20C,6.000000*%
%TD*%
%TA.AperFunction,Conductor*%
%ADD21C,0.200000*%
%TD*%
%TA.AperFunction,Conductor*%
%ADD22C,0.500000*%
%TD*%
%TA.AperFunction,Conductor*%
%ADD23C,0.600000*%
%TD*%
G04 APERTURE END LIST*
D10*
%TO.P,U2,1,3V3_1*%
%TO.N,+3.3V*%
X73500000Y-95780000D03*
D11*
%TO.P,U2,2,3V3_2*%
X73500000Y-98320000D03*
%TO.P,U2,3,CHIP_PU_3*%
%TO.N,unconnected-(U2-CHIP_PU-Pad3)*%
X73500000Y-100860000D03*
%TO.P,U2,4,GPIO4/ADC1_CH3_4*%
%TO.N,UART_DATA*%
X73500000Y-103400000D03*
%TO.P,U2,5,GPIO5/ADC1_CH4_5*%
%TO.N,unconnected-(U2-GPIO5{slash}ADC1_CH4-Pad5)*%
X73500000Y-105940000D03*
%TO.P,U2,6,GPIO6/ADC1_CH5_6*%
%TO.N,M3STEP*%
X73500000Y-108480000D03*
%TO.P,U2,7,GPIO7/ADC1_CH6_7*%
%TO.N,M3DIR*%
X73500000Y-111020000D03*
%TO.P,U2,8,GPIO15/ADC2_CH4/32K_P_8*%
%TO.N,unconnected-(U2-GPIO15{slash}ADC2_CH4{slash}32K_P-Pad8)*%
X73500000Y-113560000D03*
%TO.P,U2,9,GPIO16/ADC2_CH5/32K_N_9*%
%TO.N,unconnected-(U2-GPIO16{slash}ADC2_CH5{slash}32K_N-Pad9)*%
X73500000Y-116100000D03*
%TO.P,U2,10,GPIO17/ADC2_CH6_10*%
%TO.N,unconnected-(U2-GPIO17{slash}ADC2_CH6-Pad10)*%
X73500000Y-118640000D03*
%TO.P,U2,11,GPIO18/ADC2_CH7_11*%
%TO.N,unconnected-(U2-GPIO18{slash}ADC2_CH7-Pad11)*%
X73500000Y-121180000D03*
%TO.P,U2,12,GPIO8/ADC1_CH7_12*%
%TO.N,M2DIR*%
X73500000Y-123720000D03*
%TO.P,U2,13,GPIO3/ADC1_CH2_13*%
%TO.N,unconnected-(U2-GPIO3{slash}ADC1_CH2-Pad13)*%
X73500000Y-126260000D03*
%TO.P,U2,14,GPIO46_14*%
%TO.N,unconnected-(U2-GPIO46-Pad14)*%
X73500000Y-128800000D03*
%TO.P,U2,15,GPIO9/ADC1_CH8_15*%
%TO.N,M2STEP*%
X73500000Y-131340000D03*
%TO.P,U2,16,GPIO10/ADC1_CH9_16*%
%TO.N,M1DIR*%
X73500000Y-133880000D03*
%TO.P,U2,17,GPIO11/ADC2_CH0_17*%
%TO.N,M1STEP*%
X73500000Y-136420000D03*
%TO.P,U2,18,GPIO12/ADC2_CH1_18*%
%TO.N,FAULT3*%
X73500000Y-138960000D03*
%TO.P,U2,19,GPIO13/ADC2_CH2_19*%
%TO.N,FAULT2*%
X73500000Y-141500000D03*
%TO.P,U2,20,GPIO14/ADC2_CH3_20*%
%TO.N,FAULT1*%
X73496320Y-144037280D03*
%TO.P,U2,21,5V_21*%
%TO.N,unconnected-(U2-5V-Pad21)*%
X73496320Y-146577280D03*
%TO.P,U2,22,GND_22*%
%TO.N,GND*%
X73496320Y-149117280D03*
%TO.P,U2,23,GND_23*%
X96360000Y-149120000D03*
%TO.P,U2,24,GND_24*%
X96360000Y-146580000D03*
%TO.P,U2,25,GPIO19/USB_D-_25*%
%TO.N,unconnected-(U2-GPIO19{slash}USB_D--Pad25)*%
X96360000Y-144040000D03*
%TO.P,U2,26,GPIO20/USB_D+_26*%
%TO.N,unconnected-(U2-GPIO20{slash}USB_D+-Pad26)*%
X96360000Y-141500000D03*
%TO.P,U2,27,GPIO21_27*%
%TO.N,unconnected-(U2-GPIO21-Pad27)*%
X96360000Y-138960000D03*
%TO.P,U2,28,GPIO47_28*%
%TO.N,ENC_OUT1*%
X96360000Y-136420000D03*
%TO.P,U2,29,GPIO48_29*%
%TO.N,unconnected-(U2-GPIO48-Pad29)*%
X96360000Y-133880000D03*
%TO.P,U2,30,GPIO45_30*%
%TO.N,unconnected-(U2-GPIO45-Pad30)*%
X96360000Y-131340000D03*
%TO.P,U2,31,GPIO0_31*%
%TO.N,unconnected-(U2-GPIO0-Pad31)*%
X96360000Y-128800000D03*
%TO.P,U2,32,GPIO35_32*%
%TO.N,ENC_OUT2*%
X96360000Y-126260000D03*
%TO.P,U2,33,GPIO36_33*%
%TO.N,unconnected-(U2-GPIO36-Pad33)*%
X96360000Y-123720000D03*
%TO.P,U2,34,GPIO37_34*%
%TO.N,unconnected-(U2-GPIO37-Pad34)*%
X96360000Y-121180000D03*
%TO.P,U2,35,GPIO38_35*%
%TO.N,unconnected-(U2-GPIO38-Pad35)*%
X96360000Y-118640000D03*
%TO.P,U2,36,GPIO39/MTCK_36*%
%TO.N,unconnected-(U2-GPIO39{slash}MTCK-Pad36)*%
X96360000Y-116100000D03*
%TO.P,U2,37,GPIO40/MTDO_37*%
%TO.N,unconnected-(U2-GPIO40{slash}MTDO-Pad37)*%
X96360000Y-113560000D03*
%TO.P,U2,38,GPIO41/MTDI_38*%
%TO.N,unconnected-(U2-GPIO41{slash}MTDI-Pad38)*%
X96360000Y-111020000D03*
%TO.P,U2,39,GPIO42/MTMS_39*%
%TO.N,unconnected-(U2-GPIO42{slash}MTMS-Pad39)*%
X96360000Y-108480000D03*
%TO.P,U2,40,GPIO2/ADC1_CH1_40*%
%TO.N,unconnected-(U2-GPIO2{slash}ADC1_CH1-Pad40)*%
X96360000Y-105940000D03*
%TO.P,U2,41,GPIO1/ADC1_CH0_41*%
%TO.N,ENC_OUT3*%
X96360000Y-103400000D03*
%TO.P,U2,42,GPIO44/U0RXD_42*%
%TO.N,unconnected-(U2-GPIO44{slash}U0RXD-Pad42)*%
X96360000Y-100860000D03*
%TO.P,U2,43,GPIO43/U0TXD_43*%
%TO.N,unconnected-(U2-GPIO43{slash}U0TXD-Pad43)*%
X96360000Y-98320000D03*
%TO.P,U2,44,GND_44*%
%TO.N,GND*%
X96360000Y-95780000D03*
%TD*%
D12*
%TO.P,S2,1,Pin_1_1*%
%TO.N,UART_DATA*%
X83000000Y-80700000D03*
D13*
%TO.P,S2,2,Pin_2_2*%
%TO.N,+7.5V*%
X85500000Y-80700000D03*
%TO.P,S2,3,Pin_3_3*%
%TO.N,GND*%
X88000000Y-80700000D03*
%TD*%
D14*
%TO.P,ENC1,1,Pin_1_1*%
%TO.N,GND*%
X110000000Y-148795000D03*
D15*
%TO.P,ENC1,2,Pin_2_2*%
%TO.N,ENC_OUT1*%
X110000000Y-151335000D03*
%TO.P,ENC1,3,Pin_3_3*%
%TO.N,+3.3V*%
X110000000Y-153875000D03*
%TD*%
D14*
%TO.P,M3,1,Pin_1_1*%
%TO.N,Net-(A3-A2)*%
X42500000Y-94880000D03*
D15*
%TO.P,M3,2,Pin_2_2*%
%TO.N,Net-(A3-A1)*%
X42500000Y-97420000D03*
%TO.P,M3,3,Pin_3_3*%
%TO.N,Net-(A3-B1)*%
X42500000Y-99960000D03*
%TO.P,M3,4,Pin_4_4*%
%TO.N,Net-(A3-B2)*%
X42500000Y-102500000D03*
%TD*%
D16*
%TO.P,A1,1,GND_1*%
%TO.N,GND*%
X53160000Y-142110000D03*
D17*
%TO.P,A1,2,~{FLT}_2*%
%TO.N,FAULT1*%
X53160000Y-144650000D03*
%TO.P,A1,3,A2_3*%
%TO.N,Net-(A1-A2)*%
X53160000Y-147190000D03*
%TO.P,A1,4,A1_4*%
%TO.N,Net-(A1-A1)*%
X53160000Y-149730000D03*
%TO.P,A1,5,B1_5*%
%TO.N,Net-(A1-B1)*%
X53160000Y-152270000D03*
%TO.P,A1,6,B2_6*%
%TO.N,Net-(A1-B2)*%
X53160000Y-154810000D03*
%TO.P,A1,7,GND_7*%
%TO.N,GND*%
X53160000Y-157350000D03*
%TO.P,A1,8,VMOT_8*%
%TO.N,+12V*%
X53160000Y-159890000D03*
%TO.P,A1,9,~{EN}_9*%
%TO.N,unconnected-(A1-~{EN}-Pad9)*%
X65860000Y-159890000D03*
%TO.P,A1,10,M0_10*%
%TO.N,unconnected-(A1-M0-Pad10)*%
X65860000Y-157350000D03*
%TO.P,A1,11,M1_11*%
%TO.N,unconnected-(A1-M1-Pad11)*%
X65860000Y-154810000D03*
%TO.P,A1,12,M2_12*%
%TO.N,+3.3V*%
X65860000Y-152270000D03*
%TO.P,A1,13,~{RST}_13*%
X65860000Y-149730000D03*
%TO.P,A1,14,~{SLP}_14*%
X65860000Y-147190000D03*
%TO.P,A1,15,STEP_15*%
%TO.N,M1STEP*%
X65860000Y-144650000D03*
%TO.P,A1,16,DIR_16*%
%TO.N,M1DIR*%
X65860000Y-142110000D03*
%TD*%
D14*
%TO.P,M2,1,Pin_1_1*%
%TO.N,Net-(A2-A2)*%
X42500000Y-120380000D03*
D15*
%TO.P,M2,2,Pin_2_2*%
%TO.N,Net-(A2-A1)*%
X42500000Y-122920000D03*
%TO.P,M2,3,Pin_3_3*%
%TO.N,Net-(A2-B1)*%
X42500000Y-125460000D03*
%TO.P,M2,4,Pin_4_4*%
%TO.N,Net-(A2-B2)*%
X42500000Y-128000000D03*
%TD*%
D16*
%TO.P,A3,1,GND_1*%
%TO.N,GND*%
X53300000Y-90220000D03*
D17*
%TO.P,A3,2,~{FLT}_2*%
%TO.N,FAULT3*%
X53300000Y-92760000D03*
%TO.P,A3,3,A2_3*%
%TO.N,Net-(A3-A2)*%
X53300000Y-95300000D03*
%TO.P,A3,4,A1_4*%
%TO.N,Net-(A3-A1)*%
X53300000Y-97840000D03*
%TO.P,A3,5,B1_5*%
%TO.N,Net-(A3-B1)*%
X53300000Y-100380000D03*
%TO.P,A3,6,B2_6*%
%TO.N,Net-(A3-B2)*%
X53300000Y-102920000D03*
%TO.P,A3,7,GND_7*%
%TO.N,GND*%
X53300000Y-105460000D03*
%TO.P,A3,8,VMOT_8*%
%TO.N,+12V*%
X53300000Y-108000000D03*
%TO.P,A3,9,~{EN}_9*%
%TO.N,unconnected-(A3-~{EN}-Pad9)*%
X66000000Y-108000000D03*
%TO.P,A3,10,M0_10*%
%TO.N,unconnected-(A3-M0-Pad10)*%
X66000000Y-105460000D03*
%TO.P,A3,11,M1_11*%
%TO.N,unconnected-(A3-M1-Pad11)*%
X66000000Y-102920000D03*
%TO.P,A3,12,M2_12*%
%TO.N,+3.3V*%
X66000000Y-100380000D03*
%TO.P,A3,13,~{RST}_13*%
X66000000Y-97840000D03*
%TO.P,A3,14,~{SLP}_14*%
X66000000Y-95300000D03*
%TO.P,A3,15,STEP_15*%
%TO.N,M3STEP*%
X66000000Y-92760000D03*
%TO.P,A3,16,DIR_16*%
%TO.N,M3DIR*%
X66000000Y-90220000D03*
%TD*%
D18*
%TO.P,C1,1*%
%TO.N,GND*%
X45500000Y-163817621D03*
D19*
%TO.P,C1,2*%
%TO.N,+12V*%
X45500000Y-166317621D03*
%TD*%
D14*
%TO.P,ENC3,1,Pin_1_1*%
%TO.N,GND*%
X109000000Y-102500000D03*
D15*
%TO.P,ENC3,2,Pin_2_2*%
%TO.N,ENC_OUT3*%
X109000000Y-105040000D03*
%TO.P,ENC3,3,Pin_3_3*%
%TO.N,+3.3V*%
X109000000Y-107580000D03*
%TD*%
D12*
%TO.P,S3,1,Pin_1_1*%
%TO.N,UART_DATA*%
X95000000Y-80500000D03*
D13*
%TO.P,S3,2,Pin_2_2*%
%TO.N,+7.5V*%
X97500000Y-80500000D03*
%TO.P,S3,3,Pin_3_3*%
%TO.N,GND*%
X100000000Y-80500000D03*
%TD*%
D16*
%TO.P,A2,1,GND_1*%
%TO.N,GND*%
X53160000Y-116110000D03*
D17*
%TO.P,A2,2,~{FLT}_2*%
%TO.N,FAULT2*%
X53160000Y-118650000D03*
%TO.P,A2,3,A2_3*%
%TO.N,Net-(A2-A2)*%
X53160000Y-121190000D03*
%TO.P,A2,4,A1_4*%
%TO.N,Net-(A2-A1)*%
X53160000Y-123730000D03*
%TO.P,A2,5,B1_5*%
%TO.N,Net-(A2-B1)*%
X53160000Y-126270000D03*
%TO.P,A2,6,B2_6*%
%TO.N,Net-(A2-B2)*%
X53160000Y-128810000D03*
%TO.P,A2,7,GND_7*%
%TO.N,GND*%
X53160000Y-131350000D03*
%TO.P,A2,8,VMOT_8*%
%TO.N,+12V*%
X53160000Y-133890000D03*
%TO.P,A2,9,~{EN}_9*%
%TO.N,unconnected-(A2-~{EN}-Pad9)*%
X65860000Y-133890000D03*
%TO.P,A2,10,M0_10*%
%TO.N,unconnected-(A2-M0-Pad10)*%
X65860000Y-131350000D03*
%TO.P,A2,11,M1_11*%
%TO.N,unconnected-(A2-M1-Pad11)*%
X65860000Y-128810000D03*
%TO.P,A2,12,M2_12*%
%TO.N,+3.3V*%
X65860000Y-126270000D03*
%TO.P,A2,13,~{RST}_13*%
X65860000Y-123730000D03*
%TO.P,A2,14,~{SLP}_14*%
X65860000Y-121190000D03*
%TO.P,A2,15,STEP_15*%
%TO.N,M2STEP*%
X65860000Y-118650000D03*
%TO.P,A2,16,DIR_16*%
%TO.N,M2DIR*%
X65860000Y-116110000D03*
%TD*%
D14*
%TO.P,ENC2,1,Pin_1_1*%
%TO.N,GND*%
X110000000Y-126960000D03*
D15*
%TO.P,ENC2,2,Pin_2_2*%
%TO.N,ENC_OUT2*%
X110000000Y-129500000D03*
%TO.P,ENC2,3,Pin_3_3*%
%TO.N,+3.3V*%
X110000000Y-132040000D03*
%TD*%
D18*
%TO.P,C3,1*%
%TO.N,GND*%
X46000000Y-110500000D03*
D19*
%TO.P,C3,2*%
%TO.N,+12V*%
X46000000Y-113000000D03*
%TD*%
D20*
%TO.P,TP1,1,1_1*%
%TO.N,+7.5V*%
X56500000Y-81000000D03*
%TD*%
%TO.P,TP2,1,1_1*%
%TO.N,+12V*%
X30500000Y-137500000D03*
%TD*%
D12*
%TO.P,S1,1,Pin_1_1*%
%TO.N,UART_DATA*%
X71000000Y-80500000D03*
D13*
%TO.P,S1,2,Pin_2_2*%
%TO.N,+7.5V*%
X73500000Y-80500000D03*
%TO.P,S1,3,Pin_3_3*%
%TO.N,GND*%
X76000000Y-80500000D03*
%TD*%
D18*
%TO.P,C2,1*%
%TO.N,GND*%
X45500000Y-135317621D03*
D19*
%TO.P,C2,2*%
%TO.N,+12V*%
X45500000Y-137817621D03*
%TD*%
D14*
%TO.P,M1,1,Pin_1_1*%
%TO.N,Net-(A1-A2)*%
X42000000Y-148960000D03*
D15*
%TO.P,M1,2,Pin_2_2*%
%TO.N,Net-(A1-A1)*%
X42000000Y-151500000D03*
%TO.P,M1,3,Pin_3_3*%
%TO.N,Net-(A1-B1)*%
X42000000Y-154040000D03*
%TO.P,M1,4,Pin_4_4*%
%TO.N,Net-(A1-B2)*%
X42000000Y-156580000D03*
%TD*%
%TO.N,+3.3V*%
D21*
X66000000Y-100380000D02*
X66000000Y-97840000D01*
X70480000Y-95300000D02*
X73500000Y-98320000D01*
X73500000Y-98320000D02*
X72200000Y-99620000D01*
X72200000Y-104240000D02*
X73000000Y-105040000D01*
X65860000Y-152270000D02*
X65860000Y-149730000D01*
X110795000Y-153875000D02*
X111945000Y-152725000D01*
X74800000Y-139332792D02*
X74272792Y-139860000D01*
X68494365Y-111920000D02*
X64760000Y-115654365D01*
X111945000Y-134525000D02*
X109500000Y-132080000D01*
X73500000Y-95780000D02*
X73500000Y-98320000D01*
X73165686Y-107580000D02*
X74272792Y-107580000D01*
X73000000Y-105040000D02*
X106460000Y-105040000D01*
X74272792Y-139860000D02*
X73190000Y-139860000D01*
X74272792Y-107580000D02*
X74800000Y-108107208D01*
X65860000Y-126270000D02*
X72570000Y-132980000D01*
X74272792Y-111920000D02*
X68494365Y-111920000D01*
X74800000Y-133507208D02*
X74800000Y-139332792D01*
X110000000Y-132040000D02*
X111150000Y-130890000D01*
X66000000Y-95300000D02*
X66000000Y-100414314D01*
X73190000Y-139860000D02*
X65860000Y-147190000D01*
X72570000Y-132980000D02*
X74272792Y-132980000D01*
X111150000Y-109730000D02*
X109000000Y-107580000D01*
X64760000Y-115654365D02*
X64760000Y-120090000D01*
X66000000Y-95300000D02*
X66000000Y-97840000D01*
X66000000Y-95300000D02*
X70480000Y-95300000D01*
X111150000Y-130890000D02*
X111150000Y-109730000D01*
X111945000Y-152725000D02*
X111945000Y-134525000D01*
X65860000Y-121190000D02*
X65860000Y-126270000D01*
X65860000Y-149730000D02*
X65860000Y-147190000D01*
X72200000Y-99620000D02*
X72200000Y-104240000D01*
X74800000Y-111392792D02*
X74272792Y-111920000D01*
X66000000Y-100414314D02*
X73165686Y-107580000D01*
X74800000Y-108107208D02*
X74800000Y-111392792D01*
X106460000Y-105040000D02*
X109000000Y-107580000D01*
X74272792Y-132980000D02*
X74800000Y-133507208D01*
X64760000Y-120090000D02*
X65860000Y-121190000D01*
%TO.N,UART_DATA*%
X74800000Y-102100000D02*
X73500000Y-103400000D01*
X84275000Y-81975000D02*
X83000000Y-80700000D01*
X95000000Y-80500000D02*
X93525000Y-81975000D01*
X83000000Y-80700000D02*
X78400000Y-80700000D01*
X93525000Y-81975000D02*
X84275000Y-81975000D01*
X74800000Y-84300000D02*
X74800000Y-102100000D01*
X71000000Y-80500000D02*
X74800000Y-84300000D01*
X78400000Y-80700000D02*
X74800000Y-84300000D01*
%TO.N,M3STEP*%
X66000000Y-92760000D02*
X64900000Y-93860000D01*
X64900000Y-103375635D02*
X65544365Y-104020000D01*
X64900000Y-93860000D02*
X64900000Y-103375635D01*
X69040000Y-104020000D02*
X73500000Y-108480000D01*
X65544365Y-104020000D02*
X69040000Y-104020000D01*
%TO.N,M3DIR*%
X65544365Y-106900000D02*
X69380000Y-106900000D01*
X64500000Y-91720000D02*
X64500000Y-105855635D01*
X64500000Y-105855635D02*
X65544365Y-106900000D01*
X69380000Y-106900000D02*
X73500000Y-111020000D01*
X66000000Y-90220000D02*
X64500000Y-91720000D01*
%TO.N,M2DIR*%
X65860000Y-116110000D02*
X73470000Y-123720000D01*
X73470000Y-123720000D02*
X73500000Y-123720000D01*
%TO.N,M2STEP*%
X66960000Y-124800000D02*
X73500000Y-131340000D01*
X65860000Y-118650000D02*
X66960000Y-119750000D01*
X66960000Y-119750000D02*
X66960000Y-124800000D01*
%TO.N,M1DIR*%
X73500000Y-134470000D02*
X73500000Y-134280000D01*
X65860000Y-142110000D02*
X73500000Y-134470000D01*
%TO.N,M1STEP*%
X65860000Y-144650000D02*
X73500000Y-137010000D01*
X73500000Y-137010000D02*
X73500000Y-136420000D01*
%TO.N,FAULT3*%
X64100000Y-144445635D02*
X65404365Y-145750000D01*
X65404365Y-145750000D02*
X66710000Y-145750000D01*
X53300000Y-92760000D02*
X64100000Y-103560000D01*
X66710000Y-145750000D02*
X73500000Y-138960000D01*
X64100000Y-103560000D02*
X64100000Y-144445635D01*
%TO.N,FAULT2*%
X54260000Y-142225635D02*
X65404365Y-153370000D01*
X53160000Y-118650000D02*
X54260000Y-119750000D01*
X65404365Y-153370000D02*
X66315635Y-153370000D01*
X72196320Y-147489315D02*
X72196320Y-142803680D01*
X54260000Y-119750000D02*
X54260000Y-142225635D01*
X72196320Y-142803680D02*
X73500000Y-141500000D01*
X66315635Y-153370000D02*
X72196320Y-147489315D01*
%TO.N,FAULT1*%
X68376392Y-155910000D02*
X74796320Y-149490072D01*
X74796320Y-145337280D02*
X73496320Y-144037280D01*
X53160000Y-144650000D02*
X64420000Y-155910000D01*
X74796320Y-149490072D02*
X74796320Y-145337280D01*
X64420000Y-155910000D02*
X68376392Y-155910000D01*
%TO.N,ENC_OUT1*%
X97420000Y-136420000D02*
X96360000Y-136420000D01*
X98500000Y-139835000D02*
X98500000Y-137500000D01*
X98500000Y-137500000D02*
X97420000Y-136420000D01*
X96360000Y-136900000D02*
X96360000Y-136420000D01*
X110000000Y-151335000D02*
X98500000Y-139835000D01*
%TO.N,ENC_OUT2*%
X96360000Y-125640000D02*
X96360000Y-126260000D01*
X109500000Y-129540000D02*
X106220000Y-126260000D01*
X106220000Y-126260000D02*
X96360000Y-126260000D01*
%TO.N,ENC_OUT3*%
X107360000Y-103400000D02*
X96360000Y-103400000D01*
X109000000Y-105040000D02*
X107360000Y-103400000D01*
%TO.N,+7.5V*%
D22*
X72000000Y-79000000D02*
X73500000Y-80500000D01*
X83875000Y-79075000D02*
X85500000Y-80700000D01*
X73500000Y-80500000D02*
X74925000Y-79075000D01*
X58500000Y-79000000D02*
X72000000Y-79000000D01*
X96075000Y-79075000D02*
X97500000Y-80500000D01*
X85500000Y-80700000D02*
X87125000Y-79075000D01*
X56500000Y-81000000D02*
X58500000Y-79000000D01*
X74925000Y-79075000D02*
X83875000Y-79075000D01*
X87125000Y-79075000D02*
X96075000Y-79075000D01*
%TO.N,Net-(A3-A2)*%
D23*
X42500000Y-94880000D02*
X52880000Y-94880000D01*
X52880000Y-94880000D02*
X53300000Y-95300000D01*
%TO.N,Net-(A3-A1)*%
X42500000Y-97420000D02*
X52880000Y-97420000D01*
X52880000Y-97420000D02*
X53300000Y-97840000D01*
%TO.N,Net-(A3-B1)*%
X42500000Y-99960000D02*
X52880000Y-99960000D01*
X52880000Y-99960000D02*
X53300000Y-100380000D01*
%TO.N,Net-(A3-B2)*%
X52880000Y-102500000D02*
X53300000Y-102920000D01*
X42500000Y-102500000D02*
X52880000Y-102500000D01*
%TO.N,Net-(A1-A2)*%
X42000000Y-148960000D02*
X51390000Y-148960000D01*
X51390000Y-148960000D02*
X53160000Y-147190000D01*
%TO.N,Net-(A1-A1)*%
X42000000Y-151500000D02*
X42850000Y-150650000D01*
X42000000Y-151500000D02*
X42500000Y-151500000D01*
X42850000Y-150650000D02*
X52240000Y-150650000D01*
X52240000Y-150650000D02*
X53160000Y-149730000D01*
%TO.N,Net-(A1-B1)*%
X42000000Y-154040000D02*
X43770000Y-152270000D01*
X43770000Y-152270000D02*
X53160000Y-152270000D01*
%TO.N,Net-(A1-B2)*%
X43770000Y-154810000D02*
X53160000Y-154810000D01*
X42000000Y-156580000D02*
X43770000Y-154810000D01*
%TO.N,+12V*%
X46000000Y-113000000D02*
X30500000Y-128500000D01*
X45500000Y-166317621D02*
X30500000Y-151317621D01*
X45500000Y-137817621D02*
X45817621Y-137817621D01*
X49745242Y-133890000D02*
X53160000Y-133890000D01*
X46732379Y-166317621D02*
X53160000Y-159890000D01*
X48300000Y-113000000D02*
X53300000Y-108000000D01*
X45500000Y-166317621D02*
X46732379Y-166317621D01*
X45817621Y-137817621D02*
X49745242Y-133890000D01*
X31000000Y-137500000D02*
X31317621Y-137817621D01*
X30500000Y-128500000D02*
X30500000Y-137500000D01*
X31317621Y-137817621D02*
X45500000Y-137817621D01*
X30500000Y-151317621D02*
X30500000Y-137500000D01*
X46000000Y-113000000D02*
X48300000Y-113000000D01*
X30500000Y-137500000D02*
X31000000Y-137500000D01*
%TO.N,Net-(A2-A2)*%
X52350000Y-120380000D02*
X53160000Y-121190000D01*
X42500000Y-120380000D02*
X52350000Y-120380000D01*
%TO.N,Net-(A2-A1)*%
X42500000Y-122920000D02*
X52350000Y-122920000D01*
X52350000Y-122920000D02*
X53160000Y-123730000D01*
%TO.N,Net-(A2-B1)*%
X52350000Y-125460000D02*
X53160000Y-126270000D01*
X42500000Y-125460000D02*
X52350000Y-125460000D01*
%TO.N,Net-(A2-B2)*%
X42500000Y-128000000D02*
X52350000Y-128000000D01*
X52350000Y-128000000D02*
X53160000Y-128810000D01*
%TD*%
M02*
