%TF.GenerationSoftware,KiCad,Pcbnew,9.0.7*%
%TF.CreationDate,2026-05-26T23:11:51-07:00*%
%TF.ProjectId,Controller,436f6e74-726f-46c6-9c65-722e6b696361,rev?*%
%TF.SameCoordinates,Original*%
%TF.FileFunction,Copper,L1,Top*%
%TF.FilePolarity,Positive*%
%FSLAX46Y46*%
G04 Gerber Fmt 4.6, Leading zero omitted, Abs format (unit mm)*
G04 Created by KiCad (PCBNEW 9.0.7) date 2026-05-26 23:11:51*
%MOMM*%
%LPD*%
G01*
G04 APERTURE LIST*
%TA.AperFunction,ComponentPad*%
%ADD10R,2.000000X1.200000*%
%TD*%
%TA.AperFunction,ComponentPad*%
%ADD11O,2.000000X1.200000*%
%TD*%
%TA.AperFunction,ComponentPad*%
%ADD12R,1.700000X1.700000*%
%TD*%
%TA.AperFunction,ComponentPad*%
%ADD13C,1.700000*%
%TD*%
%TA.AperFunction,Conductor*%
%ADD14C,0.200000*%
%TD*%
G04 APERTURE END LIST*
D10*
%TO.P,U1,1,3V3*%
%TO.N,+3.3V*%
X66140000Y-52660000D03*
D11*
%TO.P,U1,2,3V3*%
X66140000Y-55200000D03*
%TO.P,U1,3,CHIP_PU*%
%TO.N,unconnected-(U1-CHIP_PU-Pad3)*%
X66140000Y-57740000D03*
%TO.P,U1,4,GPIO4/ADC1_CH3*%
%TO.N,SDA1*%
X66140000Y-60280000D03*
%TO.P,U1,5,GPIO5/ADC1_CH4*%
%TO.N,SCL1*%
X66140000Y-62820000D03*
%TO.P,U1,6,GPIO6/ADC1_CH5*%
%TO.N,SDA2*%
X66140000Y-65360000D03*
%TO.P,U1,7,GPIO7/ADC1_CH6*%
%TO.N,SCL2*%
X66140000Y-67900000D03*
%TO.P,U1,8,GPIO15/ADC2_CH4/32K_P*%
%TO.N,unconnected-(U1-GPIO15{slash}ADC2_CH4{slash}32K_P-Pad8)*%
X66140000Y-70440000D03*
%TO.P,U1,9,GPIO16/ADC2_CH5/32K_N*%
%TO.N,unconnected-(U1-GPIO16{slash}ADC2_CH5{slash}32K_N-Pad9)*%
X66140000Y-72980000D03*
%TO.P,U1,10,GPIO17/ADC2_CH6*%
%TO.N,SCL6*%
X66140000Y-75520000D03*
%TO.P,U1,11,GPIO18/ADC2_CH7*%
%TO.N,SDA6*%
X66140000Y-78060000D03*
%TO.P,U1,12,GPIO8/ADC1_CH7*%
%TO.N,SDA3*%
X66140000Y-80600000D03*
%TO.P,U1,13,GPIO3/ADC1_CH2*%
%TO.N,unconnected-(U1-GPIO3{slash}ADC1_CH2-Pad13)*%
X66140000Y-83140000D03*
%TO.P,U1,14,GPIO46*%
%TO.N,unconnected-(U1-GPIO46-Pad14)*%
X66140000Y-85680000D03*
%TO.P,U1,15,GPIO9/ADC1_CH8*%
%TO.N,SCL3*%
X66140000Y-88220000D03*
%TO.P,U1,16,GPIO10/ADC1_CH9*%
%TO.N,SDA4*%
X66140000Y-90760000D03*
%TO.P,U1,17,GPIO11/ADC2_CH0*%
%TO.N,SCL4*%
X66140000Y-93300000D03*
%TO.P,U1,18,GPIO12/ADC2_CH1*%
%TO.N,SDA5*%
X66140000Y-95840000D03*
%TO.P,U1,19,GPIO13/ADC2_CH2*%
%TO.N,SCL5*%
X66140000Y-98380000D03*
%TO.P,U1,20,GPIO14/ADC2_CH3*%
%TO.N,unconnected-(U1-GPIO14{slash}ADC2_CH3-Pad20)*%
X66136320Y-100917280D03*
%TO.P,U1,21,5V*%
%TO.N,unconnected-(U1-5V-Pad21)*%
X66136320Y-103457280D03*
%TO.P,U1,22,GND*%
%TO.N,GND*%
X66136320Y-105997280D03*
%TO.P,U1,23,GND*%
X89000000Y-106000000D03*
%TO.P,U1,24,GND*%
X89000000Y-103460000D03*
%TO.P,U1,25,GPIO19/USB_D-*%
%TO.N,unconnected-(U1-GPIO19{slash}USB_D--Pad25)*%
X89000000Y-100920000D03*
%TO.P,U1,26,GPIO20/USB_D+*%
%TO.N,unconnected-(U1-GPIO20{slash}USB_D+-Pad26)*%
X89000000Y-98380000D03*
%TO.P,U1,27,GPIO21*%
%TO.N,unconnected-(U1-GPIO21-Pad27)*%
X89000000Y-95840000D03*
%TO.P,U1,28,GPIO47*%
%TO.N,unconnected-(U1-GPIO47-Pad28)*%
X89000000Y-93300000D03*
%TO.P,U1,29,GPIO48*%
%TO.N,unconnected-(U1-GPIO48-Pad29)*%
X89000000Y-90760000D03*
%TO.P,U1,30,GPIO45*%
%TO.N,unconnected-(U1-GPIO45-Pad30)*%
X89000000Y-88220000D03*
%TO.P,U1,31,GPIO0*%
%TO.N,unconnected-(U1-GPIO0-Pad31)*%
X89000000Y-85680000D03*
%TO.P,U1,32,GPIO35*%
%TO.N,unconnected-(U1-GPIO35-Pad32)*%
X89000000Y-83140000D03*
%TO.P,U1,33,GPIO36*%
%TO.N,unconnected-(U1-GPIO36-Pad33)*%
X89000000Y-80600000D03*
%TO.P,U1,34,GPIO37*%
%TO.N,unconnected-(U1-GPIO37-Pad34)*%
X89000000Y-78060000D03*
%TO.P,U1,35,GPIO38*%
%TO.N,unconnected-(U1-GPIO38-Pad35)*%
X89000000Y-75520000D03*
%TO.P,U1,36,GPIO39/MTCK*%
%TO.N,unconnected-(U1-GPIO39{slash}MTCK-Pad36)*%
X89000000Y-72980000D03*
%TO.P,U1,37,GPIO40/MTDO*%
%TO.N,unconnected-(U1-GPIO40{slash}MTDO-Pad37)*%
X89000000Y-70440000D03*
%TO.P,U1,38,GPIO41/MTDI*%
%TO.N,unconnected-(U1-GPIO41{slash}MTDI-Pad38)*%
X89000000Y-67900000D03*
%TO.P,U1,39,GPIO42/MTMS*%
%TO.N,unconnected-(U1-GPIO42{slash}MTMS-Pad39)*%
X89000000Y-65360000D03*
%TO.P,U1,40,GPIO2/ADC1_CH1*%
%TO.N,unconnected-(U1-GPIO2{slash}ADC1_CH1-Pad40)*%
X89000000Y-62820000D03*
%TO.P,U1,41,GPIO1/ADC1_CH0*%
%TO.N,unconnected-(U1-GPIO1{slash}ADC1_CH0-Pad41)*%
X89000000Y-60280000D03*
%TO.P,U1,42,GPIO44/U0RXD*%
%TO.N,unconnected-(U1-GPIO44{slash}U0RXD-Pad42)*%
X89000000Y-57740000D03*
%TO.P,U1,43,GPIO43/U0TXD*%
%TO.N,unconnected-(U1-GPIO43{slash}U0TXD-Pad43)*%
X89000000Y-55200000D03*
%TO.P,U1,44,GND*%
%TO.N,GND*%
X89000000Y-52660000D03*
%TD*%
D12*
%TO.P,J6,1,Pin_1*%
%TO.N,+3.3V*%
X49000000Y-76500000D03*
D13*
%TO.P,J6,2,Pin_2*%
%TO.N,GND*%
X51540000Y-76500000D03*
%TO.P,J6,3,Pin_3*%
%TO.N,SCL6*%
X54080000Y-76500000D03*
%TO.P,J6,4,Pin_4*%
%TO.N,SDA6*%
X56620000Y-76500000D03*
%TD*%
D12*
%TO.P,J5,1,Pin_1*%
%TO.N,+3.3V*%
X49000000Y-96000000D03*
D13*
%TO.P,J5,2,Pin_2*%
%TO.N,GND*%
X51540000Y-96000000D03*
%TO.P,J5,3,Pin_3*%
%TO.N,SCL5*%
X54080000Y-96000000D03*
%TO.P,J5,4,Pin_4*%
%TO.N,SDA5*%
X56620000Y-96000000D03*
%TD*%
D12*
%TO.P,J4,1,Pin_1*%
%TO.N,+3.3V*%
X48880000Y-90000000D03*
D13*
%TO.P,J4,2,Pin_2*%
%TO.N,GND*%
X51420000Y-90000000D03*
%TO.P,J4,3,Pin_3*%
%TO.N,SCL4*%
X53960000Y-90000000D03*
%TO.P,J4,4,Pin_4*%
%TO.N,SDA4*%
X56500000Y-90000000D03*
%TD*%
D12*
%TO.P,J3,1,Pin_1*%
%TO.N,+3.3V*%
X48880000Y-83000000D03*
D13*
%TO.P,J3,2,Pin_2*%
%TO.N,GND*%
X51420000Y-83000000D03*
%TO.P,J3,3,Pin_3*%
%TO.N,SCL3*%
X53960000Y-83000000D03*
%TO.P,J3,4,Pin_4*%
%TO.N,SDA3*%
X56500000Y-83000000D03*
%TD*%
D12*
%TO.P,J2,1,Pin_1*%
%TO.N,+3.3V*%
X48880000Y-70000000D03*
D13*
%TO.P,J2,2,Pin_2*%
%TO.N,GND*%
X51420000Y-70000000D03*
%TO.P,J2,3,Pin_3*%
%TO.N,SCL2*%
X53960000Y-70000000D03*
%TO.P,J2,4,Pin_4*%
%TO.N,SDA2*%
X56500000Y-70000000D03*
%TD*%
D12*
%TO.P,J1,1,Pin_1*%
%TO.N,+3.3V*%
X48880000Y-63500000D03*
D13*
%TO.P,J1,2,Pin_2*%
%TO.N,GND*%
X51420000Y-63500000D03*
%TO.P,J1,3,Pin_3*%
%TO.N,SCL1*%
X53960000Y-63500000D03*
%TO.P,J1,4,Pin_4*%
%TO.N,SDA1*%
X56500000Y-63500000D03*
%TD*%
D14*
%TO.N,GND*%
X92000000Y-102000000D02*
X90540000Y-103460000D01*
X92000000Y-55660000D02*
X92000000Y-102000000D01*
X90540000Y-103460000D02*
X89000000Y-103460000D01*
X89000000Y-52660000D02*
X92000000Y-55660000D01*
X51420000Y-76380000D02*
X51540000Y-76500000D01*
X51420000Y-70000000D02*
X51420000Y-76380000D01*
X51420000Y-63500000D02*
X51420000Y-70000000D01*
%TO.N,SDA5*%
X65980000Y-96000000D02*
X66140000Y-95840000D01*
X56620000Y-96000000D02*
X65980000Y-96000000D01*
%TO.N,SCL5*%
X56460000Y-98380000D02*
X66140000Y-98380000D01*
X54080000Y-96000000D02*
X56460000Y-98380000D01*
%TO.N,SCL4*%
X57260000Y-93300000D02*
X66140000Y-93300000D01*
X53960000Y-90000000D02*
X57260000Y-93300000D01*
%TO.N,SDA4*%
X65380000Y-90000000D02*
X66140000Y-90760000D01*
X56500000Y-90000000D02*
X65380000Y-90000000D01*
%TO.N,SCL3*%
X59180000Y-88220000D02*
X66140000Y-88220000D01*
X53960000Y-83000000D02*
X59180000Y-88220000D01*
%TO.N,SDA3*%
X63740000Y-83000000D02*
X66140000Y-80600000D01*
X56500000Y-83000000D02*
X63740000Y-83000000D01*
%TO.N,SCL6*%
X65969000Y-75349000D02*
X66140000Y-75520000D01*
X55231000Y-75349000D02*
X65969000Y-75349000D01*
X54080000Y-76500000D02*
X55231000Y-75349000D01*
%TO.N,SDA6*%
X56620000Y-76500000D02*
X58180000Y-78060000D01*
X58180000Y-78060000D02*
X66140000Y-78060000D01*
%TO.N,SDA2*%
X61140000Y-65360000D02*
X66140000Y-65360000D01*
X56500000Y-70000000D02*
X61140000Y-65360000D01*
%TO.N,SCL2*%
X62889000Y-71151000D02*
X66140000Y-67900000D01*
X55111000Y-71151000D02*
X62889000Y-71151000D01*
X53960000Y-70000000D02*
X55111000Y-71151000D01*
%TO.N,SDA1*%
X59720000Y-60280000D02*
X66140000Y-60280000D01*
X56500000Y-63500000D02*
X59720000Y-60280000D01*
%TO.N,SCL1*%
X64309000Y-64651000D02*
X66140000Y-62820000D01*
X55111000Y-64651000D02*
X64309000Y-64651000D01*
X53960000Y-63500000D02*
X55111000Y-64651000D01*
%TO.N,+3.3V*%
X66140000Y-55200000D02*
X66140000Y-52660000D01*
X57180000Y-55200000D02*
X66140000Y-55200000D01*
X48880000Y-63500000D02*
X57180000Y-55200000D01*
X49000000Y-90120000D02*
X48880000Y-90000000D01*
X49000000Y-96000000D02*
X49000000Y-90120000D01*
X48880000Y-90000000D02*
X48880000Y-83000000D01*
X48880000Y-76620000D02*
X49000000Y-76500000D01*
X48880000Y-83000000D02*
X48880000Y-76620000D01*
X49000000Y-70120000D02*
X48880000Y-70000000D01*
X49000000Y-76500000D02*
X49000000Y-70120000D01*
X48880000Y-63500000D02*
X48880000Y-70000000D01*
%TO.N,GND*%
X51540000Y-70120000D02*
X51420000Y-70000000D01*
X51230000Y-76190000D02*
X51540000Y-76500000D01*
X51540000Y-82880000D02*
X51420000Y-83000000D01*
X51540000Y-76500000D02*
X51540000Y-82880000D01*
X51420000Y-83000000D02*
X51420000Y-90000000D01*
X51420000Y-95880000D02*
X51540000Y-96000000D01*
X51420000Y-90000000D02*
X51420000Y-95880000D01*
X61537280Y-105997280D02*
X51540000Y-96000000D01*
X66136320Y-105997280D02*
X61537280Y-105997280D01*
X66139040Y-106000000D02*
X66136320Y-105997280D01*
X89000000Y-106000000D02*
X66139040Y-106000000D01*
X89000000Y-103460000D02*
X89000000Y-106000000D01*
%TD*%
M02*
